M48
; DRILL file {KiCad 9.0.2} date 2026-01-15T20:54:25-0700
; FORMAT={-:-/ absolute / metric / decimal}
; #@! TF.CreationDate,2026-01-15T20:54:25-07:00
; #@! TF.GenerationSoftware,Kicad,Pcbnew,9.0.2
; #@! TF.FileFunction,Plated,1,2,PTH
FMAT,2
METRIC
; #@! TA.AperFunction,Plated,PTH,ViaDrill
T1C0.600
; #@! TA.AperFunction,Plated,PTH,ComponentDrill
T2C1.000
%
G90
G05
T1
X109.55Y-116.5
X110.2Y-119.2
X113.8Y-122.4
X116.2Y-122.4
T2
X105.0Y-80.04
X105.0Y-82.54
X105.0Y-92.58
X105.0Y-95.08
X105.0Y-105.12
X105.0Y-107.62
X105.0Y-117.66
X105.0Y-120.16
X115.0Y-80.04
X115.0Y-82.54
X115.0Y-92.58
X115.0Y-95.08
X115.0Y-105.12
X115.0Y-107.62
X115.0Y-117.66
X115.0Y-120.16
X125.0Y-80.04
X125.0Y-82.54
X125.0Y-92.58
X125.0Y-95.08
X125.0Y-105.12
X125.0Y-107.62
X125.0Y-117.66
X125.0Y-120.16
X135.0Y-92.38
X135.0Y-94.92
X135.0Y-97.46
X135.0Y-100.0
X135.0Y-102.54
X135.0Y-105.08
X135.0Y-107.62
X137.54Y-92.38
X137.54Y-94.92
X137.54Y-97.46
X137.54Y-100.0
X137.54Y-102.54
X137.54Y-105.08
X137.54Y-107.62
M30
