%TF.GenerationSoftware,KiCad,Pcbnew,9.0.2*%
%TF.CreationDate,2026-01-15T20:54:27-07:00*%
%TF.ProjectId,Button Mainboard Interface,42757474-6f6e-4204-9d61-696e626f6172,rev?*%
%TF.SameCoordinates,Original*%
%TF.FileFunction,Copper,L2,Bot*%
%TF.FilePolarity,Positive*%
%FSLAX46Y46*%
G04 Gerber Fmt 4.6, Leading zero omitted, Abs format (unit mm)*
G04 Created by KiCad (PCBNEW 9.0.2) date 2026-01-15 20:54:27*
%MOMM*%
%LPD*%
G01*
G04 APERTURE LIST*
G04 Aperture macros list*
%AMRoundRect*
0 Rectangle with rounded corners*
0 $1 Rounding radius*
0 $2 $3 $4 $5 $6 $7 $8 $9 X,Y pos of 4 corners*
0 Add a 4 corners polygon primitive as box body*
4,1,4,$2,$3,$4,$5,$6,$7,$8,$9,$2,$3,0*
0 Add four circle primitives for the rounded corners*
1,1,$1+$1,$2,$3*
1,1,$1+$1,$4,$5*
1,1,$1+$1,$6,$7*
1,1,$1+$1,$8,$9*
0 Add four rect primitives between the rounded corners*
20,1,$1+$1,$2,$3,$4,$5,0*
20,1,$1+$1,$4,$5,$6,$7,0*
20,1,$1+$1,$6,$7,$8,$9,0*
20,1,$1+$1,$8,$9,$2,$3,0*%
G04 Aperture macros list end*
%TA.AperFunction,ComponentPad*%
%ADD10RoundRect,0.250000X0.750000X-0.600000X0.750000X0.600000X-0.750000X0.600000X-0.750000X-0.600000X0*%
%TD*%
%TA.AperFunction,ComponentPad*%
%ADD11O,2.000000X1.700000*%
%TD*%
%TA.AperFunction,ComponentPad*%
%ADD12RoundRect,0.250000X-0.600000X-0.600000X0.600000X-0.600000X0.600000X0.600000X-0.600000X0.600000X0*%
%TD*%
%TA.AperFunction,ComponentPad*%
%ADD13C,1.700000*%
%TD*%
%TA.AperFunction,ViaPad*%
%ADD14C,1.000000*%
%TD*%
%TA.AperFunction,Conductor*%
%ADD15C,0.350000*%
%TD*%
G04 APERTURE END LIST*
D10*
%TO.P,J3,1,Pin_1*%
%TO.N,/BTN_3*%
X125000000Y-82540000D03*
D11*
%TO.P,J3,2,Pin_2*%
%TO.N,GND*%
X125000000Y-80040000D03*
%TD*%
D10*
%TO.P,J4,1,Pin_1*%
%TO.N,/BTN_4*%
X105000000Y-95080000D03*
D11*
%TO.P,J4,2,Pin_2*%
%TO.N,GND*%
X105000000Y-92580000D03*
%TD*%
D10*
%TO.P,J5,1,Pin_1*%
%TO.N,/BTN_5*%
X115000000Y-95080000D03*
D11*
%TO.P,J5,2,Pin_2*%
%TO.N,GND*%
X115000000Y-92580000D03*
%TD*%
D10*
%TO.P,J12,1,Pin_1*%
%TO.N,/BTN_12*%
X125000000Y-120160000D03*
D11*
%TO.P,J12,2,Pin_2*%
%TO.N,GND*%
X125000000Y-117660000D03*
%TD*%
D10*
%TO.P,J7,1,Pin_1*%
%TO.N,/BTN_7*%
X105000000Y-107620000D03*
D11*
%TO.P,J7,2,Pin_2*%
%TO.N,GND*%
X105000000Y-105120000D03*
%TD*%
D10*
%TO.P,J1,1,Pin_1*%
%TO.N,/BTN_1*%
X105000000Y-82540000D03*
D11*
%TO.P,J1,2,Pin_2*%
%TO.N,GND*%
X105000000Y-80040000D03*
%TD*%
D12*
%TO.P,J100,1,Pin_1*%
%TO.N,/BTN_1*%
X135000000Y-92380000D03*
D13*
%TO.P,J100,2,Pin_2*%
%TO.N,/BTN_2*%
X137540000Y-92380000D03*
%TO.P,J100,3,Pin_3*%
%TO.N,/BTN_3*%
X135000000Y-94920000D03*
%TO.P,J100,4,Pin_4*%
%TO.N,/BTN_4*%
X137540000Y-94920000D03*
%TO.P,J100,5,Pin_5*%
%TO.N,/BTN_5*%
X135000000Y-97460000D03*
%TO.P,J100,6,Pin_6*%
%TO.N,/BTN_6*%
X137540000Y-97460000D03*
%TO.P,J100,7,Pin_7*%
%TO.N,VCC*%
X135000000Y-100000000D03*
%TO.P,J100,8,Pin_8*%
%TO.N,GND*%
X137540000Y-100000000D03*
%TO.P,J100,9,Pin_9*%
%TO.N,/BTN_7*%
X135000000Y-102540000D03*
%TO.P,J100,10,Pin_10*%
%TO.N,/BTN_8*%
X137540000Y-102540000D03*
%TO.P,J100,11,Pin_11*%
%TO.N,/BTN_9*%
X135000000Y-105080000D03*
%TO.P,J100,12,Pin_12*%
%TO.N,/BTN_10*%
X137540000Y-105080000D03*
%TO.P,J100,13,Pin_13*%
%TO.N,/BTN_11*%
X135000000Y-107620000D03*
%TO.P,J100,14,Pin_14*%
%TO.N,/BTN_12*%
X137540000Y-107620000D03*
%TD*%
D10*
%TO.P,J11,1,Pin_1*%
%TO.N,/BTN_11*%
X115000000Y-120160000D03*
D11*
%TO.P,J11,2,Pin_2*%
%TO.N,GND*%
X115000000Y-117660000D03*
%TD*%
D10*
%TO.P,J9,1,Pin_1*%
%TO.N,/BTN_9*%
X125000000Y-107620000D03*
D11*
%TO.P,J9,2,Pin_2*%
%TO.N,GND*%
X125000000Y-105120000D03*
%TD*%
D10*
%TO.P,J6,1,Pin_1*%
%TO.N,/BTN_6*%
X125000000Y-95080000D03*
D11*
%TO.P,J6,2,Pin_2*%
%TO.N,GND*%
X125000000Y-92580000D03*
%TD*%
D10*
%TO.P,J8,1,Pin_1*%
%TO.N,/BTN_8*%
X115000000Y-107620000D03*
D11*
%TO.P,J8,2,Pin_2*%
%TO.N,GND*%
X115000000Y-105120000D03*
%TD*%
D10*
%TO.P,J2,1,Pin_1*%
%TO.N,/BTN_2*%
X115000000Y-82540000D03*
D11*
%TO.P,J2,2,Pin_2*%
%TO.N,GND*%
X115000000Y-80040000D03*
%TD*%
D10*
%TO.P,J10,1,Pin_1*%
%TO.N,/BTN_10*%
X105000000Y-120160000D03*
D11*
%TO.P,J10,2,Pin_2*%
%TO.N,GND*%
X105000000Y-117660000D03*
%TD*%
D14*
%TO.N,VCC*%
X109550000Y-116500000D03*
X116200000Y-122400000D03*
X113800000Y-122400000D03*
X110200000Y-119200000D03*
%TD*%
D15*
%TO.N,/BTN_3*%
X133450000Y-93370000D02*
X135000000Y-94920000D01*
X133450000Y-87150000D02*
X133450000Y-93370000D01*
X128840000Y-82540000D02*
X133450000Y-87150000D01*
X125000000Y-82540000D02*
X128840000Y-82540000D01*
%TO.N,VCC*%
X116250000Y-122350000D02*
X116250000Y-122200000D01*
X109800000Y-119000000D02*
X109800000Y-116750000D01*
X110200000Y-119200000D02*
X110000000Y-119200000D01*
X109800000Y-116750000D02*
X109550000Y-116500000D01*
X110000000Y-119200000D02*
X109800000Y-119000000D01*
X116200000Y-122400000D02*
X113800000Y-122400000D01*
X116200000Y-122400000D02*
X116250000Y-122350000D01*
%TD*%
%TA.AperFunction,Conductor*%
%TO.N,GND*%
G36*
X137074075Y-100192993D02*
G01*
X137139901Y-100307007D01*
X137232993Y-100400099D01*
X137347007Y-100465925D01*
X137410591Y-100482962D01*
X137261681Y-100631873D01*
X137200358Y-100665358D01*
X137130666Y-100660374D01*
X137074733Y-100618502D01*
X137050316Y-100553038D01*
X137050000Y-100544192D01*
X137050000Y-100187808D01*
X137061861Y-100147412D01*
X137074075Y-100192993D01*
G37*
%TD.AperFunction*%
%TA.AperFunction,Conductor*%
G36*
X137255203Y-99362095D02*
G01*
X137261681Y-99368127D01*
X137410591Y-99517037D01*
X137347007Y-99534075D01*
X137232993Y-99599901D01*
X137139901Y-99692993D01*
X137074075Y-99807007D01*
X137061413Y-99854261D01*
X137052834Y-99838550D01*
X137050000Y-99812192D01*
X137050000Y-99455808D01*
X137069685Y-99388769D01*
X137122489Y-99343014D01*
X137191647Y-99333070D01*
X137255203Y-99362095D01*
G37*
%TD.AperFunction*%
%TA.AperFunction,Conductor*%
G36*
X141442539Y-76520185D02*
G01*
X141488294Y-76572989D01*
X141499500Y-76624500D01*
X141499500Y-125535500D01*
X141479815Y-125602539D01*
X141427011Y-125648294D01*
X141375500Y-125659500D01*
X100624500Y-125659500D01*
X100557461Y-125639815D01*
X100511706Y-125587011D01*
X100500500Y-125535500D01*
X100500500Y-122498543D01*
X112799499Y-122498543D01*
X112837947Y-122691829D01*
X112837950Y-122691839D01*
X112913364Y-122873907D01*
X112913371Y-122873920D01*
X113022860Y-123037781D01*
X113022863Y-123037785D01*
X113162214Y-123177136D01*
X113162218Y-123177139D01*
X113326079Y-123286628D01*
X113326092Y-123286635D01*
X113508160Y-123362049D01*
X113508165Y-123362051D01*
X113508169Y-123362051D01*
X113508170Y-123362052D01*
X113701456Y-123400500D01*
X113701459Y-123400500D01*
X113898543Y-123400500D01*
X114028582Y-123374632D01*
X114091835Y-123362051D01*
X114273914Y-123286632D01*
X114437782Y-123177139D01*
X114503103Y-123111817D01*
X114564424Y-123078334D01*
X114590783Y-123075500D01*
X115409217Y-123075500D01*
X115476256Y-123095185D01*
X115496893Y-123111814D01*
X115562215Y-123177136D01*
X115562219Y-123177140D01*
X115726079Y-123286628D01*
X115726092Y-123286635D01*
X115908160Y-123362049D01*
X115908165Y-123362051D01*
X115908169Y-123362051D01*
X115908170Y-123362052D01*
X116101456Y-123400500D01*
X116101459Y-123400500D01*
X116298543Y-123400500D01*
X116428582Y-123374632D01*
X116491835Y-123362051D01*
X116673914Y-123286632D01*
X116837782Y-123177139D01*
X116977139Y-123037782D01*
X117086632Y-122873914D01*
X117162051Y-122691835D01*
X117200500Y-122498541D01*
X117200500Y-122301459D01*
X117200500Y-122301456D01*
X117162052Y-122108170D01*
X117162051Y-122108169D01*
X117162051Y-122108165D01*
X117162049Y-122108160D01*
X117086635Y-121926092D01*
X117086628Y-121926079D01*
X116977139Y-121762218D01*
X116977136Y-121762214D01*
X116837785Y-121622863D01*
X116837781Y-121622860D01*
X116673920Y-121513371D01*
X116673907Y-121513364D01*
X116491839Y-121437950D01*
X116491829Y-121437947D01*
X116418766Y-121423414D01*
X116356855Y-121391029D01*
X116322281Y-121330313D01*
X116326021Y-121260544D01*
X116339895Y-121235404D01*
X116338920Y-121234803D01*
X116342710Y-121228657D01*
X116342712Y-121228656D01*
X116434814Y-121079334D01*
X116489999Y-120912797D01*
X116500500Y-120810009D01*
X116500499Y-119509992D01*
X116500498Y-119509983D01*
X123499500Y-119509983D01*
X123499500Y-120810001D01*
X123499501Y-120810018D01*
X123510000Y-120912796D01*
X123510001Y-120912799D01*
X123565185Y-121079331D01*
X123565186Y-121079334D01*
X123657288Y-121228656D01*
X123781344Y-121352712D01*
X123930666Y-121444814D01*
X124097203Y-121499999D01*
X124199991Y-121510500D01*
X125800008Y-121510499D01*
X125902797Y-121499999D01*
X126069334Y-121444814D01*
X126218656Y-121352712D01*
X126342712Y-121228656D01*
X126434814Y-121079334D01*
X126489999Y-120912797D01*
X126500500Y-120810009D01*
X126500499Y-119509992D01*
X126498643Y-119491827D01*
X126489999Y-119407203D01*
X126489998Y-119407200D01*
X126461092Y-119319969D01*
X126434814Y-119240666D01*
X126342712Y-119091344D01*
X126218656Y-118967288D01*
X126069334Y-118875186D01*
X126069332Y-118875185D01*
X126063440Y-118871551D01*
X126016716Y-118819603D01*
X126005493Y-118750641D01*
X126033337Y-118686558D01*
X126040856Y-118678330D01*
X126179728Y-118539458D01*
X126304620Y-118367557D01*
X126401095Y-118178217D01*
X126466757Y-117976129D01*
X126466757Y-117976126D01*
X126477231Y-117910000D01*
X125433012Y-117910000D01*
X125465925Y-117852993D01*
X125500000Y-117725826D01*
X125500000Y-117594174D01*
X125465925Y-117467007D01*
X125433012Y-117410000D01*
X126477231Y-117410000D01*
X126466757Y-117343873D01*
X126466757Y-117343870D01*
X126401095Y-117141782D01*
X126304620Y-116952442D01*
X126179727Y-116780540D01*
X126179723Y-116780535D01*
X126029464Y-116630276D01*
X126029459Y-116630272D01*
X125857557Y-116505379D01*
X125668217Y-116408904D01*
X125466129Y-116343242D01*
X125256246Y-116310000D01*
X125250000Y-116310000D01*
X125250000Y-117226988D01*
X125192993Y-117194075D01*
X125065826Y-117160000D01*
X124934174Y-117160000D01*
X124807007Y-117194075D01*
X124750000Y-117226988D01*
X124750000Y-116310000D01*
X124743754Y-116310000D01*
X124533872Y-116343242D01*
X124533869Y-116343242D01*
X124331782Y-116408904D01*
X124142442Y-116505379D01*
X123970540Y-116630272D01*
X123970535Y-116630276D01*
X123820276Y-116780535D01*
X123820272Y-116780540D01*
X123695379Y-116952442D01*
X123598904Y-117141782D01*
X123533242Y-117343870D01*
X123533242Y-117343873D01*
X123522769Y-117410000D01*
X124566988Y-117410000D01*
X124534075Y-117467007D01*
X124500000Y-117594174D01*
X124500000Y-117725826D01*
X124534075Y-117852993D01*
X124566988Y-117910000D01*
X123522769Y-117910000D01*
X123533242Y-117976126D01*
X123533242Y-117976129D01*
X123598904Y-118178217D01*
X123695379Y-118367557D01*
X123820272Y-118539459D01*
X123820276Y-118539464D01*
X123959143Y-118678331D01*
X123992628Y-118739654D01*
X123987644Y-118809346D01*
X123945772Y-118865279D01*
X123936559Y-118871551D01*
X123781342Y-118967289D01*
X123657289Y-119091342D01*
X123565187Y-119240663D01*
X123565186Y-119240666D01*
X123510001Y-119407203D01*
X123510001Y-119407204D01*
X123510000Y-119407204D01*
X123499500Y-119509983D01*
X116500498Y-119509983D01*
X116498643Y-119491827D01*
X116489999Y-119407203D01*
X116489998Y-119407200D01*
X116461092Y-119319969D01*
X116434814Y-119240666D01*
X116342712Y-119091344D01*
X116218656Y-118967288D01*
X116069334Y-118875186D01*
X116069332Y-118875185D01*
X116063440Y-118871551D01*
X116016716Y-118819603D01*
X116005493Y-118750641D01*
X116033337Y-118686558D01*
X116040856Y-118678330D01*
X116179728Y-118539458D01*
X116304620Y-118367557D01*
X116401095Y-118178217D01*
X116466757Y-117976129D01*
X116466757Y-117976126D01*
X116477231Y-117910000D01*
X115433012Y-117910000D01*
X115465925Y-117852993D01*
X115500000Y-117725826D01*
X115500000Y-117594174D01*
X115465925Y-117467007D01*
X115433012Y-117410000D01*
X116477231Y-117410000D01*
X116466757Y-117343873D01*
X116466757Y-117343870D01*
X116401095Y-117141782D01*
X116304620Y-116952442D01*
X116179727Y-116780540D01*
X116179723Y-116780535D01*
X116029464Y-116630276D01*
X116029459Y-116630272D01*
X115857557Y-116505379D01*
X115668217Y-116408904D01*
X115466129Y-116343242D01*
X115256246Y-116310000D01*
X115250000Y-116310000D01*
X115250000Y-117226988D01*
X115192993Y-117194075D01*
X115065826Y-117160000D01*
X114934174Y-117160000D01*
X114807007Y-117194075D01*
X114750000Y-117226988D01*
X114750000Y-116310000D01*
X114743754Y-116310000D01*
X114533872Y-116343242D01*
X114533869Y-116343242D01*
X114331782Y-116408904D01*
X114142442Y-116505379D01*
X113970540Y-116630272D01*
X113970535Y-116630276D01*
X113820276Y-116780535D01*
X113820272Y-116780540D01*
X113695379Y-116952442D01*
X113598904Y-117141782D01*
X113533242Y-117343870D01*
X113533242Y-117343873D01*
X113522769Y-117410000D01*
X114566988Y-117410000D01*
X114534075Y-117467007D01*
X114500000Y-117594174D01*
X114500000Y-117725826D01*
X114534075Y-117852993D01*
X114566988Y-117910000D01*
X113522769Y-117910000D01*
X113533242Y-117976126D01*
X113533242Y-117976129D01*
X113598904Y-118178217D01*
X113695379Y-118367557D01*
X113820272Y-118539459D01*
X113820276Y-118539464D01*
X113959143Y-118678331D01*
X113992628Y-118739654D01*
X113987644Y-118809346D01*
X113945772Y-118865279D01*
X113936559Y-118871551D01*
X113781342Y-118967289D01*
X113657289Y-119091342D01*
X113565187Y-119240663D01*
X113565186Y-119240666D01*
X113510001Y-119407203D01*
X113510001Y-119407204D01*
X113510000Y-119407204D01*
X113499500Y-119509983D01*
X113499500Y-120810001D01*
X113499501Y-120810018D01*
X113510000Y-120912796D01*
X113510001Y-120912799D01*
X113565185Y-121079331D01*
X113565187Y-121079336D01*
X113661080Y-121234803D01*
X113658860Y-121236172D01*
X113680448Y-121289682D01*
X113667407Y-121358324D01*
X113619326Y-121409019D01*
X113581233Y-121423414D01*
X113508170Y-121437947D01*
X113508160Y-121437950D01*
X113326092Y-121513364D01*
X113326079Y-121513371D01*
X113162218Y-121622860D01*
X113162214Y-121622863D01*
X113022863Y-121762214D01*
X113022860Y-121762218D01*
X112913371Y-121926079D01*
X112913364Y-121926092D01*
X112837950Y-122108160D01*
X112837947Y-122108170D01*
X112799500Y-122301456D01*
X112799500Y-122301459D01*
X112799500Y-122498541D01*
X112799500Y-122498543D01*
X112799499Y-122498543D01*
X100500500Y-122498543D01*
X100500500Y-119509983D01*
X103499500Y-119509983D01*
X103499500Y-120810001D01*
X103499501Y-120810018D01*
X103510000Y-120912796D01*
X103510001Y-120912799D01*
X103565185Y-121079331D01*
X103565186Y-121079334D01*
X103657288Y-121228656D01*
X103781344Y-121352712D01*
X103930666Y-121444814D01*
X104097203Y-121499999D01*
X104199991Y-121510500D01*
X105800008Y-121510499D01*
X105902797Y-121499999D01*
X106069334Y-121444814D01*
X106218656Y-121352712D01*
X106342712Y-121228656D01*
X106434814Y-121079334D01*
X106489999Y-120912797D01*
X106500500Y-120810009D01*
X106500499Y-119509992D01*
X106498643Y-119491827D01*
X106489999Y-119407203D01*
X106489998Y-119407200D01*
X106461092Y-119319969D01*
X106434814Y-119240666D01*
X106342712Y-119091344D01*
X106218656Y-118967288D01*
X106069334Y-118875186D01*
X106069332Y-118875185D01*
X106063440Y-118871551D01*
X106016716Y-118819603D01*
X106005493Y-118750641D01*
X106033337Y-118686558D01*
X106040856Y-118678330D01*
X106179728Y-118539458D01*
X106304620Y-118367557D01*
X106401095Y-118178217D01*
X106466757Y-117976129D01*
X106466757Y-117976126D01*
X106477231Y-117910000D01*
X105433012Y-117910000D01*
X105465925Y-117852993D01*
X105500000Y-117725826D01*
X105500000Y-117594174D01*
X105465925Y-117467007D01*
X105433012Y-117410000D01*
X106477231Y-117410000D01*
X106466757Y-117343873D01*
X106466757Y-117343870D01*
X106401095Y-117141782D01*
X106304620Y-116952442D01*
X106179727Y-116780540D01*
X106179723Y-116780535D01*
X106029464Y-116630276D01*
X106029459Y-116630272D01*
X105985787Y-116598543D01*
X108549499Y-116598543D01*
X108587947Y-116791829D01*
X108587950Y-116791839D01*
X108663364Y-116973907D01*
X108663371Y-116973920D01*
X108772860Y-117137781D01*
X108772863Y-117137785D01*
X108912215Y-117277137D01*
X108912218Y-117277139D01*
X109069391Y-117382158D01*
X109114196Y-117435770D01*
X109124500Y-117485260D01*
X109124500Y-119066535D01*
X109150457Y-119197028D01*
X109150459Y-119197036D01*
X109201293Y-119319759D01*
X109208346Y-119343012D01*
X109237947Y-119491827D01*
X109237950Y-119491839D01*
X109313364Y-119673907D01*
X109313371Y-119673920D01*
X109422860Y-119837781D01*
X109422863Y-119837785D01*
X109562214Y-119977136D01*
X109562218Y-119977139D01*
X109726079Y-120086628D01*
X109726092Y-120086635D01*
X109908160Y-120162049D01*
X109908165Y-120162051D01*
X109908169Y-120162051D01*
X109908170Y-120162052D01*
X110101456Y-120200500D01*
X110101459Y-120200500D01*
X110298543Y-120200500D01*
X110428582Y-120174632D01*
X110491835Y-120162051D01*
X110673914Y-120086632D01*
X110837782Y-119977139D01*
X110977139Y-119837782D01*
X111086632Y-119673914D01*
X111162051Y-119491835D01*
X111196238Y-119319969D01*
X111200500Y-119298543D01*
X111200500Y-119101456D01*
X111162052Y-118908170D01*
X111162051Y-118908169D01*
X111162051Y-118908165D01*
X111125368Y-118819603D01*
X111086635Y-118726092D01*
X111086628Y-118726079D01*
X110977139Y-118562218D01*
X110977136Y-118562214D01*
X110837785Y-118422863D01*
X110837781Y-118422860D01*
X110673920Y-118313371D01*
X110673911Y-118313366D01*
X110552047Y-118262889D01*
X110497644Y-118219048D01*
X110475579Y-118152754D01*
X110475500Y-118148328D01*
X110475500Y-116904742D01*
X110484939Y-116857289D01*
X110512051Y-116791835D01*
X110524632Y-116728582D01*
X110550500Y-116598543D01*
X110550500Y-116401456D01*
X110512052Y-116208170D01*
X110512051Y-116208169D01*
X110512051Y-116208165D01*
X110512049Y-116208160D01*
X110436635Y-116026092D01*
X110436628Y-116026079D01*
X110327139Y-115862218D01*
X110327136Y-115862214D01*
X110187785Y-115722863D01*
X110187781Y-115722860D01*
X110023920Y-115613371D01*
X110023907Y-115613364D01*
X109841839Y-115537950D01*
X109841829Y-115537947D01*
X109648543Y-115499500D01*
X109648541Y-115499500D01*
X109451459Y-115499500D01*
X109451457Y-115499500D01*
X109258170Y-115537947D01*
X109258160Y-115537950D01*
X109076092Y-115613364D01*
X109076079Y-115613371D01*
X108912218Y-115722860D01*
X108912214Y-115722863D01*
X108772863Y-115862214D01*
X108772860Y-115862218D01*
X108663371Y-116026079D01*
X108663364Y-116026092D01*
X108587950Y-116208160D01*
X108587947Y-116208170D01*
X108549500Y-116401456D01*
X108549500Y-116401459D01*
X108549500Y-116598541D01*
X108549500Y-116598543D01*
X108549499Y-116598543D01*
X105985787Y-116598543D01*
X105857557Y-116505379D01*
X105668217Y-116408904D01*
X105466129Y-116343242D01*
X105256246Y-116310000D01*
X105250000Y-116310000D01*
X105250000Y-117226988D01*
X105192993Y-117194075D01*
X105065826Y-117160000D01*
X104934174Y-117160000D01*
X104807007Y-117194075D01*
X104750000Y-117226988D01*
X104750000Y-116310000D01*
X104743754Y-116310000D01*
X104533872Y-116343242D01*
X104533869Y-116343242D01*
X104331782Y-116408904D01*
X104142442Y-116505379D01*
X103970540Y-116630272D01*
X103970535Y-116630276D01*
X103820276Y-116780535D01*
X103820272Y-116780540D01*
X103695379Y-116952442D01*
X103598904Y-117141782D01*
X103533242Y-117343870D01*
X103533242Y-117343873D01*
X103522769Y-117410000D01*
X104566988Y-117410000D01*
X104534075Y-117467007D01*
X104500000Y-117594174D01*
X104500000Y-117725826D01*
X104534075Y-117852993D01*
X104566988Y-117910000D01*
X103522769Y-117910000D01*
X103533242Y-117976126D01*
X103533242Y-117976129D01*
X103598904Y-118178217D01*
X103695379Y-118367557D01*
X103820272Y-118539459D01*
X103820276Y-118539464D01*
X103959143Y-118678331D01*
X103992628Y-118739654D01*
X103987644Y-118809346D01*
X103945772Y-118865279D01*
X103936559Y-118871551D01*
X103781342Y-118967289D01*
X103657289Y-119091342D01*
X103565187Y-119240663D01*
X103565186Y-119240666D01*
X103510001Y-119407203D01*
X103510001Y-119407204D01*
X103510000Y-119407204D01*
X103499500Y-119509983D01*
X100500500Y-119509983D01*
X100500500Y-106969983D01*
X103499500Y-106969983D01*
X103499500Y-108270001D01*
X103499501Y-108270018D01*
X103510000Y-108372796D01*
X103510001Y-108372799D01*
X103552081Y-108499786D01*
X103565186Y-108539334D01*
X103657288Y-108688656D01*
X103781344Y-108812712D01*
X103930666Y-108904814D01*
X104097203Y-108959999D01*
X104199991Y-108970500D01*
X105800008Y-108970499D01*
X105902797Y-108959999D01*
X106069334Y-108904814D01*
X106218656Y-108812712D01*
X106342712Y-108688656D01*
X106434814Y-108539334D01*
X106489999Y-108372797D01*
X106500500Y-108270009D01*
X106500499Y-106969992D01*
X106500498Y-106969983D01*
X113499500Y-106969983D01*
X113499500Y-108270001D01*
X113499501Y-108270018D01*
X113510000Y-108372796D01*
X113510001Y-108372799D01*
X113552081Y-108499786D01*
X113565186Y-108539334D01*
X113657288Y-108688656D01*
X113781344Y-108812712D01*
X113930666Y-108904814D01*
X114097203Y-108959999D01*
X114199991Y-108970500D01*
X115800008Y-108970499D01*
X115902797Y-108959999D01*
X116069334Y-108904814D01*
X116218656Y-108812712D01*
X116342712Y-108688656D01*
X116434814Y-108539334D01*
X116489999Y-108372797D01*
X116500500Y-108270009D01*
X116500499Y-106969992D01*
X116500498Y-106969983D01*
X123499500Y-106969983D01*
X123499500Y-108270001D01*
X123499501Y-108270018D01*
X123510000Y-108372796D01*
X123510001Y-108372799D01*
X123552081Y-108499786D01*
X123565186Y-108539334D01*
X123657288Y-108688656D01*
X123781344Y-108812712D01*
X123930666Y-108904814D01*
X124097203Y-108959999D01*
X124199991Y-108970500D01*
X125800008Y-108970499D01*
X125902797Y-108959999D01*
X126069334Y-108904814D01*
X126218656Y-108812712D01*
X126342712Y-108688656D01*
X126434814Y-108539334D01*
X126489999Y-108372797D01*
X126500500Y-108270009D01*
X126500499Y-106969992D01*
X126489999Y-106867203D01*
X126434814Y-106700666D01*
X126342712Y-106551344D01*
X126218656Y-106427288D01*
X126069334Y-106335186D01*
X126069332Y-106335185D01*
X126063440Y-106331551D01*
X126016716Y-106279603D01*
X126005493Y-106210641D01*
X126033337Y-106146558D01*
X126040856Y-106138330D01*
X126179728Y-105999458D01*
X126304620Y-105827557D01*
X126401095Y-105638217D01*
X126466757Y-105436129D01*
X126466757Y-105436126D01*
X126477231Y-105370000D01*
X125433012Y-105370000D01*
X125465925Y-105312993D01*
X125500000Y-105185826D01*
X125500000Y-105054174D01*
X125465925Y-104927007D01*
X125433012Y-104870000D01*
X126477231Y-104870000D01*
X126466757Y-104803873D01*
X126466757Y-104803870D01*
X126401095Y-104601782D01*
X126304620Y-104412442D01*
X126179727Y-104240540D01*
X126179723Y-104240535D01*
X126029464Y-104090276D01*
X126029459Y-104090272D01*
X125857557Y-103965379D01*
X125668217Y-103868904D01*
X125466129Y-103803242D01*
X125256246Y-103770000D01*
X125250000Y-103770000D01*
X125250000Y-104686988D01*
X125192993Y-104654075D01*
X125065826Y-104620000D01*
X124934174Y-104620000D01*
X124807007Y-104654075D01*
X124750000Y-104686988D01*
X124750000Y-103770000D01*
X124743754Y-103770000D01*
X124533872Y-103803242D01*
X124533869Y-103803242D01*
X124331782Y-103868904D01*
X124142442Y-103965379D01*
X123970540Y-104090272D01*
X123970535Y-104090276D01*
X123820276Y-104240535D01*
X123820272Y-104240540D01*
X123695379Y-104412442D01*
X123598904Y-104601782D01*
X123533242Y-104803870D01*
X123533242Y-104803873D01*
X123522769Y-104870000D01*
X124566988Y-104870000D01*
X124534075Y-104927007D01*
X124500000Y-105054174D01*
X124500000Y-105185826D01*
X124534075Y-105312993D01*
X124566988Y-105370000D01*
X123522769Y-105370000D01*
X123533242Y-105436126D01*
X123533242Y-105436129D01*
X123598904Y-105638217D01*
X123695379Y-105827557D01*
X123820272Y-105999459D01*
X123820276Y-105999464D01*
X123959143Y-106138331D01*
X123992628Y-106199654D01*
X123987644Y-106269346D01*
X123945772Y-106325279D01*
X123936559Y-106331551D01*
X123781342Y-106427289D01*
X123657289Y-106551342D01*
X123565187Y-106700663D01*
X123565186Y-106700666D01*
X123510001Y-106867203D01*
X123510001Y-106867204D01*
X123510000Y-106867204D01*
X123499500Y-106969983D01*
X116500498Y-106969983D01*
X116489999Y-106867203D01*
X116434814Y-106700666D01*
X116342712Y-106551344D01*
X116218656Y-106427288D01*
X116069334Y-106335186D01*
X116069332Y-106335185D01*
X116063440Y-106331551D01*
X116016716Y-106279603D01*
X116005493Y-106210641D01*
X116033337Y-106146558D01*
X116040856Y-106138330D01*
X116179728Y-105999458D01*
X116304620Y-105827557D01*
X116401095Y-105638217D01*
X116466757Y-105436129D01*
X116466757Y-105436126D01*
X116477231Y-105370000D01*
X115433012Y-105370000D01*
X115465925Y-105312993D01*
X115500000Y-105185826D01*
X115500000Y-105054174D01*
X115465925Y-104927007D01*
X115433012Y-104870000D01*
X116477231Y-104870000D01*
X116466757Y-104803873D01*
X116466757Y-104803870D01*
X116401095Y-104601782D01*
X116304620Y-104412442D01*
X116179727Y-104240540D01*
X116179723Y-104240535D01*
X116029464Y-104090276D01*
X116029459Y-104090272D01*
X115857557Y-103965379D01*
X115668217Y-103868904D01*
X115466129Y-103803242D01*
X115256246Y-103770000D01*
X115250000Y-103770000D01*
X115250000Y-104686988D01*
X115192993Y-104654075D01*
X115065826Y-104620000D01*
X114934174Y-104620000D01*
X114807007Y-104654075D01*
X114750000Y-104686988D01*
X114750000Y-103770000D01*
X114743754Y-103770000D01*
X114533872Y-103803242D01*
X114533869Y-103803242D01*
X114331782Y-103868904D01*
X114142442Y-103965379D01*
X113970540Y-104090272D01*
X113970535Y-104090276D01*
X113820276Y-104240535D01*
X113820272Y-104240540D01*
X113695379Y-104412442D01*
X113598904Y-104601782D01*
X113533242Y-104803870D01*
X113533242Y-104803873D01*
X113522769Y-104870000D01*
X114566988Y-104870000D01*
X114534075Y-104927007D01*
X114500000Y-105054174D01*
X114500000Y-105185826D01*
X114534075Y-105312993D01*
X114566988Y-105370000D01*
X113522769Y-105370000D01*
X113533242Y-105436126D01*
X113533242Y-105436129D01*
X113598904Y-105638217D01*
X113695379Y-105827557D01*
X113820272Y-105999459D01*
X113820276Y-105999464D01*
X113959143Y-106138331D01*
X113992628Y-106199654D01*
X113987644Y-106269346D01*
X113945772Y-106325279D01*
X113936559Y-106331551D01*
X113781342Y-106427289D01*
X113657289Y-106551342D01*
X113565187Y-106700663D01*
X113565186Y-106700666D01*
X113510001Y-106867203D01*
X113510001Y-106867204D01*
X113510000Y-106867204D01*
X113499500Y-106969983D01*
X106500498Y-106969983D01*
X106489999Y-106867203D01*
X106434814Y-106700666D01*
X106342712Y-106551344D01*
X106218656Y-106427288D01*
X106069334Y-106335186D01*
X106069332Y-106335185D01*
X106063440Y-106331551D01*
X106016716Y-106279603D01*
X106005493Y-106210641D01*
X106033337Y-106146558D01*
X106040856Y-106138330D01*
X106179728Y-105999458D01*
X106304620Y-105827557D01*
X106401095Y-105638217D01*
X106466757Y-105436129D01*
X106466757Y-105436126D01*
X106477231Y-105370000D01*
X105433012Y-105370000D01*
X105465925Y-105312993D01*
X105500000Y-105185826D01*
X105500000Y-105054174D01*
X105465925Y-104927007D01*
X105433012Y-104870000D01*
X106477231Y-104870000D01*
X106466757Y-104803873D01*
X106466757Y-104803870D01*
X106401095Y-104601782D01*
X106304620Y-104412442D01*
X106179727Y-104240540D01*
X106179723Y-104240535D01*
X106029464Y-104090276D01*
X106029459Y-104090272D01*
X105857557Y-103965379D01*
X105668217Y-103868904D01*
X105466129Y-103803242D01*
X105256246Y-103770000D01*
X105250000Y-103770000D01*
X105250000Y-104686988D01*
X105192993Y-104654075D01*
X105065826Y-104620000D01*
X104934174Y-104620000D01*
X104807007Y-104654075D01*
X104750000Y-104686988D01*
X104750000Y-103770000D01*
X104743754Y-103770000D01*
X104533872Y-103803242D01*
X104533869Y-103803242D01*
X104331782Y-103868904D01*
X104142442Y-103965379D01*
X103970540Y-104090272D01*
X103970535Y-104090276D01*
X103820276Y-104240535D01*
X103820272Y-104240540D01*
X103695379Y-104412442D01*
X103598904Y-104601782D01*
X103533242Y-104803870D01*
X103533242Y-104803873D01*
X103522769Y-104870000D01*
X104566988Y-104870000D01*
X104534075Y-104927007D01*
X104500000Y-105054174D01*
X104500000Y-105185826D01*
X104534075Y-105312993D01*
X104566988Y-105370000D01*
X103522769Y-105370000D01*
X103533242Y-105436126D01*
X103533242Y-105436129D01*
X103598904Y-105638217D01*
X103695379Y-105827557D01*
X103820272Y-105999459D01*
X103820276Y-105999464D01*
X103959143Y-106138331D01*
X103992628Y-106199654D01*
X103987644Y-106269346D01*
X103945772Y-106325279D01*
X103936559Y-106331551D01*
X103781342Y-106427289D01*
X103657289Y-106551342D01*
X103565187Y-106700663D01*
X103565186Y-106700666D01*
X103510001Y-106867203D01*
X103510001Y-106867204D01*
X103510000Y-106867204D01*
X103499500Y-106969983D01*
X100500500Y-106969983D01*
X100500500Y-94429983D01*
X103499500Y-94429983D01*
X103499500Y-95730001D01*
X103499501Y-95730018D01*
X103510000Y-95832796D01*
X103510001Y-95832799D01*
X103548873Y-95950104D01*
X103565186Y-95999334D01*
X103657288Y-96148656D01*
X103781344Y-96272712D01*
X103930666Y-96364814D01*
X104097203Y-96419999D01*
X104199991Y-96430500D01*
X105800008Y-96430499D01*
X105902797Y-96419999D01*
X106069334Y-96364814D01*
X106218656Y-96272712D01*
X106342712Y-96148656D01*
X106434814Y-95999334D01*
X106489999Y-95832797D01*
X106500500Y-95730009D01*
X106500499Y-94429992D01*
X106500498Y-94429983D01*
X113499500Y-94429983D01*
X113499500Y-95730001D01*
X113499501Y-95730018D01*
X113510000Y-95832796D01*
X113510001Y-95832799D01*
X113548873Y-95950104D01*
X113565186Y-95999334D01*
X113657288Y-96148656D01*
X113781344Y-96272712D01*
X113930666Y-96364814D01*
X114097203Y-96419999D01*
X114199991Y-96430500D01*
X115800008Y-96430499D01*
X115902797Y-96419999D01*
X116069334Y-96364814D01*
X116218656Y-96272712D01*
X116342712Y-96148656D01*
X116434814Y-95999334D01*
X116489999Y-95832797D01*
X116500500Y-95730009D01*
X116500499Y-94429992D01*
X116500498Y-94429983D01*
X123499500Y-94429983D01*
X123499500Y-95730001D01*
X123499501Y-95730018D01*
X123510000Y-95832796D01*
X123510001Y-95832799D01*
X123548873Y-95950104D01*
X123565186Y-95999334D01*
X123657288Y-96148656D01*
X123781344Y-96272712D01*
X123930666Y-96364814D01*
X124097203Y-96419999D01*
X124199991Y-96430500D01*
X125800008Y-96430499D01*
X125902797Y-96419999D01*
X126069334Y-96364814D01*
X126218656Y-96272712D01*
X126342712Y-96148656D01*
X126434814Y-95999334D01*
X126489999Y-95832797D01*
X126500500Y-95730009D01*
X126500499Y-94429992D01*
X126489999Y-94327203D01*
X126434814Y-94160666D01*
X126342712Y-94011344D01*
X126218656Y-93887288D01*
X126069334Y-93795186D01*
X126069332Y-93795185D01*
X126063440Y-93791551D01*
X126016716Y-93739603D01*
X126005493Y-93670641D01*
X126033337Y-93606558D01*
X126040856Y-93598330D01*
X126179728Y-93459458D01*
X126304620Y-93287557D01*
X126401095Y-93098217D01*
X126466757Y-92896129D01*
X126466757Y-92896126D01*
X126477231Y-92830000D01*
X125433012Y-92830000D01*
X125465925Y-92772993D01*
X125500000Y-92645826D01*
X125500000Y-92514174D01*
X125465925Y-92387007D01*
X125433012Y-92330000D01*
X126477231Y-92330000D01*
X126466757Y-92263873D01*
X126466757Y-92263870D01*
X126401095Y-92061782D01*
X126304620Y-91872442D01*
X126179727Y-91700540D01*
X126179723Y-91700535D01*
X126029464Y-91550276D01*
X126029459Y-91550272D01*
X125857557Y-91425379D01*
X125668217Y-91328904D01*
X125466129Y-91263242D01*
X125256246Y-91230000D01*
X125250000Y-91230000D01*
X125250000Y-92146988D01*
X125192993Y-92114075D01*
X125065826Y-92080000D01*
X124934174Y-92080000D01*
X124807007Y-92114075D01*
X124750000Y-92146988D01*
X124750000Y-91230000D01*
X124743754Y-91230000D01*
X124533872Y-91263242D01*
X124533869Y-91263242D01*
X124331782Y-91328904D01*
X124142442Y-91425379D01*
X123970540Y-91550272D01*
X123970535Y-91550276D01*
X123820276Y-91700535D01*
X123820272Y-91700540D01*
X123695379Y-91872442D01*
X123598904Y-92061782D01*
X123533242Y-92263870D01*
X123533242Y-92263873D01*
X123522769Y-92330000D01*
X124566988Y-92330000D01*
X124534075Y-92387007D01*
X124500000Y-92514174D01*
X124500000Y-92645826D01*
X124534075Y-92772993D01*
X124566988Y-92830000D01*
X123522769Y-92830000D01*
X123533242Y-92896126D01*
X123533242Y-92896129D01*
X123598904Y-93098217D01*
X123695379Y-93287557D01*
X123820272Y-93459459D01*
X123820276Y-93459464D01*
X123959143Y-93598331D01*
X123992628Y-93659654D01*
X123987644Y-93729346D01*
X123945772Y-93785279D01*
X123936559Y-93791551D01*
X123781342Y-93887289D01*
X123657289Y-94011342D01*
X123565187Y-94160663D01*
X123565185Y-94160668D01*
X123545211Y-94220946D01*
X123510001Y-94327203D01*
X123510001Y-94327204D01*
X123510000Y-94327204D01*
X123499500Y-94429983D01*
X116500498Y-94429983D01*
X116489999Y-94327203D01*
X116434814Y-94160666D01*
X116342712Y-94011344D01*
X116218656Y-93887288D01*
X116069334Y-93795186D01*
X116069332Y-93795185D01*
X116063440Y-93791551D01*
X116016716Y-93739603D01*
X116005493Y-93670641D01*
X116033337Y-93606558D01*
X116040856Y-93598330D01*
X116179728Y-93459458D01*
X116304620Y-93287557D01*
X116401095Y-93098217D01*
X116466757Y-92896129D01*
X116466757Y-92896126D01*
X116477231Y-92830000D01*
X115433012Y-92830000D01*
X115465925Y-92772993D01*
X115500000Y-92645826D01*
X115500000Y-92514174D01*
X115465925Y-92387007D01*
X115433012Y-92330000D01*
X116477231Y-92330000D01*
X116466757Y-92263873D01*
X116466757Y-92263870D01*
X116401095Y-92061782D01*
X116304620Y-91872442D01*
X116179727Y-91700540D01*
X116179723Y-91700535D01*
X116029464Y-91550276D01*
X116029459Y-91550272D01*
X115857557Y-91425379D01*
X115668217Y-91328904D01*
X115466129Y-91263242D01*
X115256246Y-91230000D01*
X115250000Y-91230000D01*
X115250000Y-92146988D01*
X115192993Y-92114075D01*
X115065826Y-92080000D01*
X114934174Y-92080000D01*
X114807007Y-92114075D01*
X114750000Y-92146988D01*
X114750000Y-91230000D01*
X114743754Y-91230000D01*
X114533872Y-91263242D01*
X114533869Y-91263242D01*
X114331782Y-91328904D01*
X114142442Y-91425379D01*
X113970540Y-91550272D01*
X113970535Y-91550276D01*
X113820276Y-91700535D01*
X113820272Y-91700540D01*
X113695379Y-91872442D01*
X113598904Y-92061782D01*
X113533242Y-92263870D01*
X113533242Y-92263873D01*
X113522769Y-92330000D01*
X114566988Y-92330000D01*
X114534075Y-92387007D01*
X114500000Y-92514174D01*
X114500000Y-92645826D01*
X114534075Y-92772993D01*
X114566988Y-92830000D01*
X113522769Y-92830000D01*
X113533242Y-92896126D01*
X113533242Y-92896129D01*
X113598904Y-93098217D01*
X113695379Y-93287557D01*
X113820272Y-93459459D01*
X113820276Y-93459464D01*
X113959143Y-93598331D01*
X113992628Y-93659654D01*
X113987644Y-93729346D01*
X113945772Y-93785279D01*
X113936559Y-93791551D01*
X113781342Y-93887289D01*
X113657289Y-94011342D01*
X113565187Y-94160663D01*
X113565185Y-94160668D01*
X113545211Y-94220946D01*
X113510001Y-94327203D01*
X113510001Y-94327204D01*
X113510000Y-94327204D01*
X113499500Y-94429983D01*
X106500498Y-94429983D01*
X106489999Y-94327203D01*
X106434814Y-94160666D01*
X106342712Y-94011344D01*
X106218656Y-93887288D01*
X106069334Y-93795186D01*
X106069332Y-93795185D01*
X106063440Y-93791551D01*
X106016716Y-93739603D01*
X106005493Y-93670641D01*
X106033337Y-93606558D01*
X106040856Y-93598330D01*
X106179728Y-93459458D01*
X106304620Y-93287557D01*
X106401095Y-93098217D01*
X106466757Y-92896129D01*
X106466757Y-92896126D01*
X106477231Y-92830000D01*
X105433012Y-92830000D01*
X105465925Y-92772993D01*
X105500000Y-92645826D01*
X105500000Y-92514174D01*
X105465925Y-92387007D01*
X105433012Y-92330000D01*
X106477231Y-92330000D01*
X106466757Y-92263873D01*
X106466757Y-92263870D01*
X106401095Y-92061782D01*
X106304620Y-91872442D01*
X106179727Y-91700540D01*
X106179723Y-91700535D01*
X106029464Y-91550276D01*
X106029459Y-91550272D01*
X105857557Y-91425379D01*
X105668217Y-91328904D01*
X105466129Y-91263242D01*
X105256246Y-91230000D01*
X105250000Y-91230000D01*
X105250000Y-92146988D01*
X105192993Y-92114075D01*
X105065826Y-92080000D01*
X104934174Y-92080000D01*
X104807007Y-92114075D01*
X104750000Y-92146988D01*
X104750000Y-91230000D01*
X104743754Y-91230000D01*
X104533872Y-91263242D01*
X104533869Y-91263242D01*
X104331782Y-91328904D01*
X104142442Y-91425379D01*
X103970540Y-91550272D01*
X103970535Y-91550276D01*
X103820276Y-91700535D01*
X103820272Y-91700540D01*
X103695379Y-91872442D01*
X103598904Y-92061782D01*
X103533242Y-92263870D01*
X103533242Y-92263873D01*
X103522769Y-92330000D01*
X104566988Y-92330000D01*
X104534075Y-92387007D01*
X104500000Y-92514174D01*
X104500000Y-92645826D01*
X104534075Y-92772993D01*
X104566988Y-92830000D01*
X103522769Y-92830000D01*
X103533242Y-92896126D01*
X103533242Y-92896129D01*
X103598904Y-93098217D01*
X103695379Y-93287557D01*
X103820272Y-93459459D01*
X103820276Y-93459464D01*
X103959143Y-93598331D01*
X103992628Y-93659654D01*
X103987644Y-93729346D01*
X103945772Y-93785279D01*
X103936559Y-93791551D01*
X103781342Y-93887289D01*
X103657289Y-94011342D01*
X103565187Y-94160663D01*
X103565185Y-94160668D01*
X103545211Y-94220946D01*
X103510001Y-94327203D01*
X103510001Y-94327204D01*
X103510000Y-94327204D01*
X103499500Y-94429983D01*
X100500500Y-94429983D01*
X100500500Y-81889983D01*
X103499500Y-81889983D01*
X103499500Y-83190001D01*
X103499501Y-83190018D01*
X103510000Y-83292796D01*
X103510001Y-83292799D01*
X103512552Y-83300496D01*
X103565186Y-83459334D01*
X103657288Y-83608656D01*
X103781344Y-83732712D01*
X103930666Y-83824814D01*
X104097203Y-83879999D01*
X104199991Y-83890500D01*
X105800008Y-83890499D01*
X105902797Y-83879999D01*
X106069334Y-83824814D01*
X106218656Y-83732712D01*
X106342712Y-83608656D01*
X106434814Y-83459334D01*
X106489999Y-83292797D01*
X106500500Y-83190009D01*
X106500499Y-81889992D01*
X106500498Y-81889983D01*
X113499500Y-81889983D01*
X113499500Y-83190001D01*
X113499501Y-83190018D01*
X113510000Y-83292796D01*
X113510001Y-83292799D01*
X113512552Y-83300496D01*
X113565186Y-83459334D01*
X113657288Y-83608656D01*
X113781344Y-83732712D01*
X113930666Y-83824814D01*
X114097203Y-83879999D01*
X114199991Y-83890500D01*
X115800008Y-83890499D01*
X115902797Y-83879999D01*
X116069334Y-83824814D01*
X116218656Y-83732712D01*
X116342712Y-83608656D01*
X116434814Y-83459334D01*
X116489999Y-83292797D01*
X116500500Y-83190009D01*
X116500499Y-81889992D01*
X116500498Y-81889983D01*
X123499500Y-81889983D01*
X123499500Y-83190001D01*
X123499501Y-83190018D01*
X123510000Y-83292796D01*
X123510001Y-83292799D01*
X123512552Y-83300496D01*
X123565186Y-83459334D01*
X123657288Y-83608656D01*
X123781344Y-83732712D01*
X123930666Y-83824814D01*
X124097203Y-83879999D01*
X124199991Y-83890500D01*
X125800008Y-83890499D01*
X125902797Y-83879999D01*
X126069334Y-83824814D01*
X126218656Y-83732712D01*
X126342712Y-83608656D01*
X126434814Y-83459334D01*
X126487448Y-83300493D01*
X126527219Y-83243051D01*
X126591735Y-83216228D01*
X126605153Y-83215500D01*
X128508837Y-83215500D01*
X128575876Y-83235185D01*
X128596518Y-83251819D01*
X132738181Y-87393482D01*
X132771666Y-87454805D01*
X132774500Y-87481163D01*
X132774500Y-93436535D01*
X132800457Y-93567028D01*
X132800459Y-93567036D01*
X132851378Y-93689965D01*
X132851383Y-93689975D01*
X132925304Y-93800605D01*
X132925307Y-93800609D01*
X133644327Y-94519628D01*
X133677812Y-94580951D01*
X133679119Y-94626707D01*
X133649500Y-94813713D01*
X133649500Y-95026286D01*
X133682753Y-95236239D01*
X133748444Y-95438414D01*
X133844951Y-95627820D01*
X133969890Y-95799786D01*
X134120213Y-95950109D01*
X134292182Y-96075050D01*
X134300946Y-96079516D01*
X134351742Y-96127491D01*
X134368536Y-96195312D01*
X134345998Y-96261447D01*
X134300946Y-96300484D01*
X134292182Y-96304949D01*
X134120213Y-96429890D01*
X133969890Y-96580213D01*
X133844951Y-96752179D01*
X133748444Y-96941585D01*
X133682753Y-97143760D01*
X133649500Y-97353713D01*
X133649500Y-97566286D01*
X133682753Y-97776239D01*
X133748444Y-97978414D01*
X133844951Y-98167820D01*
X133969890Y-98339786D01*
X134120213Y-98490109D01*
X134292182Y-98615050D01*
X134300946Y-98619516D01*
X134351742Y-98667491D01*
X134368536Y-98735312D01*
X134345998Y-98801447D01*
X134300946Y-98840484D01*
X134292182Y-98844949D01*
X134120213Y-98969890D01*
X133969890Y-99120213D01*
X133844951Y-99292179D01*
X133748444Y-99481585D01*
X133682753Y-99683760D01*
X133649500Y-99893713D01*
X133649500Y-100106286D01*
X133682753Y-100316239D01*
X133748444Y-100518414D01*
X133844951Y-100707820D01*
X133969890Y-100879786D01*
X134120213Y-101030109D01*
X134292182Y-101155050D01*
X134300946Y-101159516D01*
X134351742Y-101207491D01*
X134368536Y-101275312D01*
X134345998Y-101341447D01*
X134300946Y-101380484D01*
X134292182Y-101384949D01*
X134120213Y-101509890D01*
X133969890Y-101660213D01*
X133844951Y-101832179D01*
X133748444Y-102021585D01*
X133682753Y-102223760D01*
X133649500Y-102433713D01*
X133649500Y-102646286D01*
X133682753Y-102856239D01*
X133748444Y-103058414D01*
X133844951Y-103247820D01*
X133969890Y-103419786D01*
X134120213Y-103570109D01*
X134292182Y-103695050D01*
X134300946Y-103699516D01*
X134351742Y-103747491D01*
X134368536Y-103815312D01*
X134345998Y-103881447D01*
X134300946Y-103920484D01*
X134292182Y-103924949D01*
X134120213Y-104049890D01*
X133969890Y-104200213D01*
X133844951Y-104372179D01*
X133748444Y-104561585D01*
X133682753Y-104763760D01*
X133649500Y-104973713D01*
X133649500Y-105186287D01*
X133682754Y-105396243D01*
X133722997Y-105520099D01*
X133748444Y-105598414D01*
X133844951Y-105787820D01*
X133969890Y-105959786D01*
X134120213Y-106110109D01*
X134292182Y-106235050D01*
X134300946Y-106239516D01*
X134351742Y-106287491D01*
X134368536Y-106355312D01*
X134345998Y-106421447D01*
X134300946Y-106460484D01*
X134292182Y-106464949D01*
X134120213Y-106589890D01*
X133969890Y-106740213D01*
X133844951Y-106912179D01*
X133748444Y-107101585D01*
X133682753Y-107303760D01*
X133649500Y-107513713D01*
X133649500Y-107726286D01*
X133682753Y-107936239D01*
X133748444Y-108138414D01*
X133844951Y-108327820D01*
X133969890Y-108499786D01*
X134120213Y-108650109D01*
X134292179Y-108775048D01*
X134292181Y-108775049D01*
X134292184Y-108775051D01*
X134481588Y-108871557D01*
X134683757Y-108937246D01*
X134893713Y-108970500D01*
X134893714Y-108970500D01*
X135106286Y-108970500D01*
X135106287Y-108970500D01*
X135316243Y-108937246D01*
X135518412Y-108871557D01*
X135707816Y-108775051D01*
X135729789Y-108759086D01*
X135879786Y-108650109D01*
X135879788Y-108650106D01*
X135879792Y-108650104D01*
X136030104Y-108499792D01*
X136030106Y-108499788D01*
X136030109Y-108499786D01*
X136155048Y-108327820D01*
X136155047Y-108327820D01*
X136155051Y-108327816D01*
X136159514Y-108319054D01*
X136207488Y-108268259D01*
X136275308Y-108251463D01*
X136341444Y-108273999D01*
X136380486Y-108319056D01*
X136384951Y-108327820D01*
X136509890Y-108499786D01*
X136660213Y-108650109D01*
X136832179Y-108775048D01*
X136832181Y-108775049D01*
X136832184Y-108775051D01*
X137021588Y-108871557D01*
X137223757Y-108937246D01*
X137433713Y-108970500D01*
X137433714Y-108970500D01*
X137646286Y-108970500D01*
X137646287Y-108970500D01*
X137856243Y-108937246D01*
X138058412Y-108871557D01*
X138247816Y-108775051D01*
X138269789Y-108759086D01*
X138419786Y-108650109D01*
X138419788Y-108650106D01*
X138419792Y-108650104D01*
X138570104Y-108499792D01*
X138570106Y-108499788D01*
X138570109Y-108499786D01*
X138695048Y-108327820D01*
X138695047Y-108327820D01*
X138695051Y-108327816D01*
X138791557Y-108138412D01*
X138857246Y-107936243D01*
X138890500Y-107726287D01*
X138890500Y-107513713D01*
X138857246Y-107303757D01*
X138791557Y-107101588D01*
X138695051Y-106912184D01*
X138695049Y-106912181D01*
X138695048Y-106912179D01*
X138570109Y-106740213D01*
X138419786Y-106589890D01*
X138247820Y-106464951D01*
X138247115Y-106464591D01*
X138239054Y-106460485D01*
X138188259Y-106412512D01*
X138171463Y-106344692D01*
X138193999Y-106278556D01*
X138239054Y-106239515D01*
X138247816Y-106235051D01*
X138296536Y-106199654D01*
X138419786Y-106110109D01*
X138419788Y-106110106D01*
X138419792Y-106110104D01*
X138570104Y-105959792D01*
X138570106Y-105959788D01*
X138570109Y-105959786D01*
X138695048Y-105787820D01*
X138695047Y-105787820D01*
X138695051Y-105787816D01*
X138791557Y-105598412D01*
X138857246Y-105396243D01*
X138890500Y-105186287D01*
X138890500Y-104973713D01*
X138857246Y-104763757D01*
X138791557Y-104561588D01*
X138695051Y-104372184D01*
X138695049Y-104372181D01*
X138695048Y-104372179D01*
X138570109Y-104200213D01*
X138419786Y-104049890D01*
X138247820Y-103924951D01*
X138247115Y-103924591D01*
X138239054Y-103920485D01*
X138188259Y-103872512D01*
X138171463Y-103804692D01*
X138193999Y-103738556D01*
X138239054Y-103699515D01*
X138247816Y-103695051D01*
X138269789Y-103679086D01*
X138419786Y-103570109D01*
X138419788Y-103570106D01*
X138419792Y-103570104D01*
X138570104Y-103419792D01*
X138570106Y-103419788D01*
X138570109Y-103419786D01*
X138695048Y-103247820D01*
X138695047Y-103247820D01*
X138695051Y-103247816D01*
X138791557Y-103058412D01*
X138857246Y-102856243D01*
X138890500Y-102646287D01*
X138890500Y-102433713D01*
X138857246Y-102223757D01*
X138791557Y-102021588D01*
X138695051Y-101832184D01*
X138695049Y-101832181D01*
X138695048Y-101832179D01*
X138570109Y-101660213D01*
X138419786Y-101509890D01*
X138247817Y-101384949D01*
X138238504Y-101380204D01*
X138187707Y-101332230D01*
X138170912Y-101264409D01*
X138193449Y-101198274D01*
X138238507Y-101159232D01*
X138247555Y-101154622D01*
X138301716Y-101115270D01*
X138301717Y-101115270D01*
X137669408Y-100482962D01*
X137732993Y-100465925D01*
X137847007Y-100400099D01*
X137940099Y-100307007D01*
X138005925Y-100192993D01*
X138022962Y-100129408D01*
X138655270Y-100761717D01*
X138655270Y-100761716D01*
X138694622Y-100707554D01*
X138791095Y-100518217D01*
X138856757Y-100316130D01*
X138856757Y-100316127D01*
X138890000Y-100106246D01*
X138890000Y-99893753D01*
X138856757Y-99683872D01*
X138856757Y-99683869D01*
X138791095Y-99481782D01*
X138694624Y-99292449D01*
X138655270Y-99238282D01*
X138655269Y-99238282D01*
X138022962Y-99870590D01*
X138005925Y-99807007D01*
X137940099Y-99692993D01*
X137847007Y-99599901D01*
X137732993Y-99534075D01*
X137669409Y-99517037D01*
X138301716Y-98884728D01*
X138247547Y-98845373D01*
X138247547Y-98845372D01*
X138238500Y-98840763D01*
X138187706Y-98792788D01*
X138170912Y-98724966D01*
X138193451Y-98658832D01*
X138238508Y-98619793D01*
X138247816Y-98615051D01*
X138327007Y-98557515D01*
X138419786Y-98490109D01*
X138419788Y-98490106D01*
X138419792Y-98490104D01*
X138570104Y-98339792D01*
X138570106Y-98339788D01*
X138570109Y-98339786D01*
X138695048Y-98167820D01*
X138695047Y-98167820D01*
X138695051Y-98167816D01*
X138791557Y-97978412D01*
X138857246Y-97776243D01*
X138890500Y-97566287D01*
X138890500Y-97353713D01*
X138857246Y-97143757D01*
X138791557Y-96941588D01*
X138695051Y-96752184D01*
X138695049Y-96752181D01*
X138695048Y-96752179D01*
X138570109Y-96580213D01*
X138419786Y-96429890D01*
X138247820Y-96304951D01*
X138247115Y-96304591D01*
X138239054Y-96300485D01*
X138188259Y-96252512D01*
X138171463Y-96184692D01*
X138193999Y-96118556D01*
X138239054Y-96079515D01*
X138247816Y-96075051D01*
X138269789Y-96059086D01*
X138419786Y-95950109D01*
X138419788Y-95950106D01*
X138419792Y-95950104D01*
X138570104Y-95799792D01*
X138570106Y-95799788D01*
X138570109Y-95799786D01*
X138695048Y-95627820D01*
X138695047Y-95627820D01*
X138695051Y-95627816D01*
X138791557Y-95438412D01*
X138857246Y-95236243D01*
X138890500Y-95026287D01*
X138890500Y-94813713D01*
X138857246Y-94603757D01*
X138791557Y-94401588D01*
X138695051Y-94212184D01*
X138695049Y-94212181D01*
X138695048Y-94212179D01*
X138570109Y-94040213D01*
X138419786Y-93889890D01*
X138247820Y-93764951D01*
X138247115Y-93764591D01*
X138239054Y-93760485D01*
X138188259Y-93712512D01*
X138171463Y-93644692D01*
X138193999Y-93578556D01*
X138239054Y-93539515D01*
X138247816Y-93535051D01*
X138269789Y-93519086D01*
X138419786Y-93410109D01*
X138419788Y-93410106D01*
X138419792Y-93410104D01*
X138570104Y-93259792D01*
X138570106Y-93259788D01*
X138570109Y-93259786D01*
X138695048Y-93087820D01*
X138695047Y-93087820D01*
X138695051Y-93087816D01*
X138791557Y-92898412D01*
X138857246Y-92696243D01*
X138890500Y-92486287D01*
X138890500Y-92273713D01*
X138857246Y-92063757D01*
X138791557Y-91861588D01*
X138695051Y-91672184D01*
X138695049Y-91672181D01*
X138695048Y-91672179D01*
X138570109Y-91500213D01*
X138419786Y-91349890D01*
X138247820Y-91224951D01*
X138058414Y-91128444D01*
X138058413Y-91128443D01*
X138058412Y-91128443D01*
X137856243Y-91062754D01*
X137856241Y-91062753D01*
X137856240Y-91062753D01*
X137694957Y-91037208D01*
X137646287Y-91029500D01*
X137433713Y-91029500D01*
X137385042Y-91037208D01*
X137223760Y-91062753D01*
X137021585Y-91128444D01*
X136832179Y-91224951D01*
X136660213Y-91349890D01*
X136509894Y-91500209D01*
X136509885Y-91500219D01*
X136506330Y-91505113D01*
X136450997Y-91547775D01*
X136381383Y-91553748D01*
X136319591Y-91521137D01*
X136288312Y-91471223D01*
X136284815Y-91460670D01*
X136284814Y-91460666D01*
X136192712Y-91311344D01*
X136068656Y-91187288D01*
X135919334Y-91095186D01*
X135752797Y-91040001D01*
X135752795Y-91040000D01*
X135650010Y-91029500D01*
X134349998Y-91029500D01*
X134349980Y-91029501D01*
X134262101Y-91038479D01*
X134193408Y-91025709D01*
X134142524Y-90977828D01*
X134125500Y-90915121D01*
X134125500Y-87083468D01*
X134125499Y-87083464D01*
X134099542Y-86952971D01*
X134099541Y-86952964D01*
X134050944Y-86835643D01*
X134049300Y-86831048D01*
X133974698Y-86719398D01*
X133974697Y-86719397D01*
X133974695Y-86719394D01*
X133880606Y-86625305D01*
X129270609Y-82015307D01*
X129270605Y-82015304D01*
X129159975Y-81941383D01*
X129159965Y-81941378D01*
X129037036Y-81890459D01*
X129037028Y-81890457D01*
X128906535Y-81864500D01*
X128906531Y-81864500D01*
X126605154Y-81864500D01*
X126538115Y-81844815D01*
X126492360Y-81792011D01*
X126487448Y-81779504D01*
X126475212Y-81742580D01*
X126434814Y-81620666D01*
X126342712Y-81471344D01*
X126218656Y-81347288D01*
X126069334Y-81255186D01*
X126069332Y-81255185D01*
X126063440Y-81251551D01*
X126016716Y-81199603D01*
X126005493Y-81130641D01*
X126033337Y-81066558D01*
X126040856Y-81058330D01*
X126179728Y-80919458D01*
X126304620Y-80747557D01*
X126401095Y-80558217D01*
X126466757Y-80356129D01*
X126466757Y-80356126D01*
X126477231Y-80290000D01*
X125433012Y-80290000D01*
X125465925Y-80232993D01*
X125500000Y-80105826D01*
X125500000Y-79974174D01*
X125465925Y-79847007D01*
X125433012Y-79790000D01*
X126477231Y-79790000D01*
X126466757Y-79723873D01*
X126466757Y-79723870D01*
X126401095Y-79521782D01*
X126304620Y-79332442D01*
X126179727Y-79160540D01*
X126179723Y-79160535D01*
X126029464Y-79010276D01*
X126029459Y-79010272D01*
X125857557Y-78885379D01*
X125668217Y-78788904D01*
X125466129Y-78723242D01*
X125256246Y-78690000D01*
X125250000Y-78690000D01*
X125250000Y-79606988D01*
X125192993Y-79574075D01*
X125065826Y-79540000D01*
X124934174Y-79540000D01*
X124807007Y-79574075D01*
X124750000Y-79606988D01*
X124750000Y-78690000D01*
X124743754Y-78690000D01*
X124533872Y-78723242D01*
X124533869Y-78723242D01*
X124331782Y-78788904D01*
X124142442Y-78885379D01*
X123970540Y-79010272D01*
X123970535Y-79010276D01*
X123820276Y-79160535D01*
X123820272Y-79160540D01*
X123695379Y-79332442D01*
X123598904Y-79521782D01*
X123533242Y-79723870D01*
X123533242Y-79723873D01*
X123522769Y-79790000D01*
X124566988Y-79790000D01*
X124534075Y-79847007D01*
X124500000Y-79974174D01*
X124500000Y-80105826D01*
X124534075Y-80232993D01*
X124566988Y-80290000D01*
X123522769Y-80290000D01*
X123533242Y-80356126D01*
X123533242Y-80356129D01*
X123598904Y-80558217D01*
X123695379Y-80747557D01*
X123820272Y-80919459D01*
X123820276Y-80919464D01*
X123959143Y-81058331D01*
X123992628Y-81119654D01*
X123987644Y-81189346D01*
X123945772Y-81245279D01*
X123936559Y-81251551D01*
X123781342Y-81347289D01*
X123657289Y-81471342D01*
X123565187Y-81620663D01*
X123565186Y-81620666D01*
X123510001Y-81787203D01*
X123510001Y-81787204D01*
X123510000Y-81787204D01*
X123499500Y-81889983D01*
X116500498Y-81889983D01*
X116489999Y-81787203D01*
X116434814Y-81620666D01*
X116342712Y-81471344D01*
X116218656Y-81347288D01*
X116069334Y-81255186D01*
X116069332Y-81255185D01*
X116063440Y-81251551D01*
X116016716Y-81199603D01*
X116005493Y-81130641D01*
X116033337Y-81066558D01*
X116040856Y-81058330D01*
X116179728Y-80919458D01*
X116304620Y-80747557D01*
X116401095Y-80558217D01*
X116466757Y-80356129D01*
X116466757Y-80356126D01*
X116477231Y-80290000D01*
X115433012Y-80290000D01*
X115465925Y-80232993D01*
X115500000Y-80105826D01*
X115500000Y-79974174D01*
X115465925Y-79847007D01*
X115433012Y-79790000D01*
X116477231Y-79790000D01*
X116466757Y-79723873D01*
X116466757Y-79723870D01*
X116401095Y-79521782D01*
X116304620Y-79332442D01*
X116179727Y-79160540D01*
X116179723Y-79160535D01*
X116029464Y-79010276D01*
X116029459Y-79010272D01*
X115857557Y-78885379D01*
X115668217Y-78788904D01*
X115466129Y-78723242D01*
X115256246Y-78690000D01*
X115250000Y-78690000D01*
X115250000Y-79606988D01*
X115192993Y-79574075D01*
X115065826Y-79540000D01*
X114934174Y-79540000D01*
X114807007Y-79574075D01*
X114750000Y-79606988D01*
X114750000Y-78690000D01*
X114743754Y-78690000D01*
X114533872Y-78723242D01*
X114533869Y-78723242D01*
X114331782Y-78788904D01*
X114142442Y-78885379D01*
X113970540Y-79010272D01*
X113970535Y-79010276D01*
X113820276Y-79160535D01*
X113820272Y-79160540D01*
X113695379Y-79332442D01*
X113598904Y-79521782D01*
X113533242Y-79723870D01*
X113533242Y-79723873D01*
X113522769Y-79790000D01*
X114566988Y-79790000D01*
X114534075Y-79847007D01*
X114500000Y-79974174D01*
X114500000Y-80105826D01*
X114534075Y-80232993D01*
X114566988Y-80290000D01*
X113522769Y-80290000D01*
X113533242Y-80356126D01*
X113533242Y-80356129D01*
X113598904Y-80558217D01*
X113695379Y-80747557D01*
X113820272Y-80919459D01*
X113820276Y-80919464D01*
X113959143Y-81058331D01*
X113992628Y-81119654D01*
X113987644Y-81189346D01*
X113945772Y-81245279D01*
X113936559Y-81251551D01*
X113781342Y-81347289D01*
X113657289Y-81471342D01*
X113565187Y-81620663D01*
X113565186Y-81620666D01*
X113510001Y-81787203D01*
X113510001Y-81787204D01*
X113510000Y-81787204D01*
X113499500Y-81889983D01*
X106500498Y-81889983D01*
X106489999Y-81787203D01*
X106434814Y-81620666D01*
X106342712Y-81471344D01*
X106218656Y-81347288D01*
X106069334Y-81255186D01*
X106069332Y-81255185D01*
X106063440Y-81251551D01*
X106016716Y-81199603D01*
X106005493Y-81130641D01*
X106033337Y-81066558D01*
X106040856Y-81058330D01*
X106179728Y-80919458D01*
X106304620Y-80747557D01*
X106401095Y-80558217D01*
X106466757Y-80356129D01*
X106466757Y-80356126D01*
X106477231Y-80290000D01*
X105433012Y-80290000D01*
X105465925Y-80232993D01*
X105500000Y-80105826D01*
X105500000Y-79974174D01*
X105465925Y-79847007D01*
X105433012Y-79790000D01*
X106477231Y-79790000D01*
X106466757Y-79723873D01*
X106466757Y-79723870D01*
X106401095Y-79521782D01*
X106304620Y-79332442D01*
X106179727Y-79160540D01*
X106179723Y-79160535D01*
X106029464Y-79010276D01*
X106029459Y-79010272D01*
X105857557Y-78885379D01*
X105668217Y-78788904D01*
X105466129Y-78723242D01*
X105256246Y-78690000D01*
X105250000Y-78690000D01*
X105250000Y-79606988D01*
X105192993Y-79574075D01*
X105065826Y-79540000D01*
X104934174Y-79540000D01*
X104807007Y-79574075D01*
X104750000Y-79606988D01*
X104750000Y-78690000D01*
X104743754Y-78690000D01*
X104533872Y-78723242D01*
X104533869Y-78723242D01*
X104331782Y-78788904D01*
X104142442Y-78885379D01*
X103970540Y-79010272D01*
X103970535Y-79010276D01*
X103820276Y-79160535D01*
X103820272Y-79160540D01*
X103695379Y-79332442D01*
X103598904Y-79521782D01*
X103533242Y-79723870D01*
X103533242Y-79723873D01*
X103522769Y-79790000D01*
X104566988Y-79790000D01*
X104534075Y-79847007D01*
X104500000Y-79974174D01*
X104500000Y-80105826D01*
X104534075Y-80232993D01*
X104566988Y-80290000D01*
X103522769Y-80290000D01*
X103533242Y-80356126D01*
X103533242Y-80356129D01*
X103598904Y-80558217D01*
X103695379Y-80747557D01*
X103820272Y-80919459D01*
X103820276Y-80919464D01*
X103959143Y-81058331D01*
X103992628Y-81119654D01*
X103987644Y-81189346D01*
X103945772Y-81245279D01*
X103936559Y-81251551D01*
X103781342Y-81347289D01*
X103657289Y-81471342D01*
X103565187Y-81620663D01*
X103565186Y-81620666D01*
X103510001Y-81787203D01*
X103510001Y-81787204D01*
X103510000Y-81787204D01*
X103499500Y-81889983D01*
X100500500Y-81889983D01*
X100500500Y-76624500D01*
X100520185Y-76557461D01*
X100572989Y-76511706D01*
X100624500Y-76500500D01*
X141375500Y-76500500D01*
X141442539Y-76520185D01*
G37*
%TD.AperFunction*%
%TD*%
M02*
