%TF.GenerationSoftware,KiCad,Pcbnew,9.0.2*%
%TF.CreationDate,2026-01-15T20:54:27-07:00*%
%TF.ProjectId,Button Mainboard Interface,42757474-6f6e-4204-9d61-696e626f6172,rev?*%
%TF.SameCoordinates,Original*%
%TF.FileFunction,Copper,L1,Top*%
%TF.FilePolarity,Positive*%
%FSLAX46Y46*%
G04 Gerber Fmt 4.6, Leading zero omitted, Abs format (unit mm)*
G04 Created by KiCad (PCBNEW 9.0.2) date 2026-01-15 20:54:27*
%MOMM*%
%LPD*%
G01*
G04 APERTURE LIST*
G04 Aperture macros list*
%AMRoundRect*
0 Rectangle with rounded corners*
0 $1 Rounding radius*
0 $2 $3 $4 $5 $6 $7 $8 $9 X,Y pos of 4 corners*
0 Add a 4 corners polygon primitive as box body*
4,1,4,$2,$3,$4,$5,$6,$7,$8,$9,$2,$3,0*
0 Add four circle primitives for the rounded corners*
1,1,$1+$1,$2,$3*
1,1,$1+$1,$4,$5*
1,1,$1+$1,$6,$7*
1,1,$1+$1,$8,$9*
0 Add four rect primitives between the rounded corners*
20,1,$1+$1,$2,$3,$4,$5,0*
20,1,$1+$1,$4,$5,$6,$7,0*
20,1,$1+$1,$6,$7,$8,$9,0*
20,1,$1+$1,$8,$9,$2,$3,0*%
G04 Aperture macros list end*
%TA.AperFunction,ComponentPad*%
%ADD10RoundRect,0.250000X0.750000X-0.600000X0.750000X0.600000X-0.750000X0.600000X-0.750000X-0.600000X0*%
%TD*%
%TA.AperFunction,ComponentPad*%
%ADD11O,2.000000X1.700000*%
%TD*%
%TA.AperFunction,SMDPad,CuDef*%
%ADD12RoundRect,0.250000X-0.350000X-0.450000X0.350000X-0.450000X0.350000X0.450000X-0.350000X0.450000X0*%
%TD*%
%TA.AperFunction,ComponentPad*%
%ADD13RoundRect,0.250000X-0.600000X-0.600000X0.600000X-0.600000X0.600000X0.600000X-0.600000X0.600000X0*%
%TD*%
%TA.AperFunction,ComponentPad*%
%ADD14C,1.700000*%
%TD*%
%TA.AperFunction,ViaPad*%
%ADD15C,1.000000*%
%TD*%
%TA.AperFunction,Conductor*%
%ADD16C,0.350000*%
%TD*%
%TA.AperFunction,Conductor*%
%ADD17C,0.200000*%
%TD*%
%TA.AperFunction,Conductor*%
%ADD18C,1.000000*%
%TD*%
G04 APERTURE END LIST*
D10*
%TO.P,J3,1,Pin_1*%
%TO.N,/BTN_3*%
X125000000Y-82540000D03*
D11*
%TO.P,J3,2,Pin_2*%
%TO.N,GND*%
X125000000Y-80040000D03*
%TD*%
D12*
%TO.P,R1,1*%
%TO.N,VCC*%
X103000000Y-88000000D03*
%TO.P,R1,2*%
%TO.N,/BTN_1*%
X105000000Y-88000000D03*
%TD*%
%TO.P,R9,1*%
%TO.N,VCC*%
X123000000Y-113260000D03*
%TO.P,R9,2*%
%TO.N,/BTN_9*%
X125000000Y-113260000D03*
%TD*%
%TO.P,R2,1*%
%TO.N,VCC*%
X113000000Y-88000000D03*
%TO.P,R2,2*%
%TO.N,/BTN_2*%
X115000000Y-88000000D03*
%TD*%
%TO.P,R4,1*%
%TO.N,VCC*%
X103000000Y-100720000D03*
%TO.P,R4,2*%
%TO.N,/BTN_4*%
X105000000Y-100720000D03*
%TD*%
D10*
%TO.P,J4,1,Pin_1*%
%TO.N,/BTN_4*%
X105000000Y-95080000D03*
D11*
%TO.P,J4,2,Pin_2*%
%TO.N,GND*%
X105000000Y-92580000D03*
%TD*%
D10*
%TO.P,J5,1,Pin_1*%
%TO.N,/BTN_5*%
X115000000Y-95080000D03*
D11*
%TO.P,J5,2,Pin_2*%
%TO.N,GND*%
X115000000Y-92580000D03*
%TD*%
D10*
%TO.P,J12,1,Pin_1*%
%TO.N,/BTN_12*%
X125000000Y-120160000D03*
D11*
%TO.P,J12,2,Pin_2*%
%TO.N,GND*%
X125000000Y-117660000D03*
%TD*%
D10*
%TO.P,J7,1,Pin_1*%
%TO.N,/BTN_7*%
X105000000Y-107620000D03*
D11*
%TO.P,J7,2,Pin_2*%
%TO.N,GND*%
X105000000Y-105120000D03*
%TD*%
D10*
%TO.P,J1,1,Pin_1*%
%TO.N,/BTN_1*%
X105000000Y-82540000D03*
D11*
%TO.P,J1,2,Pin_2*%
%TO.N,GND*%
X105000000Y-80040000D03*
%TD*%
D12*
%TO.P,R12,1*%
%TO.N,VCC*%
X123050000Y-124500000D03*
%TO.P,R12,2*%
%TO.N,/BTN_12*%
X125050000Y-124500000D03*
%TD*%
%TO.P,R6,1*%
%TO.N,VCC*%
X123000000Y-100550000D03*
%TO.P,R6,2*%
%TO.N,/BTN_6*%
X125000000Y-100550000D03*
%TD*%
D13*
%TO.P,J100,1,Pin_1*%
%TO.N,/BTN_1*%
X135000000Y-92380000D03*
D14*
%TO.P,J100,2,Pin_2*%
%TO.N,/BTN_2*%
X137540000Y-92380000D03*
%TO.P,J100,3,Pin_3*%
%TO.N,/BTN_3*%
X135000000Y-94920000D03*
%TO.P,J100,4,Pin_4*%
%TO.N,/BTN_4*%
X137540000Y-94920000D03*
%TO.P,J100,5,Pin_5*%
%TO.N,/BTN_5*%
X135000000Y-97460000D03*
%TO.P,J100,6,Pin_6*%
%TO.N,/BTN_6*%
X137540000Y-97460000D03*
%TO.P,J100,7,Pin_7*%
%TO.N,VCC*%
X135000000Y-100000000D03*
%TO.P,J100,8,Pin_8*%
%TO.N,GND*%
X137540000Y-100000000D03*
%TO.P,J100,9,Pin_9*%
%TO.N,/BTN_7*%
X135000000Y-102540000D03*
%TO.P,J100,10,Pin_10*%
%TO.N,/BTN_8*%
X137540000Y-102540000D03*
%TO.P,J100,11,Pin_11*%
%TO.N,/BTN_9*%
X135000000Y-105080000D03*
%TO.P,J100,12,Pin_12*%
%TO.N,/BTN_10*%
X137540000Y-105080000D03*
%TO.P,J100,13,Pin_13*%
%TO.N,/BTN_11*%
X135000000Y-107620000D03*
%TO.P,J100,14,Pin_14*%
%TO.N,/BTN_12*%
X137540000Y-107620000D03*
%TD*%
D12*
%TO.P,R7,1*%
%TO.N,VCC*%
X103000000Y-113260000D03*
%TO.P,R7,2*%
%TO.N,/BTN_7*%
X105000000Y-113260000D03*
%TD*%
%TO.P,R8,1*%
%TO.N,VCC*%
X113000000Y-113260000D03*
%TO.P,R8,2*%
%TO.N,/BTN_8*%
X115000000Y-113260000D03*
%TD*%
D10*
%TO.P,J11,1,Pin_1*%
%TO.N,/BTN_11*%
X115000000Y-120160000D03*
D11*
%TO.P,J11,2,Pin_2*%
%TO.N,GND*%
X115000000Y-117660000D03*
%TD*%
D10*
%TO.P,J9,1,Pin_1*%
%TO.N,/BTN_9*%
X125000000Y-107620000D03*
D11*
%TO.P,J9,2,Pin_2*%
%TO.N,GND*%
X125000000Y-105120000D03*
%TD*%
D10*
%TO.P,J6,1,Pin_1*%
%TO.N,/BTN_6*%
X125000000Y-95080000D03*
D11*
%TO.P,J6,2,Pin_2*%
%TO.N,GND*%
X125000000Y-92580000D03*
%TD*%
D10*
%TO.P,J8,1,Pin_1*%
%TO.N,/BTN_8*%
X115000000Y-107620000D03*
D11*
%TO.P,J8,2,Pin_2*%
%TO.N,GND*%
X115000000Y-105120000D03*
%TD*%
D10*
%TO.P,J2,1,Pin_1*%
%TO.N,/BTN_2*%
X115000000Y-82540000D03*
D11*
%TO.P,J2,2,Pin_2*%
%TO.N,GND*%
X115000000Y-80040000D03*
%TD*%
D12*
%TO.P,R3,1*%
%TO.N,VCC*%
X123000000Y-88000000D03*
%TO.P,R3,2*%
%TO.N,/BTN_3*%
X125000000Y-88000000D03*
%TD*%
%TO.P,R11,1*%
%TO.N,VCC*%
X113050000Y-124500000D03*
%TO.P,R11,2*%
%TO.N,/BTN_11*%
X115050000Y-124500000D03*
%TD*%
%TO.P,R5,1*%
%TO.N,VCC*%
X113000000Y-100650000D03*
%TO.P,R5,2*%
%TO.N,/BTN_5*%
X115000000Y-100650000D03*
%TD*%
D10*
%TO.P,J10,1,Pin_1*%
%TO.N,/BTN_10*%
X105000000Y-120160000D03*
D11*
%TO.P,J10,2,Pin_2*%
%TO.N,GND*%
X105000000Y-117660000D03*
%TD*%
D12*
%TO.P,R10,1*%
%TO.N,VCC*%
X103050000Y-124500000D03*
%TO.P,R10,2*%
%TO.N,/BTN_10*%
X105050000Y-124500000D03*
%TD*%
D15*
%TO.N,VCC*%
X109550000Y-116500000D03*
X116200000Y-122400000D03*
X113800000Y-122400000D03*
X110200000Y-119200000D03*
%TD*%
D16*
%TO.N,/BTN_1*%
X105000000Y-88000000D02*
X105800000Y-88000000D01*
X107600000Y-89800000D02*
X128700000Y-89800000D01*
X131280000Y-92380000D02*
X135000000Y-92380000D01*
X128700000Y-89800000D02*
X131280000Y-92380000D01*
X105000000Y-82540000D02*
X105000000Y-88000000D01*
X105800000Y-88000000D02*
X107600000Y-89800000D01*
%TO.N,/BTN_2*%
X117200000Y-89200000D02*
X134360000Y-89200000D01*
X116000000Y-88000000D02*
X117200000Y-89200000D01*
X115000000Y-82540000D02*
X115000000Y-88000000D01*
X115000000Y-88000000D02*
X116000000Y-88000000D01*
X134360000Y-89200000D02*
X137540000Y-92380000D01*
%TO.N,/BTN_3*%
X125000000Y-82540000D02*
X125000000Y-88000000D01*
%TO.N,/BTN_4*%
X105000000Y-100720000D02*
X106630000Y-100720000D01*
X136270000Y-93650000D02*
X137540000Y-94920000D01*
X112600000Y-90500000D02*
X127800000Y-90500000D01*
X127800000Y-90500000D02*
X130950000Y-93650000D01*
X105000000Y-95080000D02*
X105000000Y-100720000D01*
X130950000Y-93650000D02*
X136270000Y-93650000D01*
X110050000Y-97300000D02*
X110050000Y-93050000D01*
X110050000Y-93050000D02*
X112600000Y-90500000D01*
X106630000Y-100720000D02*
X110050000Y-97300000D01*
%TO.N,/BTN_5*%
X115000000Y-95080000D02*
X115000000Y-100650000D01*
X127000000Y-91100000D02*
X133360000Y-97460000D01*
X122405717Y-91100000D02*
X127000000Y-91100000D01*
X115000000Y-100650000D02*
X116500000Y-100650000D01*
X133360000Y-97460000D02*
X135000000Y-97460000D01*
X116500000Y-100650000D02*
X120350000Y-96800000D01*
X120350000Y-96800000D02*
X120350000Y-93155717D01*
X120350000Y-93155717D02*
X122405717Y-91100000D01*
%TO.N,/BTN_6*%
X125000000Y-95080000D02*
X125000000Y-100550000D01*
X127550000Y-100550000D02*
X129350000Y-98750000D01*
X136250000Y-98750000D02*
X137540000Y-97460000D01*
X125000000Y-100550000D02*
X127550000Y-100550000D01*
X129350000Y-98750000D02*
X136250000Y-98750000D01*
%TO.N,/BTN_7*%
X134490000Y-103050000D02*
X135000000Y-102540000D01*
X105000000Y-107620000D02*
X105000000Y-113260000D01*
X111580000Y-103050000D02*
X134490000Y-103050000D01*
X105000000Y-113260000D02*
X106690000Y-113260000D01*
X107750000Y-106880000D02*
X111580000Y-103050000D01*
X107750000Y-112200000D02*
X107750000Y-106880000D01*
X106690000Y-113260000D02*
X107750000Y-112200000D01*
%TO.N,/BTN_8*%
X136230000Y-103850000D02*
X137540000Y-102540000D01*
X121900000Y-103850000D02*
X136230000Y-103850000D01*
X116640000Y-113260000D02*
X121100000Y-108800000D01*
X121100000Y-108800000D02*
X121100000Y-104650000D01*
X115000000Y-107620000D02*
X115000000Y-113260000D01*
X115000000Y-113260000D02*
X116640000Y-113260000D01*
X121100000Y-104650000D02*
X121900000Y-103850000D01*
%TO.N,/BTN_9*%
X129320000Y-105080000D02*
X135000000Y-105080000D01*
X125000000Y-107620000D02*
X125000000Y-113260000D01*
X126780000Y-107620000D02*
X129320000Y-105080000D01*
X125000000Y-107620000D02*
X126780000Y-107620000D01*
%TO.N,/BTN_10*%
X105000000Y-120160000D02*
X105000000Y-124450000D01*
X125400000Y-115600000D02*
X112150000Y-115600000D01*
X128650000Y-112350000D02*
X125400000Y-115600000D01*
X131450000Y-106350000D02*
X128650000Y-109150000D01*
X136270000Y-106350000D02*
X131450000Y-106350000D01*
X107590000Y-120160000D02*
X105000000Y-120160000D01*
X128650000Y-109150000D02*
X128650000Y-112350000D01*
X112150000Y-115600000D02*
X107590000Y-120160000D01*
X105000000Y-124450000D02*
X105050000Y-124500000D01*
X137540000Y-105080000D02*
X136270000Y-106350000D01*
%TO.N,/BTN_11*%
X126370000Y-116250000D02*
X121750000Y-116250000D01*
X115000000Y-124450000D02*
X115050000Y-124500000D01*
X117840000Y-120160000D02*
X115000000Y-120160000D01*
X115000000Y-120160000D02*
X115000000Y-124450000D01*
X135000000Y-107620000D02*
X126370000Y-116250000D01*
X121750000Y-116250000D02*
X117840000Y-120160000D01*
%TO.N,/BTN_12*%
X137540000Y-109160000D02*
X126540000Y-120160000D01*
X126540000Y-120160000D02*
X125000000Y-120160000D01*
X125000000Y-124450000D02*
X125050000Y-124500000D01*
X137540000Y-107620000D02*
X137540000Y-109160000D01*
X125000000Y-120160000D02*
X125000000Y-124450000D01*
D17*
%TO.N,VCC*%
X102050000Y-125550000D02*
X102059000Y-125559000D01*
D18*
X135000000Y-100000000D02*
X133000000Y-100000000D01*
D17*
X103050000Y-124500000D02*
X103050000Y-125559000D01*
X102059000Y-125559000D02*
X103050000Y-125559000D01*
X103050000Y-125559000D02*
X130000000Y-125559000D01*
%TD*%
%TA.AperFunction,Conductor*%
%TO.N,VCC*%
G36*
X141442539Y-76520185D02*
G01*
X141488294Y-76572989D01*
X141499500Y-76624500D01*
X141499500Y-125535500D01*
X141479815Y-125602539D01*
X141427011Y-125648294D01*
X141375500Y-125659500D01*
X126051230Y-125659500D01*
X125984191Y-125639815D01*
X125938436Y-125587011D01*
X125928492Y-125517853D01*
X125957517Y-125454297D01*
X125963549Y-125447819D01*
X125992712Y-125418656D01*
X126084814Y-125269334D01*
X126139999Y-125102797D01*
X126150500Y-125000009D01*
X126150499Y-123999992D01*
X126139999Y-123897203D01*
X126084814Y-123730666D01*
X125992712Y-123581344D01*
X125868656Y-123457288D01*
X125734402Y-123374480D01*
X125687679Y-123322533D01*
X125675500Y-123268942D01*
X125675500Y-121634499D01*
X125695185Y-121567460D01*
X125747989Y-121521705D01*
X125796879Y-121511068D01*
X125796859Y-121510659D01*
X125799346Y-121510532D01*
X125799500Y-121510499D01*
X125800002Y-121510499D01*
X125800008Y-121510499D01*
X125902797Y-121499999D01*
X126069334Y-121444814D01*
X126218656Y-121352712D01*
X126342712Y-121228656D01*
X126434814Y-121079334D01*
X126487448Y-120920493D01*
X126527219Y-120863051D01*
X126591735Y-120836228D01*
X126605153Y-120835500D01*
X126606532Y-120835500D01*
X126606533Y-120835499D01*
X126737036Y-120809541D01*
X126859969Y-120758620D01*
X126970606Y-120684695D01*
X138064695Y-109590606D01*
X138071377Y-109580606D01*
X138138620Y-109479969D01*
X138189540Y-109357036D01*
X138215500Y-109226531D01*
X138215500Y-108861710D01*
X138235185Y-108794671D01*
X138266612Y-108761394D01*
X138419792Y-108650104D01*
X138570104Y-108499792D01*
X138570106Y-108499788D01*
X138570109Y-108499786D01*
X138695048Y-108327820D01*
X138695047Y-108327820D01*
X138695051Y-108327816D01*
X138791557Y-108138412D01*
X138857246Y-107936243D01*
X138890500Y-107726287D01*
X138890500Y-107513713D01*
X138857246Y-107303757D01*
X138791557Y-107101588D01*
X138695051Y-106912184D01*
X138695049Y-106912181D01*
X138695048Y-106912179D01*
X138570109Y-106740213D01*
X138419786Y-106589890D01*
X138247820Y-106464951D01*
X138247115Y-106464591D01*
X138239054Y-106460485D01*
X138188259Y-106412512D01*
X138171463Y-106344692D01*
X138193999Y-106278556D01*
X138239054Y-106239515D01*
X138247816Y-106235051D01*
X138269789Y-106219086D01*
X138419786Y-106110109D01*
X138419788Y-106110106D01*
X138419792Y-106110104D01*
X138570104Y-105959792D01*
X138570106Y-105959788D01*
X138570109Y-105959786D01*
X138695048Y-105787820D01*
X138695047Y-105787820D01*
X138695051Y-105787816D01*
X138791557Y-105598412D01*
X138857246Y-105396243D01*
X138890500Y-105186287D01*
X138890500Y-104973713D01*
X138857246Y-104763757D01*
X138791557Y-104561588D01*
X138695051Y-104372184D01*
X138695049Y-104372181D01*
X138695048Y-104372179D01*
X138570109Y-104200213D01*
X138419786Y-104049890D01*
X138247820Y-103924951D01*
X138247115Y-103924591D01*
X138239054Y-103920485D01*
X138188259Y-103872512D01*
X138171463Y-103804692D01*
X138193999Y-103738556D01*
X138239054Y-103699515D01*
X138247816Y-103695051D01*
X138269789Y-103679086D01*
X138419786Y-103570109D01*
X138419788Y-103570106D01*
X138419792Y-103570104D01*
X138570104Y-103419792D01*
X138570106Y-103419788D01*
X138570109Y-103419786D01*
X138695048Y-103247820D01*
X138695047Y-103247820D01*
X138695051Y-103247816D01*
X138791557Y-103058412D01*
X138857246Y-102856243D01*
X138890500Y-102646287D01*
X138890500Y-102433713D01*
X138857246Y-102223757D01*
X138791557Y-102021588D01*
X138695051Y-101832184D01*
X138695049Y-101832181D01*
X138695048Y-101832179D01*
X138570109Y-101660213D01*
X138419786Y-101509890D01*
X138247820Y-101384951D01*
X138247115Y-101384591D01*
X138239054Y-101380485D01*
X138188259Y-101332512D01*
X138171463Y-101264692D01*
X138193999Y-101198556D01*
X138239054Y-101159515D01*
X138247816Y-101155051D01*
X138302572Y-101115269D01*
X138419786Y-101030109D01*
X138419788Y-101030106D01*
X138419792Y-101030104D01*
X138570104Y-100879792D01*
X138570106Y-100879788D01*
X138570109Y-100879786D01*
X138695048Y-100707820D01*
X138695047Y-100707820D01*
X138695051Y-100707816D01*
X138791557Y-100518412D01*
X138857246Y-100316243D01*
X138890500Y-100106287D01*
X138890500Y-99893713D01*
X138857246Y-99683757D01*
X138791557Y-99481588D01*
X138695051Y-99292184D01*
X138695049Y-99292181D01*
X138695048Y-99292179D01*
X138570109Y-99120213D01*
X138419786Y-98969890D01*
X138247820Y-98844951D01*
X138247115Y-98844591D01*
X138239054Y-98840485D01*
X138188259Y-98792512D01*
X138171463Y-98724692D01*
X138193999Y-98658556D01*
X138239054Y-98619515D01*
X138247816Y-98615051D01*
X138269789Y-98599086D01*
X138419786Y-98490109D01*
X138419788Y-98490106D01*
X138419792Y-98490104D01*
X138570104Y-98339792D01*
X138570106Y-98339788D01*
X138570109Y-98339786D01*
X138695048Y-98167820D01*
X138695047Y-98167820D01*
X138695051Y-98167816D01*
X138791557Y-97978412D01*
X138857246Y-97776243D01*
X138890500Y-97566287D01*
X138890500Y-97353713D01*
X138857246Y-97143757D01*
X138791557Y-96941588D01*
X138695051Y-96752184D01*
X138695049Y-96752181D01*
X138695048Y-96752179D01*
X138570109Y-96580213D01*
X138419786Y-96429890D01*
X138247820Y-96304951D01*
X138247115Y-96304591D01*
X138239054Y-96300485D01*
X138188259Y-96252512D01*
X138171463Y-96184692D01*
X138193999Y-96118556D01*
X138239054Y-96079515D01*
X138247816Y-96075051D01*
X138269789Y-96059086D01*
X138419786Y-95950109D01*
X138419788Y-95950106D01*
X138419792Y-95950104D01*
X138570104Y-95799792D01*
X138570106Y-95799788D01*
X138570109Y-95799786D01*
X138695048Y-95627820D01*
X138695047Y-95627820D01*
X138695051Y-95627816D01*
X138791557Y-95438412D01*
X138857246Y-95236243D01*
X138890500Y-95026287D01*
X138890500Y-94813713D01*
X138857246Y-94603757D01*
X138791557Y-94401588D01*
X138695051Y-94212184D01*
X138695049Y-94212181D01*
X138695048Y-94212179D01*
X138570109Y-94040213D01*
X138419786Y-93889890D01*
X138247820Y-93764951D01*
X138247115Y-93764591D01*
X138239054Y-93760485D01*
X138188259Y-93712512D01*
X138171463Y-93644692D01*
X138193999Y-93578556D01*
X138239054Y-93539515D01*
X138247816Y-93535051D01*
X138351402Y-93459792D01*
X138419786Y-93410109D01*
X138419788Y-93410106D01*
X138419792Y-93410104D01*
X138570104Y-93259792D01*
X138570106Y-93259788D01*
X138570109Y-93259786D01*
X138695048Y-93087820D01*
X138695047Y-93087820D01*
X138695051Y-93087816D01*
X138791557Y-92898412D01*
X138857246Y-92696243D01*
X138890500Y-92486287D01*
X138890500Y-92273713D01*
X138857246Y-92063757D01*
X138791557Y-91861588D01*
X138695051Y-91672184D01*
X138695049Y-91672181D01*
X138695048Y-91672179D01*
X138570109Y-91500213D01*
X138419786Y-91349890D01*
X138247820Y-91224951D01*
X138058414Y-91128444D01*
X138058413Y-91128443D01*
X138058412Y-91128443D01*
X137856243Y-91062754D01*
X137856241Y-91062753D01*
X137856240Y-91062753D01*
X137694957Y-91037208D01*
X137646287Y-91029500D01*
X137433713Y-91029500D01*
X137246707Y-91059119D01*
X137177413Y-91050164D01*
X137139628Y-91024327D01*
X134790609Y-88675307D01*
X134790605Y-88675304D01*
X134679975Y-88601383D01*
X134679965Y-88601378D01*
X134557036Y-88550459D01*
X134557028Y-88550457D01*
X134426535Y-88524500D01*
X134426531Y-88524500D01*
X126224500Y-88524500D01*
X126157461Y-88504815D01*
X126111706Y-88452011D01*
X126100500Y-88400500D01*
X126100499Y-87499998D01*
X126100498Y-87499980D01*
X126089999Y-87397203D01*
X126089998Y-87397200D01*
X126086835Y-87387655D01*
X126034814Y-87230666D01*
X125942712Y-87081344D01*
X125818656Y-86957288D01*
X125818652Y-86957285D01*
X125734403Y-86905319D01*
X125687678Y-86853371D01*
X125675500Y-86799781D01*
X125675500Y-84014499D01*
X125695185Y-83947460D01*
X125747989Y-83901705D01*
X125796879Y-83891068D01*
X125796859Y-83890659D01*
X125799346Y-83890532D01*
X125799500Y-83890499D01*
X125800002Y-83890499D01*
X125800008Y-83890499D01*
X125902797Y-83879999D01*
X126069334Y-83824814D01*
X126218656Y-83732712D01*
X126342712Y-83608656D01*
X126434814Y-83459334D01*
X126489999Y-83292797D01*
X126500500Y-83190009D01*
X126500499Y-81889992D01*
X126489999Y-81787203D01*
X126434814Y-81620666D01*
X126342712Y-81471344D01*
X126218656Y-81347288D01*
X126069334Y-81255186D01*
X126069333Y-81255185D01*
X126063878Y-81251821D01*
X126017154Y-81199873D01*
X126005931Y-81130910D01*
X126033775Y-81066828D01*
X126041272Y-81058623D01*
X126180104Y-80919792D01*
X126305051Y-80747816D01*
X126401557Y-80558412D01*
X126467246Y-80356243D01*
X126500500Y-80146287D01*
X126500500Y-79933713D01*
X126467246Y-79723757D01*
X126401557Y-79521588D01*
X126305051Y-79332184D01*
X126305049Y-79332181D01*
X126305048Y-79332179D01*
X126180109Y-79160213D01*
X126029786Y-79009890D01*
X125857820Y-78884951D01*
X125668414Y-78788444D01*
X125668413Y-78788443D01*
X125668412Y-78788443D01*
X125466243Y-78722754D01*
X125466241Y-78722753D01*
X125466240Y-78722753D01*
X125304957Y-78697208D01*
X125256287Y-78689500D01*
X124743713Y-78689500D01*
X124695042Y-78697208D01*
X124533760Y-78722753D01*
X124331585Y-78788444D01*
X124142179Y-78884951D01*
X123970213Y-79009890D01*
X123819890Y-79160213D01*
X123694951Y-79332179D01*
X123598444Y-79521585D01*
X123532753Y-79723760D01*
X123499500Y-79933713D01*
X123499500Y-80146286D01*
X123532753Y-80356239D01*
X123598444Y-80558414D01*
X123694951Y-80747820D01*
X123819890Y-80919786D01*
X123958705Y-81058601D01*
X123992190Y-81119924D01*
X123987206Y-81189616D01*
X123945334Y-81245549D01*
X123936121Y-81251821D01*
X123781342Y-81347289D01*
X123657289Y-81471342D01*
X123565187Y-81620663D01*
X123565186Y-81620666D01*
X123510001Y-81787203D01*
X123510001Y-81787204D01*
X123510000Y-81787204D01*
X123499500Y-81889983D01*
X123499500Y-83190001D01*
X123499501Y-83190018D01*
X123510000Y-83292796D01*
X123510001Y-83292799D01*
X123565185Y-83459331D01*
X123565186Y-83459334D01*
X123657288Y-83608656D01*
X123781344Y-83732712D01*
X123930666Y-83824814D01*
X124097203Y-83879999D01*
X124199991Y-83890500D01*
X124200469Y-83890499D01*
X124200568Y-83890529D01*
X124203139Y-83890660D01*
X124203130Y-83890820D01*
X124203132Y-83890821D01*
X124203129Y-83890844D01*
X124203107Y-83891273D01*
X124267511Y-83910165D01*
X124313280Y-83962957D01*
X124324500Y-84014499D01*
X124324500Y-86799781D01*
X124304815Y-86866820D01*
X124265597Y-86905319D01*
X124181347Y-86957285D01*
X124087327Y-87051305D01*
X124026003Y-87084789D01*
X123956312Y-87079805D01*
X123911965Y-87051304D01*
X123818345Y-86957684D01*
X123669124Y-86865643D01*
X123669119Y-86865641D01*
X123502697Y-86810494D01*
X123502690Y-86810493D01*
X123399986Y-86800000D01*
X123250000Y-86800000D01*
X123250000Y-87876000D01*
X123230315Y-87943039D01*
X123177511Y-87988794D01*
X123126000Y-88000000D01*
X123000000Y-88000000D01*
X123000000Y-88126000D01*
X122980315Y-88193039D01*
X122927511Y-88238794D01*
X122876000Y-88250000D01*
X121900001Y-88250000D01*
X121900001Y-88400500D01*
X121880316Y-88467539D01*
X121827512Y-88513294D01*
X121776001Y-88524500D01*
X117531163Y-88524500D01*
X117464124Y-88504815D01*
X117443482Y-88488181D01*
X116539847Y-87584545D01*
X116455315Y-87500013D01*
X121900000Y-87500013D01*
X121900000Y-87750000D01*
X122750000Y-87750000D01*
X122750000Y-86800000D01*
X122600027Y-86800000D01*
X122600012Y-86800001D01*
X122497302Y-86810494D01*
X122330880Y-86865641D01*
X122330875Y-86865643D01*
X122181654Y-86957684D01*
X122057684Y-87081654D01*
X121965643Y-87230875D01*
X121965641Y-87230880D01*
X121910494Y-87397302D01*
X121910493Y-87397309D01*
X121900000Y-87500013D01*
X116455315Y-87500013D01*
X116430609Y-87475307D01*
X116430605Y-87475304D01*
X116319975Y-87401383D01*
X116319965Y-87401378D01*
X116197036Y-87350459D01*
X116197028Y-87350457D01*
X116136670Y-87338451D01*
X116074759Y-87306066D01*
X116043155Y-87255838D01*
X116034883Y-87230875D01*
X116034814Y-87230666D01*
X115942712Y-87081344D01*
X115818656Y-86957288D01*
X115818652Y-86957285D01*
X115734403Y-86905319D01*
X115687678Y-86853371D01*
X115675500Y-86799781D01*
X115675500Y-84014499D01*
X115695185Y-83947460D01*
X115747989Y-83901705D01*
X115796879Y-83891068D01*
X115796859Y-83890659D01*
X115799346Y-83890532D01*
X115799500Y-83890499D01*
X115800002Y-83890499D01*
X115800008Y-83890499D01*
X115902797Y-83879999D01*
X116069334Y-83824814D01*
X116218656Y-83732712D01*
X116342712Y-83608656D01*
X116434814Y-83459334D01*
X116489999Y-83292797D01*
X116500500Y-83190009D01*
X116500499Y-81889992D01*
X116489999Y-81787203D01*
X116434814Y-81620666D01*
X116342712Y-81471344D01*
X116218656Y-81347288D01*
X116069334Y-81255186D01*
X116069333Y-81255185D01*
X116063878Y-81251821D01*
X116017154Y-81199873D01*
X116005931Y-81130910D01*
X116033775Y-81066828D01*
X116041272Y-81058623D01*
X116180104Y-80919792D01*
X116305051Y-80747816D01*
X116401557Y-80558412D01*
X116467246Y-80356243D01*
X116500500Y-80146287D01*
X116500500Y-79933713D01*
X116467246Y-79723757D01*
X116401557Y-79521588D01*
X116305051Y-79332184D01*
X116305049Y-79332181D01*
X116305048Y-79332179D01*
X116180109Y-79160213D01*
X116029786Y-79009890D01*
X115857820Y-78884951D01*
X115668414Y-78788444D01*
X115668413Y-78788443D01*
X115668412Y-78788443D01*
X115466243Y-78722754D01*
X115466241Y-78722753D01*
X115466240Y-78722753D01*
X115304957Y-78697208D01*
X115256287Y-78689500D01*
X114743713Y-78689500D01*
X114695042Y-78697208D01*
X114533760Y-78722753D01*
X114331585Y-78788444D01*
X114142179Y-78884951D01*
X113970213Y-79009890D01*
X113819890Y-79160213D01*
X113694951Y-79332179D01*
X113598444Y-79521585D01*
X113532753Y-79723760D01*
X113499500Y-79933713D01*
X113499500Y-80146286D01*
X113532753Y-80356239D01*
X113598444Y-80558414D01*
X113694951Y-80747820D01*
X113819890Y-80919786D01*
X113958705Y-81058601D01*
X113992190Y-81119924D01*
X113987206Y-81189616D01*
X113945334Y-81245549D01*
X113936121Y-81251821D01*
X113781342Y-81347289D01*
X113657289Y-81471342D01*
X113565187Y-81620663D01*
X113565186Y-81620666D01*
X113510001Y-81787203D01*
X113510001Y-81787204D01*
X113510000Y-81787204D01*
X113499500Y-81889983D01*
X113499500Y-83190001D01*
X113499501Y-83190018D01*
X113510000Y-83292796D01*
X113510001Y-83292799D01*
X113565185Y-83459331D01*
X113565186Y-83459334D01*
X113657288Y-83608656D01*
X113781344Y-83732712D01*
X113930666Y-83824814D01*
X114097203Y-83879999D01*
X114199991Y-83890500D01*
X114200469Y-83890499D01*
X114200568Y-83890529D01*
X114203139Y-83890660D01*
X114203130Y-83890820D01*
X114203132Y-83890821D01*
X114203129Y-83890844D01*
X114203107Y-83891273D01*
X114267511Y-83910165D01*
X114313280Y-83962957D01*
X114324500Y-84014499D01*
X114324500Y-86799781D01*
X114304815Y-86866820D01*
X114265597Y-86905319D01*
X114181347Y-86957285D01*
X114087327Y-87051305D01*
X114026003Y-87084789D01*
X113956312Y-87079805D01*
X113911965Y-87051304D01*
X113818345Y-86957684D01*
X113669124Y-86865643D01*
X113669119Y-86865641D01*
X113502697Y-86810494D01*
X113502690Y-86810493D01*
X113399986Y-86800000D01*
X113250000Y-86800000D01*
X113250000Y-87876000D01*
X113230315Y-87943039D01*
X113177511Y-87988794D01*
X113126000Y-88000000D01*
X113000000Y-88000000D01*
X113000000Y-88126000D01*
X112980315Y-88193039D01*
X112927511Y-88238794D01*
X112876000Y-88250000D01*
X111900001Y-88250000D01*
X111900001Y-88499986D01*
X111910494Y-88602697D01*
X111965641Y-88769119D01*
X111965643Y-88769124D01*
X112057684Y-88918345D01*
X112061832Y-88923591D01*
X112087971Y-88988387D01*
X112074929Y-89057029D01*
X112026847Y-89107723D01*
X111964564Y-89124500D01*
X107931163Y-89124500D01*
X107864124Y-89104815D01*
X107843482Y-89088181D01*
X106339847Y-87584545D01*
X106255315Y-87500013D01*
X111900000Y-87500013D01*
X111900000Y-87750000D01*
X112750000Y-87750000D01*
X112750000Y-86800000D01*
X112600027Y-86800000D01*
X112600012Y-86800001D01*
X112497302Y-86810494D01*
X112330880Y-86865641D01*
X112330875Y-86865643D01*
X112181654Y-86957684D01*
X112057684Y-87081654D01*
X111965643Y-87230875D01*
X111965641Y-87230880D01*
X111910494Y-87397302D01*
X111910493Y-87397309D01*
X111900000Y-87500013D01*
X106255315Y-87500013D01*
X106230609Y-87475307D01*
X106230601Y-87475301D01*
X106118671Y-87400512D01*
X106073865Y-87346900D01*
X106069855Y-87336414D01*
X106034814Y-87230666D01*
X105942712Y-87081344D01*
X105818656Y-86957288D01*
X105818652Y-86957285D01*
X105734403Y-86905319D01*
X105687678Y-86853371D01*
X105675500Y-86799781D01*
X105675500Y-84014499D01*
X105695185Y-83947460D01*
X105747989Y-83901705D01*
X105796879Y-83891068D01*
X105796859Y-83890659D01*
X105799346Y-83890532D01*
X105799500Y-83890499D01*
X105800002Y-83890499D01*
X105800008Y-83890499D01*
X105902797Y-83879999D01*
X106069334Y-83824814D01*
X106218656Y-83732712D01*
X106342712Y-83608656D01*
X106434814Y-83459334D01*
X106489999Y-83292797D01*
X106500500Y-83190009D01*
X106500499Y-81889992D01*
X106489999Y-81787203D01*
X106434814Y-81620666D01*
X106342712Y-81471344D01*
X106218656Y-81347288D01*
X106069334Y-81255186D01*
X106069333Y-81255185D01*
X106063878Y-81251821D01*
X106017154Y-81199873D01*
X106005931Y-81130910D01*
X106033775Y-81066828D01*
X106041272Y-81058623D01*
X106180104Y-80919792D01*
X106305051Y-80747816D01*
X106401557Y-80558412D01*
X106467246Y-80356243D01*
X106500500Y-80146287D01*
X106500500Y-79933713D01*
X106467246Y-79723757D01*
X106401557Y-79521588D01*
X106305051Y-79332184D01*
X106305049Y-79332181D01*
X106305048Y-79332179D01*
X106180109Y-79160213D01*
X106029786Y-79009890D01*
X105857820Y-78884951D01*
X105668414Y-78788444D01*
X105668413Y-78788443D01*
X105668412Y-78788443D01*
X105466243Y-78722754D01*
X105466241Y-78722753D01*
X105466240Y-78722753D01*
X105304957Y-78697208D01*
X105256287Y-78689500D01*
X104743713Y-78689500D01*
X104695042Y-78697208D01*
X104533760Y-78722753D01*
X104331585Y-78788444D01*
X104142179Y-78884951D01*
X103970213Y-79009890D01*
X103819890Y-79160213D01*
X103694951Y-79332179D01*
X103598444Y-79521585D01*
X103532753Y-79723760D01*
X103499500Y-79933713D01*
X103499500Y-80146286D01*
X103532753Y-80356239D01*
X103598444Y-80558414D01*
X103694951Y-80747820D01*
X103819890Y-80919786D01*
X103958705Y-81058601D01*
X103992190Y-81119924D01*
X103987206Y-81189616D01*
X103945334Y-81245549D01*
X103936121Y-81251821D01*
X103781342Y-81347289D01*
X103657289Y-81471342D01*
X103565187Y-81620663D01*
X103565186Y-81620666D01*
X103510001Y-81787203D01*
X103510001Y-81787204D01*
X103510000Y-81787204D01*
X103499500Y-81889983D01*
X103499500Y-83190001D01*
X103499501Y-83190018D01*
X103510000Y-83292796D01*
X103510001Y-83292799D01*
X103565185Y-83459331D01*
X103565186Y-83459334D01*
X103657288Y-83608656D01*
X103781344Y-83732712D01*
X103930666Y-83824814D01*
X104097203Y-83879999D01*
X104199991Y-83890500D01*
X104200469Y-83890499D01*
X104200568Y-83890529D01*
X104203139Y-83890660D01*
X104203130Y-83890820D01*
X104203132Y-83890821D01*
X104203129Y-83890844D01*
X104203107Y-83891273D01*
X104267511Y-83910165D01*
X104313280Y-83962957D01*
X104324500Y-84014499D01*
X104324500Y-86799781D01*
X104304815Y-86866820D01*
X104265597Y-86905319D01*
X104181347Y-86957285D01*
X104087327Y-87051305D01*
X104026003Y-87084789D01*
X103956312Y-87079805D01*
X103911965Y-87051304D01*
X103818345Y-86957684D01*
X103669124Y-86865643D01*
X103669119Y-86865641D01*
X103502697Y-86810494D01*
X103502690Y-86810493D01*
X103399986Y-86800000D01*
X103250000Y-86800000D01*
X103250000Y-89199999D01*
X103399972Y-89199999D01*
X103399986Y-89199998D01*
X103502695Y-89189506D01*
X103536995Y-89178140D01*
X103606823Y-89175738D01*
X103666866Y-89211469D01*
X103698059Y-89273989D01*
X103700000Y-89295846D01*
X103700000Y-91832500D01*
X103686485Y-91888795D01*
X103598444Y-92061585D01*
X103532753Y-92263760D01*
X103531177Y-92273713D01*
X103499500Y-92473713D01*
X103499500Y-92686287D01*
X103532754Y-92896243D01*
X103595445Y-93089186D01*
X103598444Y-93098414D01*
X103686485Y-93271204D01*
X103700000Y-93327499D01*
X103700000Y-93750000D01*
X103721635Y-93771635D01*
X103755120Y-93832958D01*
X103750136Y-93902650D01*
X103721635Y-93946997D01*
X103657289Y-94011342D01*
X103565187Y-94160663D01*
X103565185Y-94160668D01*
X103537349Y-94244670D01*
X103510001Y-94327203D01*
X103510001Y-94327204D01*
X103510000Y-94327204D01*
X103499500Y-94429983D01*
X103499500Y-95730001D01*
X103499501Y-95730018D01*
X103510000Y-95832796D01*
X103510001Y-95832799D01*
X103548873Y-95950104D01*
X103565186Y-95999334D01*
X103657288Y-96148656D01*
X103781344Y-96272712D01*
X103930666Y-96364814D01*
X104097203Y-96419999D01*
X104199991Y-96430500D01*
X104200469Y-96430499D01*
X104200568Y-96430529D01*
X104203139Y-96430660D01*
X104203130Y-96430820D01*
X104203132Y-96430821D01*
X104203129Y-96430844D01*
X104203107Y-96431273D01*
X104267511Y-96450165D01*
X104313280Y-96502957D01*
X104324500Y-96554499D01*
X104324500Y-99519781D01*
X104304815Y-99586820D01*
X104265597Y-99625319D01*
X104181347Y-99677285D01*
X104087327Y-99771305D01*
X104026003Y-99804789D01*
X103956312Y-99799805D01*
X103911965Y-99771304D01*
X103818345Y-99677684D01*
X103669124Y-99585643D01*
X103669119Y-99585641D01*
X103502697Y-99530494D01*
X103502690Y-99530493D01*
X103399986Y-99520000D01*
X103250000Y-99520000D01*
X103250000Y-101919999D01*
X103399972Y-101919999D01*
X103399986Y-101919998D01*
X103502697Y-101909505D01*
X103669119Y-101854358D01*
X103669124Y-101854356D01*
X103818342Y-101762317D01*
X103911964Y-101668695D01*
X103973287Y-101635210D01*
X104042979Y-101640194D01*
X104087327Y-101668695D01*
X104181344Y-101762712D01*
X104330666Y-101854814D01*
X104497203Y-101909999D01*
X104599991Y-101920500D01*
X105400008Y-101920499D01*
X105400016Y-101920498D01*
X105400019Y-101920498D01*
X105456302Y-101914748D01*
X105502797Y-101909999D01*
X105669334Y-101854814D01*
X105818656Y-101762712D01*
X105942712Y-101638656D01*
X106034814Y-101489334D01*
X106037744Y-101480493D01*
X106077518Y-101423049D01*
X106142035Y-101396228D01*
X106155449Y-101395500D01*
X106696532Y-101395500D01*
X106696533Y-101395499D01*
X106827036Y-101369541D01*
X106949969Y-101318620D01*
X107060606Y-101244695D01*
X107155315Y-101149986D01*
X111900001Y-101149986D01*
X111910494Y-101252697D01*
X111965641Y-101419119D01*
X111965643Y-101419124D01*
X112057684Y-101568345D01*
X112181654Y-101692315D01*
X112330875Y-101784356D01*
X112330880Y-101784358D01*
X112497302Y-101839505D01*
X112497309Y-101839506D01*
X112600019Y-101849999D01*
X112749999Y-101849999D01*
X112750000Y-101849998D01*
X112750000Y-100900000D01*
X111900001Y-100900000D01*
X111900001Y-101149986D01*
X107155315Y-101149986D01*
X107275197Y-101030104D01*
X107544345Y-100760957D01*
X108155289Y-100150013D01*
X111900000Y-100150013D01*
X111900000Y-100400000D01*
X112750000Y-100400000D01*
X112750000Y-99450000D01*
X112600027Y-99450000D01*
X112600012Y-99450001D01*
X112497302Y-99460494D01*
X112330880Y-99515641D01*
X112330875Y-99515643D01*
X112181654Y-99607684D01*
X112057684Y-99731654D01*
X111965643Y-99880875D01*
X111965641Y-99880880D01*
X111910494Y-100047302D01*
X111910493Y-100047309D01*
X111900000Y-100150013D01*
X108155289Y-100150013D01*
X108246119Y-100059183D01*
X109718982Y-98586319D01*
X109780305Y-98552834D01*
X109806663Y-98550000D01*
X114200500Y-98550000D01*
X114267539Y-98569685D01*
X114313294Y-98622489D01*
X114324500Y-98674000D01*
X114324500Y-99449781D01*
X114304815Y-99516820D01*
X114265597Y-99555319D01*
X114181347Y-99607285D01*
X114087327Y-99701305D01*
X114026003Y-99734789D01*
X113956312Y-99729805D01*
X113911965Y-99701304D01*
X113818345Y-99607684D01*
X113669124Y-99515643D01*
X113669119Y-99515641D01*
X113502697Y-99460494D01*
X113502690Y-99460493D01*
X113399986Y-99450000D01*
X113250000Y-99450000D01*
X113250000Y-101849999D01*
X113399972Y-101849999D01*
X113399986Y-101849998D01*
X113502697Y-101839505D01*
X113669119Y-101784358D01*
X113669124Y-101784356D01*
X113818342Y-101692317D01*
X113911964Y-101598695D01*
X113973287Y-101565210D01*
X114042979Y-101570194D01*
X114087327Y-101598695D01*
X114181344Y-101692712D01*
X114330666Y-101784814D01*
X114497203Y-101839999D01*
X114599991Y-101850500D01*
X115400008Y-101850499D01*
X115400016Y-101850498D01*
X115400019Y-101850498D01*
X115456302Y-101844748D01*
X115502797Y-101839999D01*
X115669334Y-101784814D01*
X115818656Y-101692712D01*
X115942712Y-101568656D01*
X116034814Y-101419334D01*
X116037744Y-101410493D01*
X116077518Y-101353049D01*
X116142035Y-101326228D01*
X116155449Y-101325500D01*
X116566532Y-101325500D01*
X116566533Y-101325499D01*
X116697036Y-101299541D01*
X116819969Y-101248620D01*
X116930606Y-101174695D01*
X117055315Y-101049986D01*
X121900001Y-101049986D01*
X121910494Y-101152697D01*
X121965641Y-101319119D01*
X121965643Y-101319124D01*
X122057684Y-101468345D01*
X122181654Y-101592315D01*
X122330875Y-101684356D01*
X122330880Y-101684358D01*
X122497302Y-101739505D01*
X122497309Y-101739506D01*
X122600019Y-101749999D01*
X122749999Y-101749999D01*
X122750000Y-101749998D01*
X122750000Y-100800000D01*
X121900001Y-100800000D01*
X121900001Y-101049986D01*
X117055315Y-101049986D01*
X117135301Y-100970000D01*
X117444345Y-100660957D01*
X118055289Y-100050013D01*
X121900000Y-100050013D01*
X121900000Y-100300000D01*
X122750000Y-100300000D01*
X122750000Y-99350000D01*
X122600027Y-99350000D01*
X122600012Y-99350001D01*
X122497302Y-99360494D01*
X122330880Y-99415641D01*
X122330875Y-99415643D01*
X122181654Y-99507684D01*
X122057684Y-99631654D01*
X121965643Y-99780875D01*
X121965641Y-99780880D01*
X121910494Y-99947302D01*
X121910493Y-99947309D01*
X121900000Y-100050013D01*
X118055289Y-100050013D01*
X118146119Y-99959183D01*
X119618982Y-98486319D01*
X119680305Y-98452834D01*
X119706663Y-98450000D01*
X119750000Y-98450000D01*
X124200500Y-98450000D01*
X124267539Y-98469685D01*
X124313294Y-98522489D01*
X124324500Y-98574000D01*
X124324500Y-99349781D01*
X124304815Y-99416820D01*
X124265597Y-99455319D01*
X124181347Y-99507285D01*
X124087327Y-99601305D01*
X124026003Y-99634789D01*
X123956312Y-99629805D01*
X123911965Y-99601304D01*
X123818345Y-99507684D01*
X123669124Y-99415643D01*
X123669119Y-99415641D01*
X123502697Y-99360494D01*
X123502690Y-99360493D01*
X123399986Y-99350000D01*
X123250000Y-99350000D01*
X123250000Y-101749999D01*
X123399972Y-101749999D01*
X123399986Y-101749998D01*
X123502697Y-101739505D01*
X123669119Y-101684358D01*
X123669124Y-101684356D01*
X123818342Y-101592317D01*
X123911964Y-101498695D01*
X123973287Y-101465210D01*
X124042979Y-101470194D01*
X124087327Y-101498695D01*
X124181344Y-101592712D01*
X124330666Y-101684814D01*
X124497203Y-101739999D01*
X124599991Y-101750500D01*
X125400008Y-101750499D01*
X125400016Y-101750498D01*
X125400019Y-101750498D01*
X125456302Y-101744748D01*
X125502797Y-101739999D01*
X125669334Y-101684814D01*
X125818656Y-101592712D01*
X125942712Y-101468656D01*
X126034814Y-101319334D01*
X126037744Y-101310493D01*
X126077518Y-101253049D01*
X126142035Y-101226228D01*
X126155449Y-101225500D01*
X127616532Y-101225500D01*
X127616533Y-101225499D01*
X127747036Y-101199541D01*
X127869969Y-101148620D01*
X127980606Y-101074695D01*
X129593482Y-99461819D01*
X129654805Y-99428334D01*
X129681163Y-99425500D01*
X133596521Y-99425500D01*
X133663560Y-99445185D01*
X133709315Y-99497989D01*
X133719259Y-99567147D01*
X133714452Y-99587818D01*
X133683242Y-99683869D01*
X133683242Y-99683872D01*
X133650000Y-99893753D01*
X133650000Y-100106246D01*
X133683242Y-100316127D01*
X133683242Y-100316130D01*
X133748904Y-100518217D01*
X133845375Y-100707550D01*
X133884728Y-100761716D01*
X134517036Y-100129407D01*
X134534075Y-100192993D01*
X134599901Y-100307007D01*
X134692993Y-100400099D01*
X134807007Y-100465925D01*
X134870589Y-100482962D01*
X134238282Y-101115269D01*
X134238282Y-101115270D01*
X134292452Y-101154626D01*
X134292451Y-101154626D01*
X134301495Y-101159234D01*
X134352292Y-101207208D01*
X134369087Y-101275029D01*
X134346550Y-101341164D01*
X134301499Y-101380202D01*
X134292182Y-101384949D01*
X134120213Y-101509890D01*
X133969890Y-101660213D01*
X133844951Y-101832179D01*
X133748444Y-102021585D01*
X133682753Y-102223760D01*
X133682752Y-102223761D01*
X133675446Y-102269897D01*
X133645517Y-102333032D01*
X133586206Y-102369964D01*
X133552973Y-102374500D01*
X111513464Y-102374500D01*
X111382971Y-102400457D01*
X111382963Y-102400459D01*
X111260034Y-102451378D01*
X111260024Y-102451383D01*
X111149394Y-102525304D01*
X111149390Y-102525307D01*
X109911018Y-103763681D01*
X109849695Y-103797166D01*
X109823337Y-103800000D01*
X105458612Y-103800000D01*
X105439214Y-103798473D01*
X105395548Y-103791557D01*
X105256287Y-103769500D01*
X104743713Y-103769500D01*
X104695042Y-103777208D01*
X104533760Y-103802753D01*
X104331585Y-103868444D01*
X104142179Y-103964951D01*
X103970213Y-104089890D01*
X103819890Y-104240213D01*
X103694951Y-104412179D01*
X103598444Y-104601585D01*
X103532753Y-104803760D01*
X103499500Y-105013713D01*
X103499500Y-105226286D01*
X103532753Y-105436239D01*
X103598444Y-105638414D01*
X103694951Y-105827820D01*
X103819890Y-105999786D01*
X103958705Y-106138601D01*
X103992190Y-106199924D01*
X103987206Y-106269616D01*
X103945334Y-106325549D01*
X103936121Y-106331821D01*
X103781342Y-106427289D01*
X103657289Y-106551342D01*
X103565187Y-106700663D01*
X103565186Y-106700666D01*
X103510001Y-106867203D01*
X103510001Y-106867204D01*
X103510000Y-106867204D01*
X103499500Y-106969983D01*
X103499500Y-108270001D01*
X103499501Y-108270018D01*
X103510000Y-108372796D01*
X103510001Y-108372799D01*
X103552081Y-108499786D01*
X103565186Y-108539334D01*
X103657288Y-108688656D01*
X103781344Y-108812712D01*
X103930666Y-108904814D01*
X104097203Y-108959999D01*
X104199991Y-108970500D01*
X104200469Y-108970499D01*
X104200568Y-108970529D01*
X104203139Y-108970660D01*
X104203130Y-108970820D01*
X104203132Y-108970821D01*
X104203129Y-108970844D01*
X104203107Y-108971273D01*
X104267511Y-108990165D01*
X104313280Y-109042957D01*
X104324500Y-109094499D01*
X104324500Y-112059781D01*
X104304815Y-112126820D01*
X104265597Y-112165319D01*
X104181347Y-112217285D01*
X104087327Y-112311305D01*
X104026003Y-112344789D01*
X103956312Y-112339805D01*
X103911965Y-112311304D01*
X103818345Y-112217684D01*
X103669124Y-112125643D01*
X103669119Y-112125641D01*
X103502697Y-112070494D01*
X103502690Y-112070493D01*
X103399986Y-112060000D01*
X103250000Y-112060000D01*
X103250000Y-114459999D01*
X103399972Y-114459999D01*
X103399986Y-114459998D01*
X103502697Y-114449505D01*
X103669119Y-114394358D01*
X103669124Y-114394356D01*
X103818342Y-114302317D01*
X103911964Y-114208695D01*
X103973287Y-114175210D01*
X104042979Y-114180194D01*
X104087327Y-114208695D01*
X104181344Y-114302712D01*
X104330666Y-114394814D01*
X104497203Y-114449999D01*
X104599991Y-114460500D01*
X105400008Y-114460499D01*
X105400016Y-114460498D01*
X105400019Y-114460498D01*
X105456302Y-114454748D01*
X105502797Y-114449999D01*
X105669334Y-114394814D01*
X105818656Y-114302712D01*
X105942712Y-114178656D01*
X106034814Y-114029334D01*
X106037744Y-114020493D01*
X106077518Y-113963049D01*
X106142035Y-113936228D01*
X106155449Y-113935500D01*
X106756532Y-113935500D01*
X106756533Y-113935499D01*
X106887036Y-113909541D01*
X107009969Y-113858620D01*
X107120606Y-113784695D01*
X107145315Y-113759986D01*
X111900001Y-113759986D01*
X111910494Y-113862697D01*
X111965641Y-114029119D01*
X111965643Y-114029124D01*
X112057684Y-114178345D01*
X112181654Y-114302315D01*
X112330875Y-114394356D01*
X112330880Y-114394358D01*
X112497302Y-114449505D01*
X112497309Y-114449506D01*
X112600019Y-114459999D01*
X112749999Y-114459999D01*
X112750000Y-114459998D01*
X112750000Y-113510000D01*
X111900001Y-113510000D01*
X111900001Y-113759986D01*
X107145315Y-113759986D01*
X107260465Y-113644836D01*
X107534345Y-113370957D01*
X108145289Y-112760013D01*
X111900000Y-112760013D01*
X111900000Y-113010000D01*
X112750000Y-113010000D01*
X112750000Y-112060000D01*
X112600027Y-112060000D01*
X112600012Y-112060001D01*
X112497302Y-112070494D01*
X112330880Y-112125641D01*
X112330875Y-112125643D01*
X112181654Y-112217684D01*
X112057684Y-112341654D01*
X111965643Y-112490875D01*
X111965641Y-112490880D01*
X111910494Y-112657302D01*
X111910493Y-112657309D01*
X111900000Y-112760013D01*
X108145289Y-112760013D01*
X108236119Y-112669183D01*
X108274690Y-112630611D01*
X108274693Y-112630608D01*
X108274695Y-112630606D01*
X108319945Y-112562884D01*
X108330534Y-112547037D01*
X108337777Y-112536194D01*
X108348620Y-112519969D01*
X108399540Y-112397036D01*
X108425500Y-112266531D01*
X108425500Y-111124000D01*
X108445185Y-111056961D01*
X108497989Y-111011206D01*
X108549500Y-111000000D01*
X114200500Y-111000000D01*
X114267539Y-111019685D01*
X114313294Y-111072489D01*
X114324500Y-111124000D01*
X114324500Y-112059781D01*
X114304815Y-112126820D01*
X114265597Y-112165319D01*
X114181347Y-112217285D01*
X114087327Y-112311305D01*
X114026003Y-112344789D01*
X113956312Y-112339805D01*
X113911965Y-112311304D01*
X113818345Y-112217684D01*
X113669124Y-112125643D01*
X113669119Y-112125641D01*
X113502697Y-112070494D01*
X113502690Y-112070493D01*
X113399986Y-112060000D01*
X113250000Y-112060000D01*
X113250000Y-114459999D01*
X113399972Y-114459999D01*
X113399986Y-114459998D01*
X113502697Y-114449505D01*
X113669119Y-114394358D01*
X113669124Y-114394356D01*
X113818342Y-114302317D01*
X113911964Y-114208695D01*
X113973287Y-114175210D01*
X114042979Y-114180194D01*
X114087327Y-114208695D01*
X114181344Y-114302712D01*
X114330666Y-114394814D01*
X114497203Y-114449999D01*
X114599991Y-114460500D01*
X115400008Y-114460499D01*
X115400016Y-114460498D01*
X115400019Y-114460498D01*
X115456302Y-114454748D01*
X115502797Y-114449999D01*
X115669334Y-114394814D01*
X115818656Y-114302712D01*
X115942712Y-114178656D01*
X116034814Y-114029334D01*
X116037744Y-114020493D01*
X116077518Y-113963049D01*
X116142035Y-113936228D01*
X116155449Y-113935500D01*
X116706532Y-113935500D01*
X116706533Y-113935499D01*
X116837036Y-113909541D01*
X116959969Y-113858620D01*
X117070606Y-113784695D01*
X117095315Y-113759986D01*
X121900001Y-113759986D01*
X121910494Y-113862697D01*
X121965641Y-114029119D01*
X121965643Y-114029124D01*
X122057684Y-114178345D01*
X122181654Y-114302315D01*
X122330875Y-114394356D01*
X122330880Y-114394358D01*
X122497302Y-114449505D01*
X122497309Y-114449506D01*
X122600019Y-114459999D01*
X122749999Y-114459999D01*
X122750000Y-114459998D01*
X122750000Y-113510000D01*
X121900001Y-113510000D01*
X121900001Y-113759986D01*
X117095315Y-113759986D01*
X117210465Y-113644836D01*
X117484345Y-113370957D01*
X118095289Y-112760013D01*
X121900000Y-112760013D01*
X121900000Y-113010000D01*
X122750000Y-113010000D01*
X122750000Y-112060000D01*
X122600027Y-112060000D01*
X122600012Y-112060001D01*
X122497302Y-112070494D01*
X122330880Y-112125641D01*
X122330875Y-112125643D01*
X122181654Y-112217684D01*
X122057684Y-112341654D01*
X121965643Y-112490875D01*
X121965641Y-112490880D01*
X121910494Y-112657302D01*
X121910493Y-112657309D01*
X121900000Y-112760013D01*
X118095289Y-112760013D01*
X118186119Y-112669183D01*
X119868982Y-110986319D01*
X119930305Y-110952834D01*
X119956663Y-110950000D01*
X124200500Y-110950000D01*
X124267539Y-110969685D01*
X124313294Y-111022489D01*
X124324500Y-111074000D01*
X124324500Y-112059781D01*
X124304815Y-112126820D01*
X124265597Y-112165319D01*
X124181347Y-112217285D01*
X124087327Y-112311305D01*
X124026003Y-112344789D01*
X123956312Y-112339805D01*
X123911965Y-112311304D01*
X123818345Y-112217684D01*
X123669124Y-112125643D01*
X123669119Y-112125641D01*
X123502697Y-112070494D01*
X123502690Y-112070493D01*
X123399986Y-112060000D01*
X123250000Y-112060000D01*
X123250000Y-114459999D01*
X123399972Y-114459999D01*
X123399986Y-114459998D01*
X123502697Y-114449505D01*
X123669119Y-114394358D01*
X123669124Y-114394356D01*
X123818342Y-114302317D01*
X123911964Y-114208695D01*
X123973287Y-114175210D01*
X124042979Y-114180194D01*
X124087327Y-114208695D01*
X124181344Y-114302712D01*
X124330666Y-114394814D01*
X124497203Y-114449999D01*
X124599991Y-114460500D01*
X125284837Y-114460499D01*
X125351876Y-114480183D01*
X125397631Y-114532987D01*
X125407575Y-114602146D01*
X125378550Y-114665702D01*
X125372518Y-114672180D01*
X125156518Y-114888181D01*
X125095195Y-114921666D01*
X125068837Y-114924500D01*
X112083464Y-114924500D01*
X111952971Y-114950457D01*
X111952963Y-114950459D01*
X111830034Y-115001378D01*
X111830024Y-115001383D01*
X111719394Y-115075304D01*
X111719390Y-115075307D01*
X107346518Y-119448181D01*
X107285195Y-119481666D01*
X107258837Y-119484500D01*
X106605154Y-119484500D01*
X106538115Y-119464815D01*
X106492360Y-119412011D01*
X106487448Y-119399504D01*
X106475212Y-119362580D01*
X106434814Y-119240666D01*
X106342712Y-119091344D01*
X106218656Y-118967288D01*
X106069334Y-118875186D01*
X106069333Y-118875185D01*
X106063878Y-118871821D01*
X106017154Y-118819873D01*
X106005931Y-118750910D01*
X106033775Y-118686828D01*
X106041272Y-118678623D01*
X106180104Y-118539792D01*
X106305051Y-118367816D01*
X106401557Y-118178412D01*
X106467246Y-117976243D01*
X106500500Y-117766287D01*
X106500500Y-117553713D01*
X106467246Y-117343757D01*
X106401557Y-117141588D01*
X106305051Y-116952184D01*
X106305049Y-116952181D01*
X106305048Y-116952179D01*
X106180109Y-116780213D01*
X106029786Y-116629890D01*
X105857820Y-116504951D01*
X105668414Y-116408444D01*
X105668413Y-116408443D01*
X105668412Y-116408443D01*
X105466243Y-116342754D01*
X105466241Y-116342753D01*
X105466240Y-116342753D01*
X105270928Y-116311819D01*
X105256287Y-116309500D01*
X104743713Y-116309500D01*
X104729072Y-116311819D01*
X104533760Y-116342753D01*
X104331585Y-116408444D01*
X104142179Y-116504951D01*
X103970213Y-116629890D01*
X103819890Y-116780213D01*
X103694951Y-116952179D01*
X103598444Y-117141585D01*
X103532753Y-117343760D01*
X103499500Y-117553713D01*
X103499500Y-117766286D01*
X103532753Y-117976239D01*
X103598444Y-118178414D01*
X103694951Y-118367820D01*
X103819890Y-118539786D01*
X103958705Y-118678601D01*
X103992190Y-118739924D01*
X103987206Y-118809616D01*
X103945334Y-118865549D01*
X103936121Y-118871821D01*
X103781342Y-118967289D01*
X103657289Y-119091342D01*
X103565187Y-119240663D01*
X103565186Y-119240666D01*
X103510001Y-119407203D01*
X103510001Y-119407204D01*
X103510000Y-119407204D01*
X103499500Y-119509983D01*
X103499500Y-120810001D01*
X103499501Y-120810018D01*
X103510000Y-120912796D01*
X103510001Y-120912799D01*
X103512552Y-120920496D01*
X103565186Y-121079334D01*
X103657288Y-121228656D01*
X103781344Y-121352712D01*
X103930666Y-121444814D01*
X104097203Y-121499999D01*
X104199991Y-121510500D01*
X104200469Y-121510499D01*
X104200568Y-121510529D01*
X104203139Y-121510660D01*
X104203130Y-121510820D01*
X104203132Y-121510821D01*
X104203129Y-121510844D01*
X104203107Y-121511273D01*
X104267511Y-121530165D01*
X104313280Y-121582957D01*
X104324500Y-121634499D01*
X104324500Y-123330621D01*
X104304815Y-123397660D01*
X104282505Y-123423633D01*
X104274581Y-123430619D01*
X104231344Y-123457288D01*
X104134574Y-123554057D01*
X104131651Y-123556635D01*
X104103379Y-123569840D01*
X104076003Y-123584789D01*
X104071992Y-123584502D01*
X104068347Y-123586205D01*
X104037428Y-123582030D01*
X104006312Y-123579805D01*
X104002419Y-123577303D01*
X103999106Y-123576856D01*
X103991052Y-123569998D01*
X103961965Y-123551304D01*
X103868345Y-123457684D01*
X103719124Y-123365643D01*
X103719119Y-123365641D01*
X103552697Y-123310494D01*
X103552690Y-123310493D01*
X103449986Y-123300000D01*
X103300000Y-123300000D01*
X103300000Y-124376000D01*
X103280315Y-124443039D01*
X103227511Y-124488794D01*
X103176000Y-124500000D01*
X103050000Y-124500000D01*
X103050000Y-124626000D01*
X103030315Y-124693039D01*
X102977511Y-124738794D01*
X102926000Y-124750000D01*
X101950001Y-124750000D01*
X101950001Y-124999986D01*
X101960494Y-125102697D01*
X102015641Y-125269119D01*
X102015643Y-125269124D01*
X102107684Y-125418345D01*
X102137158Y-125447819D01*
X102170643Y-125509142D01*
X102165659Y-125578834D01*
X102123787Y-125634767D01*
X102058323Y-125659184D01*
X102049477Y-125659500D01*
X100624500Y-125659500D01*
X100557461Y-125639815D01*
X100511706Y-125587011D01*
X100500500Y-125535500D01*
X100500500Y-124000013D01*
X101950000Y-124000013D01*
X101950000Y-124250000D01*
X102800000Y-124250000D01*
X102800000Y-123300000D01*
X102650027Y-123300000D01*
X102650012Y-123300001D01*
X102547302Y-123310494D01*
X102380880Y-123365641D01*
X102380875Y-123365643D01*
X102231654Y-123457684D01*
X102107684Y-123581654D01*
X102015643Y-123730875D01*
X102015641Y-123730880D01*
X101960494Y-123897302D01*
X101960493Y-123897309D01*
X101950000Y-124000013D01*
X100500500Y-124000013D01*
X100500500Y-113759986D01*
X101900001Y-113759986D01*
X101910494Y-113862697D01*
X101965641Y-114029119D01*
X101965643Y-114029124D01*
X102057684Y-114178345D01*
X102181654Y-114302315D01*
X102330875Y-114394356D01*
X102330880Y-114394358D01*
X102497302Y-114449505D01*
X102497309Y-114449506D01*
X102600019Y-114459999D01*
X102749999Y-114459999D01*
X102750000Y-114459998D01*
X102750000Y-113510000D01*
X101900001Y-113510000D01*
X101900001Y-113759986D01*
X100500500Y-113759986D01*
X100500500Y-112760013D01*
X101900000Y-112760013D01*
X101900000Y-113010000D01*
X102750000Y-113010000D01*
X102750000Y-112060000D01*
X102600027Y-112060000D01*
X102600012Y-112060001D01*
X102497302Y-112070494D01*
X102330880Y-112125641D01*
X102330875Y-112125643D01*
X102181654Y-112217684D01*
X102057684Y-112341654D01*
X101965643Y-112490875D01*
X101965641Y-112490880D01*
X101910494Y-112657302D01*
X101910493Y-112657309D01*
X101900000Y-112760013D01*
X100500500Y-112760013D01*
X100500500Y-101219986D01*
X101900001Y-101219986D01*
X101910494Y-101322697D01*
X101965641Y-101489119D01*
X101965643Y-101489124D01*
X102057684Y-101638345D01*
X102181654Y-101762315D01*
X102330875Y-101854356D01*
X102330880Y-101854358D01*
X102497302Y-101909505D01*
X102497309Y-101909506D01*
X102600019Y-101919999D01*
X102749999Y-101919999D01*
X102750000Y-101919998D01*
X102750000Y-100970000D01*
X101900001Y-100970000D01*
X101900001Y-101219986D01*
X100500500Y-101219986D01*
X100500500Y-100220013D01*
X101900000Y-100220013D01*
X101900000Y-100470000D01*
X102750000Y-100470000D01*
X102750000Y-99520000D01*
X102600027Y-99520000D01*
X102600012Y-99520001D01*
X102497302Y-99530494D01*
X102330880Y-99585641D01*
X102330875Y-99585643D01*
X102181654Y-99677684D01*
X102057684Y-99801654D01*
X101965643Y-99950875D01*
X101965641Y-99950880D01*
X101910494Y-100117302D01*
X101910493Y-100117309D01*
X101900000Y-100220013D01*
X100500500Y-100220013D01*
X100500500Y-88499986D01*
X101900001Y-88499986D01*
X101910494Y-88602697D01*
X101965641Y-88769119D01*
X101965643Y-88769124D01*
X102057684Y-88918345D01*
X102181654Y-89042315D01*
X102330875Y-89134356D01*
X102330880Y-89134358D01*
X102497302Y-89189505D01*
X102497309Y-89189506D01*
X102600019Y-89199999D01*
X102749999Y-89199999D01*
X102750000Y-89199998D01*
X102750000Y-88250000D01*
X101900001Y-88250000D01*
X101900001Y-88499986D01*
X100500500Y-88499986D01*
X100500500Y-87500013D01*
X101900000Y-87500013D01*
X101900000Y-87750000D01*
X102750000Y-87750000D01*
X102750000Y-86800000D01*
X102600027Y-86800000D01*
X102600012Y-86800001D01*
X102497302Y-86810494D01*
X102330880Y-86865641D01*
X102330875Y-86865643D01*
X102181654Y-86957684D01*
X102057684Y-87081654D01*
X101965643Y-87230875D01*
X101965641Y-87230880D01*
X101910494Y-87397302D01*
X101910493Y-87397309D01*
X101900000Y-87500013D01*
X100500500Y-87500013D01*
X100500500Y-76624500D01*
X100520185Y-76557461D01*
X100572989Y-76511706D01*
X100624500Y-76500500D01*
X141375500Y-76500500D01*
X141442539Y-76520185D01*
G37*
%TD.AperFunction*%
%TA.AperFunction,Conductor*%
G36*
X114078269Y-116275890D02*
G01*
X114079605Y-116275529D01*
X114111701Y-116285707D01*
X114143979Y-116295185D01*
X114144884Y-116296229D01*
X114146206Y-116296649D01*
X114167719Y-116322582D01*
X114189734Y-116347989D01*
X114189930Y-116349358D01*
X114190815Y-116350424D01*
X114194886Y-116383826D01*
X114199678Y-116417147D01*
X114199102Y-116418407D01*
X114199270Y-116419781D01*
X114184639Y-116450076D01*
X114170653Y-116480703D01*
X114169292Y-116481856D01*
X114168886Y-116482698D01*
X114145895Y-116501769D01*
X114146125Y-116502085D01*
X113970213Y-116629890D01*
X113819890Y-116780213D01*
X113694951Y-116952179D01*
X113598444Y-117141585D01*
X113532753Y-117343760D01*
X113499500Y-117553713D01*
X113499500Y-117766286D01*
X113532753Y-117976239D01*
X113598444Y-118178414D01*
X113694951Y-118367820D01*
X113819890Y-118539786D01*
X113958705Y-118678601D01*
X113992190Y-118739924D01*
X113987206Y-118809616D01*
X113945334Y-118865549D01*
X113936121Y-118871821D01*
X113781342Y-118967289D01*
X113657289Y-119091342D01*
X113565187Y-119240663D01*
X113565186Y-119240666D01*
X113510001Y-119407203D01*
X113510001Y-119407204D01*
X113510000Y-119407204D01*
X113499500Y-119509983D01*
X113499500Y-120810001D01*
X113499501Y-120810018D01*
X113510000Y-120912796D01*
X113510001Y-120912799D01*
X113512552Y-120920496D01*
X113565186Y-121079334D01*
X113657288Y-121228656D01*
X113781344Y-121352712D01*
X113930666Y-121444814D01*
X114097203Y-121499999D01*
X114199991Y-121510500D01*
X114200469Y-121510499D01*
X114200568Y-121510529D01*
X114203139Y-121510660D01*
X114203130Y-121510820D01*
X114203132Y-121510821D01*
X114203129Y-121510844D01*
X114203107Y-121511273D01*
X114267511Y-121530165D01*
X114313280Y-121582957D01*
X114324500Y-121634499D01*
X114324500Y-123330621D01*
X114304815Y-123397660D01*
X114282505Y-123423633D01*
X114274581Y-123430619D01*
X114231344Y-123457288D01*
X114134574Y-123554057D01*
X114131651Y-123556635D01*
X114103379Y-123569840D01*
X114076003Y-123584789D01*
X114071992Y-123584502D01*
X114068347Y-123586205D01*
X114037428Y-123582030D01*
X114006312Y-123579805D01*
X114002419Y-123577303D01*
X113999106Y-123576856D01*
X113991052Y-123569998D01*
X113961965Y-123551304D01*
X113868345Y-123457684D01*
X113719124Y-123365643D01*
X113719119Y-123365641D01*
X113552697Y-123310494D01*
X113552690Y-123310493D01*
X113449986Y-123300000D01*
X113300000Y-123300000D01*
X113300000Y-124376000D01*
X113280315Y-124443039D01*
X113227511Y-124488794D01*
X113176000Y-124500000D01*
X113050000Y-124500000D01*
X113050000Y-124626000D01*
X113030315Y-124693039D01*
X112977511Y-124738794D01*
X112926000Y-124750000D01*
X111950001Y-124750000D01*
X111950001Y-124999986D01*
X111960494Y-125102697D01*
X112015641Y-125269119D01*
X112015643Y-125269124D01*
X112107684Y-125418345D01*
X112137158Y-125447819D01*
X112170643Y-125509142D01*
X112165659Y-125578834D01*
X112123787Y-125634767D01*
X112058323Y-125659184D01*
X112049477Y-125659500D01*
X106051230Y-125659500D01*
X105984191Y-125639815D01*
X105938436Y-125587011D01*
X105928492Y-125517853D01*
X105957517Y-125454297D01*
X105963549Y-125447819D01*
X105992712Y-125418656D01*
X106084814Y-125269334D01*
X106139999Y-125102797D01*
X106150500Y-125000009D01*
X106150499Y-124000013D01*
X111950000Y-124000013D01*
X111950000Y-124250000D01*
X112800000Y-124250000D01*
X112800000Y-123300000D01*
X112650027Y-123300000D01*
X112650012Y-123300001D01*
X112547302Y-123310494D01*
X112380880Y-123365641D01*
X112380875Y-123365643D01*
X112231654Y-123457684D01*
X112107684Y-123581654D01*
X112015643Y-123730875D01*
X112015641Y-123730880D01*
X111960494Y-123897302D01*
X111960493Y-123897309D01*
X111950000Y-124000013D01*
X106150499Y-124000013D01*
X106150499Y-123999992D01*
X106139999Y-123897203D01*
X106084814Y-123730666D01*
X105992712Y-123581344D01*
X105868656Y-123457288D01*
X105734402Y-123374480D01*
X105687679Y-123322533D01*
X105675500Y-123268942D01*
X105675500Y-121634499D01*
X105695185Y-121567460D01*
X105747989Y-121521705D01*
X105796879Y-121511068D01*
X105796859Y-121510659D01*
X105799346Y-121510532D01*
X105799500Y-121510499D01*
X105800002Y-121510499D01*
X105800008Y-121510499D01*
X105902797Y-121499999D01*
X106069334Y-121444814D01*
X106218656Y-121352712D01*
X106342712Y-121228656D01*
X106434814Y-121079334D01*
X106487448Y-120920493D01*
X106527219Y-120863051D01*
X106591735Y-120836228D01*
X106605153Y-120835500D01*
X107656532Y-120835500D01*
X107656533Y-120835499D01*
X107787036Y-120809541D01*
X107909969Y-120758620D01*
X108020606Y-120684695D01*
X112393482Y-116311819D01*
X112454805Y-116278334D01*
X112481163Y-116275500D01*
X114076940Y-116275500D01*
X114078269Y-116275890D01*
G37*
%TD.AperFunction*%
%TA.AperFunction,Conductor*%
G36*
X123573234Y-116945185D02*
G01*
X123618989Y-116997989D01*
X123628933Y-117067147D01*
X123616680Y-117105794D01*
X123598445Y-117141582D01*
X123532753Y-117343760D01*
X123499500Y-117553713D01*
X123499500Y-117766286D01*
X123532753Y-117976239D01*
X123598444Y-118178414D01*
X123694951Y-118367820D01*
X123819890Y-118539786D01*
X123958705Y-118678601D01*
X123992190Y-118739924D01*
X123987206Y-118809616D01*
X123945334Y-118865549D01*
X123936121Y-118871821D01*
X123781342Y-118967289D01*
X123657289Y-119091342D01*
X123565187Y-119240663D01*
X123565186Y-119240666D01*
X123510001Y-119407203D01*
X123510001Y-119407204D01*
X123510000Y-119407204D01*
X123499500Y-119509983D01*
X123499500Y-120810001D01*
X123499501Y-120810018D01*
X123510000Y-120912796D01*
X123510001Y-120912799D01*
X123512552Y-120920496D01*
X123565186Y-121079334D01*
X123657288Y-121228656D01*
X123781344Y-121352712D01*
X123930666Y-121444814D01*
X124097203Y-121499999D01*
X124199991Y-121510500D01*
X124200469Y-121510499D01*
X124200568Y-121510529D01*
X124203139Y-121510660D01*
X124203130Y-121510820D01*
X124203132Y-121510821D01*
X124203129Y-121510844D01*
X124203107Y-121511273D01*
X124267511Y-121530165D01*
X124313280Y-121582957D01*
X124324500Y-121634499D01*
X124324500Y-123330621D01*
X124304815Y-123397660D01*
X124282505Y-123423633D01*
X124274581Y-123430619D01*
X124231344Y-123457288D01*
X124134574Y-123554057D01*
X124131651Y-123556635D01*
X124103379Y-123569840D01*
X124076003Y-123584789D01*
X124071992Y-123584502D01*
X124068347Y-123586205D01*
X124037428Y-123582030D01*
X124006312Y-123579805D01*
X124002419Y-123577303D01*
X123999106Y-123576856D01*
X123991052Y-123569998D01*
X123961965Y-123551304D01*
X123868345Y-123457684D01*
X123719124Y-123365643D01*
X123719119Y-123365641D01*
X123552697Y-123310494D01*
X123552690Y-123310493D01*
X123449986Y-123300000D01*
X123300000Y-123300000D01*
X123300000Y-124376000D01*
X123280315Y-124443039D01*
X123227511Y-124488794D01*
X123176000Y-124500000D01*
X123050000Y-124500000D01*
X123050000Y-124626000D01*
X123030315Y-124693039D01*
X122977511Y-124738794D01*
X122926000Y-124750000D01*
X121950001Y-124750000D01*
X121950001Y-124999986D01*
X121960494Y-125102697D01*
X122015641Y-125269119D01*
X122015643Y-125269124D01*
X122107684Y-125418345D01*
X122137158Y-125447819D01*
X122170643Y-125509142D01*
X122165659Y-125578834D01*
X122123787Y-125634767D01*
X122058323Y-125659184D01*
X122049477Y-125659500D01*
X116051230Y-125659500D01*
X115984191Y-125639815D01*
X115938436Y-125587011D01*
X115928492Y-125517853D01*
X115957517Y-125454297D01*
X115963549Y-125447819D01*
X115992712Y-125418656D01*
X116084814Y-125269334D01*
X116139999Y-125102797D01*
X116150500Y-125000009D01*
X116150499Y-124000013D01*
X121950000Y-124000013D01*
X121950000Y-124250000D01*
X122800000Y-124250000D01*
X122800000Y-123300000D01*
X122650027Y-123300000D01*
X122650012Y-123300001D01*
X122547302Y-123310494D01*
X122380880Y-123365641D01*
X122380875Y-123365643D01*
X122231654Y-123457684D01*
X122107684Y-123581654D01*
X122015643Y-123730875D01*
X122015641Y-123730880D01*
X121960494Y-123897302D01*
X121960493Y-123897309D01*
X121950000Y-124000013D01*
X116150499Y-124000013D01*
X116150499Y-123999992D01*
X116139999Y-123897203D01*
X116084814Y-123730666D01*
X115992712Y-123581344D01*
X115868656Y-123457288D01*
X115734402Y-123374480D01*
X115687679Y-123322533D01*
X115675500Y-123268942D01*
X115675500Y-121634499D01*
X115695185Y-121567460D01*
X115747989Y-121521705D01*
X115796879Y-121511068D01*
X115796859Y-121510659D01*
X115799346Y-121510532D01*
X115799500Y-121510499D01*
X115800002Y-121510499D01*
X115800008Y-121510499D01*
X115902797Y-121499999D01*
X116069334Y-121444814D01*
X116218656Y-121352712D01*
X116342712Y-121228656D01*
X116434814Y-121079334D01*
X116487448Y-120920493D01*
X116527219Y-120863051D01*
X116591735Y-120836228D01*
X116605153Y-120835500D01*
X117906532Y-120835500D01*
X117906533Y-120835499D01*
X118037036Y-120809541D01*
X118159969Y-120758620D01*
X118270606Y-120684695D01*
X121993482Y-116961819D01*
X122054805Y-116928334D01*
X122081163Y-116925500D01*
X123506195Y-116925500D01*
X123573234Y-116945185D01*
G37*
%TD.AperFunction*%
%TD*%
M02*
