%TF.GenerationSoftware,KiCad,Pcbnew,9.0.2*%
%TF.CreationDate,2026-01-15T20:54:27-07:00*%
%TF.ProjectId,Button Mainboard Interface,42757474-6f6e-4204-9d61-696e626f6172,rev?*%
%TF.SameCoordinates,Original*%
%TF.FileFunction,Legend,Top*%
%TF.FilePolarity,Positive*%
%FSLAX46Y46*%
G04 Gerber Fmt 4.6, Leading zero omitted, Abs format (unit mm)*
G04 Created by KiCad (PCBNEW 9.0.2) date 2026-01-15 20:54:27*
%MOMM*%
%LPD*%
G01*
G04 APERTURE LIST*
%ADD10C,0.300000*%
%ADD11C,0.200000*%
%ADD12C,0.150000*%
%ADD13C,0.120000*%
G04 APERTURE END LIST*
D10*
X140950828Y-83688346D02*
X140236542Y-84188346D01*
X140950828Y-84545489D02*
X139450828Y-84545489D01*
X139450828Y-84545489D02*
X139450828Y-83974060D01*
X139450828Y-83974060D02*
X139522257Y-83831203D01*
X139522257Y-83831203D02*
X139593685Y-83759774D01*
X139593685Y-83759774D02*
X139736542Y-83688346D01*
X139736542Y-83688346D02*
X139950828Y-83688346D01*
X139950828Y-83688346D02*
X140093685Y-83759774D01*
X140093685Y-83759774D02*
X140165114Y-83831203D01*
X140165114Y-83831203D02*
X140236542Y-83974060D01*
X140236542Y-83974060D02*
X140236542Y-84545489D01*
X140165114Y-83045489D02*
X140165114Y-82545489D01*
X140950828Y-82331203D02*
X140950828Y-83045489D01*
X140950828Y-83045489D02*
X139450828Y-83045489D01*
X139450828Y-83045489D02*
X139450828Y-82331203D01*
X139450828Y-81902631D02*
X140950828Y-81402631D01*
X140950828Y-81402631D02*
X139450828Y-80902631D01*
X139450828Y-79402632D02*
X140950828Y-78402632D01*
X139450828Y-78402632D02*
X140950828Y-79402632D01*
X139450828Y-77545489D02*
X139450828Y-77402632D01*
X139450828Y-77402632D02*
X139522257Y-77259775D01*
X139522257Y-77259775D02*
X139593685Y-77188347D01*
X139593685Y-77188347D02*
X139736542Y-77116918D01*
X139736542Y-77116918D02*
X140022257Y-77045489D01*
X140022257Y-77045489D02*
X140379400Y-77045489D01*
X140379400Y-77045489D02*
X140665114Y-77116918D01*
X140665114Y-77116918D02*
X140807971Y-77188347D01*
X140807971Y-77188347D02*
X140879400Y-77259775D01*
X140879400Y-77259775D02*
X140950828Y-77402632D01*
X140950828Y-77402632D02*
X140950828Y-77545489D01*
X140950828Y-77545489D02*
X140879400Y-77688347D01*
X140879400Y-77688347D02*
X140807971Y-77759775D01*
X140807971Y-77759775D02*
X140665114Y-77831204D01*
X140665114Y-77831204D02*
X140379400Y-77902632D01*
X140379400Y-77902632D02*
X140022257Y-77902632D01*
X140022257Y-77902632D02*
X139736542Y-77831204D01*
X139736542Y-77831204D02*
X139593685Y-77759775D01*
X139593685Y-77759775D02*
X139522257Y-77688347D01*
X139522257Y-77688347D02*
X139450828Y-77545489D01*
D11*
X135887378Y-124697619D02*
X135932616Y-124561905D01*
X135932616Y-124561905D02*
X135977854Y-124516667D01*
X135977854Y-124516667D02*
X136068330Y-124471429D01*
X136068330Y-124471429D02*
X136204044Y-124471429D01*
X136204044Y-124471429D02*
X136294520Y-124516667D01*
X136294520Y-124516667D02*
X136339759Y-124561905D01*
X136339759Y-124561905D02*
X136384997Y-124652381D01*
X136384997Y-124652381D02*
X136384997Y-125014286D01*
X136384997Y-125014286D02*
X135434997Y-125014286D01*
X135434997Y-125014286D02*
X135434997Y-124697619D01*
X135434997Y-124697619D02*
X135480235Y-124607143D01*
X135480235Y-124607143D02*
X135525473Y-124561905D01*
X135525473Y-124561905D02*
X135615949Y-124516667D01*
X135615949Y-124516667D02*
X135706425Y-124516667D01*
X135706425Y-124516667D02*
X135796901Y-124561905D01*
X135796901Y-124561905D02*
X135842139Y-124607143D01*
X135842139Y-124607143D02*
X135887378Y-124697619D01*
X135887378Y-124697619D02*
X135887378Y-125014286D01*
X135751663Y-123657143D02*
X136384997Y-123657143D01*
X135751663Y-124064286D02*
X136249282Y-124064286D01*
X136249282Y-124064286D02*
X136339759Y-124019048D01*
X136339759Y-124019048D02*
X136384997Y-123928572D01*
X136384997Y-123928572D02*
X136384997Y-123792857D01*
X136384997Y-123792857D02*
X136339759Y-123702381D01*
X136339759Y-123702381D02*
X136294520Y-123657143D01*
X135751663Y-123340476D02*
X135751663Y-122978572D01*
X135434997Y-123204762D02*
X136249282Y-123204762D01*
X136249282Y-123204762D02*
X136339759Y-123159524D01*
X136339759Y-123159524D02*
X136384997Y-123069048D01*
X136384997Y-123069048D02*
X136384997Y-122978572D01*
X135751663Y-122797619D02*
X135751663Y-122435715D01*
X135434997Y-122661905D02*
X136249282Y-122661905D01*
X136249282Y-122661905D02*
X136339759Y-122616667D01*
X136339759Y-122616667D02*
X136384997Y-122526191D01*
X136384997Y-122526191D02*
X136384997Y-122435715D01*
X136384997Y-121983334D02*
X136339759Y-122073810D01*
X136339759Y-122073810D02*
X136294520Y-122119048D01*
X136294520Y-122119048D02*
X136204044Y-122164286D01*
X136204044Y-122164286D02*
X135932616Y-122164286D01*
X135932616Y-122164286D02*
X135842139Y-122119048D01*
X135842139Y-122119048D02*
X135796901Y-122073810D01*
X135796901Y-122073810D02*
X135751663Y-121983334D01*
X135751663Y-121983334D02*
X135751663Y-121847619D01*
X135751663Y-121847619D02*
X135796901Y-121757143D01*
X135796901Y-121757143D02*
X135842139Y-121711905D01*
X135842139Y-121711905D02*
X135932616Y-121666667D01*
X135932616Y-121666667D02*
X136204044Y-121666667D01*
X136204044Y-121666667D02*
X136294520Y-121711905D01*
X136294520Y-121711905D02*
X136339759Y-121757143D01*
X136339759Y-121757143D02*
X136384997Y-121847619D01*
X136384997Y-121847619D02*
X136384997Y-121983334D01*
X135751663Y-121259524D02*
X136384997Y-121259524D01*
X135842139Y-121259524D02*
X135796901Y-121214286D01*
X135796901Y-121214286D02*
X135751663Y-121123810D01*
X135751663Y-121123810D02*
X135751663Y-120988095D01*
X135751663Y-120988095D02*
X135796901Y-120897619D01*
X135796901Y-120897619D02*
X135887378Y-120852381D01*
X135887378Y-120852381D02*
X136384997Y-120852381D01*
X135887378Y-119359523D02*
X135932616Y-119223809D01*
X135932616Y-119223809D02*
X135977854Y-119178571D01*
X135977854Y-119178571D02*
X136068330Y-119133333D01*
X136068330Y-119133333D02*
X136204044Y-119133333D01*
X136204044Y-119133333D02*
X136294520Y-119178571D01*
X136294520Y-119178571D02*
X136339759Y-119223809D01*
X136339759Y-119223809D02*
X136384997Y-119314285D01*
X136384997Y-119314285D02*
X136384997Y-119676190D01*
X136384997Y-119676190D02*
X135434997Y-119676190D01*
X135434997Y-119676190D02*
X135434997Y-119359523D01*
X135434997Y-119359523D02*
X135480235Y-119269047D01*
X135480235Y-119269047D02*
X135525473Y-119223809D01*
X135525473Y-119223809D02*
X135615949Y-119178571D01*
X135615949Y-119178571D02*
X135706425Y-119178571D01*
X135706425Y-119178571D02*
X135796901Y-119223809D01*
X135796901Y-119223809D02*
X135842139Y-119269047D01*
X135842139Y-119269047D02*
X135887378Y-119359523D01*
X135887378Y-119359523D02*
X135887378Y-119676190D01*
X136384997Y-118726190D02*
X135751663Y-118726190D01*
X135932616Y-118726190D02*
X135842139Y-118680952D01*
X135842139Y-118680952D02*
X135796901Y-118635714D01*
X135796901Y-118635714D02*
X135751663Y-118545238D01*
X135751663Y-118545238D02*
X135751663Y-118454761D01*
X136339759Y-117776190D02*
X136384997Y-117866666D01*
X136384997Y-117866666D02*
X136384997Y-118047619D01*
X136384997Y-118047619D02*
X136339759Y-118138095D01*
X136339759Y-118138095D02*
X136249282Y-118183333D01*
X136249282Y-118183333D02*
X135887378Y-118183333D01*
X135887378Y-118183333D02*
X135796901Y-118138095D01*
X135796901Y-118138095D02*
X135751663Y-118047619D01*
X135751663Y-118047619D02*
X135751663Y-117866666D01*
X135751663Y-117866666D02*
X135796901Y-117776190D01*
X135796901Y-117776190D02*
X135887378Y-117730952D01*
X135887378Y-117730952D02*
X135977854Y-117730952D01*
X135977854Y-117730952D02*
X136068330Y-118183333D01*
X136384997Y-116916666D02*
X135887378Y-116916666D01*
X135887378Y-116916666D02*
X135796901Y-116961904D01*
X135796901Y-116961904D02*
X135751663Y-117052380D01*
X135751663Y-117052380D02*
X135751663Y-117233333D01*
X135751663Y-117233333D02*
X135796901Y-117323809D01*
X136339759Y-116916666D02*
X136384997Y-117007142D01*
X136384997Y-117007142D02*
X136384997Y-117233333D01*
X136384997Y-117233333D02*
X136339759Y-117323809D01*
X136339759Y-117323809D02*
X136249282Y-117369047D01*
X136249282Y-117369047D02*
X136158806Y-117369047D01*
X136158806Y-117369047D02*
X136068330Y-117323809D01*
X136068330Y-117323809D02*
X136023092Y-117233333D01*
X136023092Y-117233333D02*
X136023092Y-117007142D01*
X136023092Y-117007142D02*
X135977854Y-116916666D01*
X136384997Y-116464285D02*
X135434997Y-116464285D01*
X136023092Y-116373809D02*
X136384997Y-116102380D01*
X135751663Y-116102380D02*
X136113568Y-116464285D01*
X136384997Y-115559523D02*
X136339759Y-115649999D01*
X136339759Y-115649999D02*
X136294520Y-115695237D01*
X136294520Y-115695237D02*
X136204044Y-115740475D01*
X136204044Y-115740475D02*
X135932616Y-115740475D01*
X135932616Y-115740475D02*
X135842139Y-115695237D01*
X135842139Y-115695237D02*
X135796901Y-115649999D01*
X135796901Y-115649999D02*
X135751663Y-115559523D01*
X135751663Y-115559523D02*
X135751663Y-115423808D01*
X135751663Y-115423808D02*
X135796901Y-115333332D01*
X135796901Y-115333332D02*
X135842139Y-115288094D01*
X135842139Y-115288094D02*
X135932616Y-115242856D01*
X135932616Y-115242856D02*
X136204044Y-115242856D01*
X136204044Y-115242856D02*
X136294520Y-115288094D01*
X136294520Y-115288094D02*
X136339759Y-115333332D01*
X136339759Y-115333332D02*
X136384997Y-115423808D01*
X136384997Y-115423808D02*
X136384997Y-115559523D01*
X135751663Y-114428570D02*
X136384997Y-114428570D01*
X135751663Y-114835713D02*
X136249282Y-114835713D01*
X136249282Y-114835713D02*
X136339759Y-114790475D01*
X136339759Y-114790475D02*
X136384997Y-114699999D01*
X136384997Y-114699999D02*
X136384997Y-114564284D01*
X136384997Y-114564284D02*
X136339759Y-114473808D01*
X136339759Y-114473808D02*
X136294520Y-114428570D01*
X135751663Y-114111903D02*
X135751663Y-113749999D01*
X135434997Y-113976189D02*
X136249282Y-113976189D01*
X136249282Y-113976189D02*
X136339759Y-113930951D01*
X136339759Y-113930951D02*
X136384997Y-113840475D01*
X136384997Y-113840475D02*
X136384997Y-113749999D01*
X136964444Y-125308334D02*
X136964444Y-124765477D01*
X137914444Y-125036906D02*
X136964444Y-125036906D01*
X137914444Y-124313096D02*
X137869206Y-124403572D01*
X137869206Y-124403572D02*
X137823967Y-124448810D01*
X137823967Y-124448810D02*
X137733491Y-124494048D01*
X137733491Y-124494048D02*
X137462063Y-124494048D01*
X137462063Y-124494048D02*
X137371586Y-124448810D01*
X137371586Y-124448810D02*
X137326348Y-124403572D01*
X137326348Y-124403572D02*
X137281110Y-124313096D01*
X137281110Y-124313096D02*
X137281110Y-124177381D01*
X137281110Y-124177381D02*
X137326348Y-124086905D01*
X137326348Y-124086905D02*
X137371586Y-124041667D01*
X137371586Y-124041667D02*
X137462063Y-123996429D01*
X137462063Y-123996429D02*
X137733491Y-123996429D01*
X137733491Y-123996429D02*
X137823967Y-124041667D01*
X137823967Y-124041667D02*
X137869206Y-124086905D01*
X137869206Y-124086905D02*
X137914444Y-124177381D01*
X137914444Y-124177381D02*
X137914444Y-124313096D01*
X137643015Y-122910714D02*
X137643015Y-122458333D01*
X137914444Y-123001190D02*
X136964444Y-122684524D01*
X136964444Y-122684524D02*
X137914444Y-122367857D01*
X137281110Y-122051190D02*
X137914444Y-122051190D01*
X137371586Y-122051190D02*
X137326348Y-122005952D01*
X137326348Y-122005952D02*
X137281110Y-121915476D01*
X137281110Y-121915476D02*
X137281110Y-121779761D01*
X137281110Y-121779761D02*
X137326348Y-121689285D01*
X137326348Y-121689285D02*
X137416825Y-121644047D01*
X137416825Y-121644047D02*
X137914444Y-121644047D01*
X137914444Y-120784523D02*
X137416825Y-120784523D01*
X137416825Y-120784523D02*
X137326348Y-120829761D01*
X137326348Y-120829761D02*
X137281110Y-120920237D01*
X137281110Y-120920237D02*
X137281110Y-121101190D01*
X137281110Y-121101190D02*
X137326348Y-121191666D01*
X137869206Y-120784523D02*
X137914444Y-120874999D01*
X137914444Y-120874999D02*
X137914444Y-121101190D01*
X137914444Y-121101190D02*
X137869206Y-121191666D01*
X137869206Y-121191666D02*
X137778729Y-121236904D01*
X137778729Y-121236904D02*
X137688253Y-121236904D01*
X137688253Y-121236904D02*
X137597777Y-121191666D01*
X137597777Y-121191666D02*
X137552539Y-121101190D01*
X137552539Y-121101190D02*
X137552539Y-120874999D01*
X137552539Y-120874999D02*
X137507301Y-120784523D01*
X137914444Y-120196428D02*
X137869206Y-120286904D01*
X137869206Y-120286904D02*
X137778729Y-120332142D01*
X137778729Y-120332142D02*
X136964444Y-120332142D01*
X137914444Y-119698809D02*
X137869206Y-119789285D01*
X137869206Y-119789285D02*
X137823967Y-119834523D01*
X137823967Y-119834523D02*
X137733491Y-119879761D01*
X137733491Y-119879761D02*
X137462063Y-119879761D01*
X137462063Y-119879761D02*
X137371586Y-119834523D01*
X137371586Y-119834523D02*
X137326348Y-119789285D01*
X137326348Y-119789285D02*
X137281110Y-119698809D01*
X137281110Y-119698809D02*
X137281110Y-119563094D01*
X137281110Y-119563094D02*
X137326348Y-119472618D01*
X137326348Y-119472618D02*
X137371586Y-119427380D01*
X137371586Y-119427380D02*
X137462063Y-119382142D01*
X137462063Y-119382142D02*
X137733491Y-119382142D01*
X137733491Y-119382142D02*
X137823967Y-119427380D01*
X137823967Y-119427380D02*
X137869206Y-119472618D01*
X137869206Y-119472618D02*
X137914444Y-119563094D01*
X137914444Y-119563094D02*
X137914444Y-119698809D01*
X137281110Y-118567856D02*
X138050158Y-118567856D01*
X138050158Y-118567856D02*
X138140634Y-118613094D01*
X138140634Y-118613094D02*
X138185872Y-118658332D01*
X138185872Y-118658332D02*
X138231110Y-118748809D01*
X138231110Y-118748809D02*
X138231110Y-118884523D01*
X138231110Y-118884523D02*
X138185872Y-118974999D01*
X137869206Y-118567856D02*
X137914444Y-118658332D01*
X137914444Y-118658332D02*
X137914444Y-118839285D01*
X137914444Y-118839285D02*
X137869206Y-118929761D01*
X137869206Y-118929761D02*
X137823967Y-118974999D01*
X137823967Y-118974999D02*
X137733491Y-119020237D01*
X137733491Y-119020237D02*
X137462063Y-119020237D01*
X137462063Y-119020237D02*
X137371586Y-118974999D01*
X137371586Y-118974999D02*
X137326348Y-118929761D01*
X137326348Y-118929761D02*
X137281110Y-118839285D01*
X137281110Y-118839285D02*
X137281110Y-118658332D01*
X137281110Y-118658332D02*
X137326348Y-118567856D01*
X137416825Y-117074998D02*
X137462063Y-116939284D01*
X137462063Y-116939284D02*
X137507301Y-116894046D01*
X137507301Y-116894046D02*
X137597777Y-116848808D01*
X137597777Y-116848808D02*
X137733491Y-116848808D01*
X137733491Y-116848808D02*
X137823967Y-116894046D01*
X137823967Y-116894046D02*
X137869206Y-116939284D01*
X137869206Y-116939284D02*
X137914444Y-117029760D01*
X137914444Y-117029760D02*
X137914444Y-117391665D01*
X137914444Y-117391665D02*
X136964444Y-117391665D01*
X136964444Y-117391665D02*
X136964444Y-117074998D01*
X136964444Y-117074998D02*
X137009682Y-116984522D01*
X137009682Y-116984522D02*
X137054920Y-116939284D01*
X137054920Y-116939284D02*
X137145396Y-116894046D01*
X137145396Y-116894046D02*
X137235872Y-116894046D01*
X137235872Y-116894046D02*
X137326348Y-116939284D01*
X137326348Y-116939284D02*
X137371586Y-116984522D01*
X137371586Y-116984522D02*
X137416825Y-117074998D01*
X137416825Y-117074998D02*
X137416825Y-117391665D01*
X137914444Y-116305951D02*
X137869206Y-116396427D01*
X137869206Y-116396427D02*
X137823967Y-116441665D01*
X137823967Y-116441665D02*
X137733491Y-116486903D01*
X137733491Y-116486903D02*
X137462063Y-116486903D01*
X137462063Y-116486903D02*
X137371586Y-116441665D01*
X137371586Y-116441665D02*
X137326348Y-116396427D01*
X137326348Y-116396427D02*
X137281110Y-116305951D01*
X137281110Y-116305951D02*
X137281110Y-116170236D01*
X137281110Y-116170236D02*
X137326348Y-116079760D01*
X137326348Y-116079760D02*
X137371586Y-116034522D01*
X137371586Y-116034522D02*
X137462063Y-115989284D01*
X137462063Y-115989284D02*
X137733491Y-115989284D01*
X137733491Y-115989284D02*
X137823967Y-116034522D01*
X137823967Y-116034522D02*
X137869206Y-116079760D01*
X137869206Y-116079760D02*
X137914444Y-116170236D01*
X137914444Y-116170236D02*
X137914444Y-116305951D01*
X137914444Y-115174998D02*
X137416825Y-115174998D01*
X137416825Y-115174998D02*
X137326348Y-115220236D01*
X137326348Y-115220236D02*
X137281110Y-115310712D01*
X137281110Y-115310712D02*
X137281110Y-115491665D01*
X137281110Y-115491665D02*
X137326348Y-115582141D01*
X137869206Y-115174998D02*
X137914444Y-115265474D01*
X137914444Y-115265474D02*
X137914444Y-115491665D01*
X137914444Y-115491665D02*
X137869206Y-115582141D01*
X137869206Y-115582141D02*
X137778729Y-115627379D01*
X137778729Y-115627379D02*
X137688253Y-115627379D01*
X137688253Y-115627379D02*
X137597777Y-115582141D01*
X137597777Y-115582141D02*
X137552539Y-115491665D01*
X137552539Y-115491665D02*
X137552539Y-115265474D01*
X137552539Y-115265474D02*
X137507301Y-115174998D01*
X137914444Y-114722617D02*
X137281110Y-114722617D01*
X137462063Y-114722617D02*
X137371586Y-114677379D01*
X137371586Y-114677379D02*
X137326348Y-114632141D01*
X137326348Y-114632141D02*
X137281110Y-114541665D01*
X137281110Y-114541665D02*
X137281110Y-114451188D01*
X137914444Y-113727379D02*
X136964444Y-113727379D01*
X137869206Y-113727379D02*
X137914444Y-113817855D01*
X137914444Y-113817855D02*
X137914444Y-113998808D01*
X137914444Y-113998808D02*
X137869206Y-114089284D01*
X137869206Y-114089284D02*
X137823967Y-114134522D01*
X137823967Y-114134522D02*
X137733491Y-114179760D01*
X137733491Y-114179760D02*
X137462063Y-114179760D01*
X137462063Y-114179760D02*
X137371586Y-114134522D01*
X137371586Y-114134522D02*
X137326348Y-114089284D01*
X137326348Y-114089284D02*
X137281110Y-113998808D01*
X137281110Y-113998808D02*
X137281110Y-113817855D01*
X137281110Y-113817855D02*
X137326348Y-113727379D01*
X139353414Y-122797619D02*
X139398653Y-122842857D01*
X139398653Y-122842857D02*
X139443891Y-122978571D01*
X139443891Y-122978571D02*
X139443891Y-123069047D01*
X139443891Y-123069047D02*
X139398653Y-123204762D01*
X139398653Y-123204762D02*
X139308176Y-123295238D01*
X139308176Y-123295238D02*
X139217700Y-123340476D01*
X139217700Y-123340476D02*
X139036748Y-123385714D01*
X139036748Y-123385714D02*
X138901033Y-123385714D01*
X138901033Y-123385714D02*
X138720081Y-123340476D01*
X138720081Y-123340476D02*
X138629605Y-123295238D01*
X138629605Y-123295238D02*
X138539129Y-123204762D01*
X138539129Y-123204762D02*
X138493891Y-123069047D01*
X138493891Y-123069047D02*
X138493891Y-122978571D01*
X138493891Y-122978571D02*
X138539129Y-122842857D01*
X138539129Y-122842857D02*
X138584367Y-122797619D01*
X139443891Y-122390476D02*
X138493891Y-122390476D01*
X138493891Y-122390476D02*
X139172462Y-122073809D01*
X139172462Y-122073809D02*
X138493891Y-121757143D01*
X138493891Y-121757143D02*
X139443891Y-121757143D01*
X139398653Y-121350000D02*
X139443891Y-121214286D01*
X139443891Y-121214286D02*
X139443891Y-120988095D01*
X139443891Y-120988095D02*
X139398653Y-120897619D01*
X139398653Y-120897619D02*
X139353414Y-120852381D01*
X139353414Y-120852381D02*
X139262938Y-120807143D01*
X139262938Y-120807143D02*
X139172462Y-120807143D01*
X139172462Y-120807143D02*
X139081986Y-120852381D01*
X139081986Y-120852381D02*
X139036748Y-120897619D01*
X139036748Y-120897619D02*
X138991510Y-120988095D01*
X138991510Y-120988095D02*
X138946272Y-121169048D01*
X138946272Y-121169048D02*
X138901033Y-121259524D01*
X138901033Y-121259524D02*
X138855795Y-121304762D01*
X138855795Y-121304762D02*
X138765319Y-121350000D01*
X138765319Y-121350000D02*
X138674843Y-121350000D01*
X138674843Y-121350000D02*
X138584367Y-121304762D01*
X138584367Y-121304762D02*
X138539129Y-121259524D01*
X138539129Y-121259524D02*
X138493891Y-121169048D01*
X138493891Y-121169048D02*
X138493891Y-120942857D01*
X138493891Y-120942857D02*
X138539129Y-120807143D01*
X139353414Y-119857143D02*
X139398653Y-119902381D01*
X139398653Y-119902381D02*
X139443891Y-120038095D01*
X139443891Y-120038095D02*
X139443891Y-120128571D01*
X139443891Y-120128571D02*
X139398653Y-120264286D01*
X139398653Y-120264286D02*
X139308176Y-120354762D01*
X139308176Y-120354762D02*
X139217700Y-120400000D01*
X139217700Y-120400000D02*
X139036748Y-120445238D01*
X139036748Y-120445238D02*
X138901033Y-120445238D01*
X138901033Y-120445238D02*
X138720081Y-120400000D01*
X138720081Y-120400000D02*
X138629605Y-120354762D01*
X138629605Y-120354762D02*
X138539129Y-120264286D01*
X138539129Y-120264286D02*
X138493891Y-120128571D01*
X138493891Y-120128571D02*
X138493891Y-120038095D01*
X138493891Y-120038095D02*
X138539129Y-119902381D01*
X138539129Y-119902381D02*
X138584367Y-119857143D01*
X138584367Y-118771428D02*
X138539129Y-118726190D01*
X138539129Y-118726190D02*
X138493891Y-118635714D01*
X138493891Y-118635714D02*
X138493891Y-118409523D01*
X138493891Y-118409523D02*
X138539129Y-118319047D01*
X138539129Y-118319047D02*
X138584367Y-118273809D01*
X138584367Y-118273809D02*
X138674843Y-118228571D01*
X138674843Y-118228571D02*
X138765319Y-118228571D01*
X138765319Y-118228571D02*
X138901033Y-118273809D01*
X138901033Y-118273809D02*
X139443891Y-118816666D01*
X139443891Y-118816666D02*
X139443891Y-118228571D01*
X138493891Y-117640476D02*
X138493891Y-117549999D01*
X138493891Y-117549999D02*
X138539129Y-117459523D01*
X138539129Y-117459523D02*
X138584367Y-117414285D01*
X138584367Y-117414285D02*
X138674843Y-117369047D01*
X138674843Y-117369047D02*
X138855795Y-117323809D01*
X138855795Y-117323809D02*
X139081986Y-117323809D01*
X139081986Y-117323809D02*
X139262938Y-117369047D01*
X139262938Y-117369047D02*
X139353414Y-117414285D01*
X139353414Y-117414285D02*
X139398653Y-117459523D01*
X139398653Y-117459523D02*
X139443891Y-117549999D01*
X139443891Y-117549999D02*
X139443891Y-117640476D01*
X139443891Y-117640476D02*
X139398653Y-117730952D01*
X139398653Y-117730952D02*
X139353414Y-117776190D01*
X139353414Y-117776190D02*
X139262938Y-117821428D01*
X139262938Y-117821428D02*
X139081986Y-117866666D01*
X139081986Y-117866666D02*
X138855795Y-117866666D01*
X138855795Y-117866666D02*
X138674843Y-117821428D01*
X138674843Y-117821428D02*
X138584367Y-117776190D01*
X138584367Y-117776190D02*
X138539129Y-117730952D01*
X138539129Y-117730952D02*
X138493891Y-117640476D01*
X138584367Y-116961904D02*
X138539129Y-116916666D01*
X138539129Y-116916666D02*
X138493891Y-116826190D01*
X138493891Y-116826190D02*
X138493891Y-116599999D01*
X138493891Y-116599999D02*
X138539129Y-116509523D01*
X138539129Y-116509523D02*
X138584367Y-116464285D01*
X138584367Y-116464285D02*
X138674843Y-116419047D01*
X138674843Y-116419047D02*
X138765319Y-116419047D01*
X138765319Y-116419047D02*
X138901033Y-116464285D01*
X138901033Y-116464285D02*
X139443891Y-117007142D01*
X139443891Y-117007142D02*
X139443891Y-116419047D01*
X138493891Y-115604761D02*
X138493891Y-115785714D01*
X138493891Y-115785714D02*
X138539129Y-115876190D01*
X138539129Y-115876190D02*
X138584367Y-115921428D01*
X138584367Y-115921428D02*
X138720081Y-116011904D01*
X138720081Y-116011904D02*
X138901033Y-116057142D01*
X138901033Y-116057142D02*
X139262938Y-116057142D01*
X139262938Y-116057142D02*
X139353414Y-116011904D01*
X139353414Y-116011904D02*
X139398653Y-115966666D01*
X139398653Y-115966666D02*
X139443891Y-115876190D01*
X139443891Y-115876190D02*
X139443891Y-115695237D01*
X139443891Y-115695237D02*
X139398653Y-115604761D01*
X139398653Y-115604761D02*
X139353414Y-115559523D01*
X139353414Y-115559523D02*
X139262938Y-115514285D01*
X139262938Y-115514285D02*
X139036748Y-115514285D01*
X139036748Y-115514285D02*
X138946272Y-115559523D01*
X138946272Y-115559523D02*
X138901033Y-115604761D01*
X138901033Y-115604761D02*
X138855795Y-115695237D01*
X138855795Y-115695237D02*
X138855795Y-115876190D01*
X138855795Y-115876190D02*
X138901033Y-115966666D01*
X138901033Y-115966666D02*
X138946272Y-116011904D01*
X138946272Y-116011904D02*
X139036748Y-116057142D01*
X140973338Y-123634524D02*
X140023338Y-123634524D01*
X140023338Y-123634524D02*
X140973338Y-123091667D01*
X140973338Y-123091667D02*
X140023338Y-123091667D01*
X140973338Y-122232143D02*
X140475719Y-122232143D01*
X140475719Y-122232143D02*
X140385242Y-122277381D01*
X140385242Y-122277381D02*
X140340004Y-122367857D01*
X140340004Y-122367857D02*
X140340004Y-122548810D01*
X140340004Y-122548810D02*
X140385242Y-122639286D01*
X140928100Y-122232143D02*
X140973338Y-122322619D01*
X140973338Y-122322619D02*
X140973338Y-122548810D01*
X140973338Y-122548810D02*
X140928100Y-122639286D01*
X140928100Y-122639286D02*
X140837623Y-122684524D01*
X140837623Y-122684524D02*
X140747147Y-122684524D01*
X140747147Y-122684524D02*
X140656671Y-122639286D01*
X140656671Y-122639286D02*
X140611433Y-122548810D01*
X140611433Y-122548810D02*
X140611433Y-122322619D01*
X140611433Y-122322619D02*
X140566195Y-122232143D01*
X140340004Y-121915476D02*
X140340004Y-121553572D01*
X140023338Y-121779762D02*
X140837623Y-121779762D01*
X140837623Y-121779762D02*
X140928100Y-121734524D01*
X140928100Y-121734524D02*
X140973338Y-121644048D01*
X140973338Y-121644048D02*
X140973338Y-121553572D01*
X140973338Y-121236905D02*
X140023338Y-121236905D01*
X140973338Y-120829762D02*
X140475719Y-120829762D01*
X140475719Y-120829762D02*
X140385242Y-120875000D01*
X140385242Y-120875000D02*
X140340004Y-120965476D01*
X140340004Y-120965476D02*
X140340004Y-121101191D01*
X140340004Y-121101191D02*
X140385242Y-121191667D01*
X140385242Y-121191667D02*
X140430480Y-121236905D01*
X140973338Y-119970238D02*
X140475719Y-119970238D01*
X140475719Y-119970238D02*
X140385242Y-120015476D01*
X140385242Y-120015476D02*
X140340004Y-120105952D01*
X140340004Y-120105952D02*
X140340004Y-120286905D01*
X140340004Y-120286905D02*
X140385242Y-120377381D01*
X140928100Y-119970238D02*
X140973338Y-120060714D01*
X140973338Y-120060714D02*
X140973338Y-120286905D01*
X140973338Y-120286905D02*
X140928100Y-120377381D01*
X140928100Y-120377381D02*
X140837623Y-120422619D01*
X140837623Y-120422619D02*
X140747147Y-120422619D01*
X140747147Y-120422619D02*
X140656671Y-120377381D01*
X140656671Y-120377381D02*
X140611433Y-120286905D01*
X140611433Y-120286905D02*
X140611433Y-120060714D01*
X140611433Y-120060714D02*
X140566195Y-119970238D01*
X140340004Y-119517857D02*
X140973338Y-119517857D01*
X140430480Y-119517857D02*
X140385242Y-119472619D01*
X140385242Y-119472619D02*
X140340004Y-119382143D01*
X140340004Y-119382143D02*
X140340004Y-119246428D01*
X140340004Y-119246428D02*
X140385242Y-119155952D01*
X140385242Y-119155952D02*
X140475719Y-119110714D01*
X140475719Y-119110714D02*
X140973338Y-119110714D01*
X140475719Y-117617856D02*
X140475719Y-117934523D01*
X140973338Y-117934523D02*
X140023338Y-117934523D01*
X140023338Y-117934523D02*
X140023338Y-117482142D01*
X140973338Y-116984523D02*
X140928100Y-117074999D01*
X140928100Y-117074999D02*
X140882861Y-117120237D01*
X140882861Y-117120237D02*
X140792385Y-117165475D01*
X140792385Y-117165475D02*
X140520957Y-117165475D01*
X140520957Y-117165475D02*
X140430480Y-117120237D01*
X140430480Y-117120237D02*
X140385242Y-117074999D01*
X140385242Y-117074999D02*
X140340004Y-116984523D01*
X140340004Y-116984523D02*
X140340004Y-116848808D01*
X140340004Y-116848808D02*
X140385242Y-116758332D01*
X140385242Y-116758332D02*
X140430480Y-116713094D01*
X140430480Y-116713094D02*
X140520957Y-116667856D01*
X140520957Y-116667856D02*
X140792385Y-116667856D01*
X140792385Y-116667856D02*
X140882861Y-116713094D01*
X140882861Y-116713094D02*
X140928100Y-116758332D01*
X140928100Y-116758332D02*
X140973338Y-116848808D01*
X140973338Y-116848808D02*
X140973338Y-116984523D01*
X140973338Y-116260713D02*
X140340004Y-116260713D01*
X140520957Y-116260713D02*
X140430480Y-116215475D01*
X140430480Y-116215475D02*
X140385242Y-116170237D01*
X140385242Y-116170237D02*
X140340004Y-116079761D01*
X140340004Y-116079761D02*
X140340004Y-115989284D01*
X140973338Y-115265475D02*
X140023338Y-115265475D01*
X140928100Y-115265475D02*
X140973338Y-115355951D01*
X140973338Y-115355951D02*
X140973338Y-115536904D01*
X140973338Y-115536904D02*
X140928100Y-115627380D01*
X140928100Y-115627380D02*
X140882861Y-115672618D01*
X140882861Y-115672618D02*
X140792385Y-115717856D01*
X140792385Y-115717856D02*
X140520957Y-115717856D01*
X140520957Y-115717856D02*
X140430480Y-115672618D01*
X140430480Y-115672618D02*
X140385242Y-115627380D01*
X140385242Y-115627380D02*
X140340004Y-115536904D01*
X140340004Y-115536904D02*
X140340004Y-115355951D01*
X140340004Y-115355951D02*
X140385242Y-115265475D01*
D12*
X120904819Y-81623333D02*
X121619104Y-81623333D01*
X121619104Y-81623333D02*
X121761961Y-81670952D01*
X121761961Y-81670952D02*
X121857200Y-81766190D01*
X121857200Y-81766190D02*
X121904819Y-81909047D01*
X121904819Y-81909047D02*
X121904819Y-82004285D01*
X120904819Y-81242380D02*
X120904819Y-80623333D01*
X120904819Y-80623333D02*
X121285771Y-80956666D01*
X121285771Y-80956666D02*
X121285771Y-80813809D01*
X121285771Y-80813809D02*
X121333390Y-80718571D01*
X121333390Y-80718571D02*
X121381009Y-80670952D01*
X121381009Y-80670952D02*
X121476247Y-80623333D01*
X121476247Y-80623333D02*
X121714342Y-80623333D01*
X121714342Y-80623333D02*
X121809580Y-80670952D01*
X121809580Y-80670952D02*
X121857200Y-80718571D01*
X121857200Y-80718571D02*
X121904819Y-80813809D01*
X121904819Y-80813809D02*
X121904819Y-81099523D01*
X121904819Y-81099523D02*
X121857200Y-81194761D01*
X121857200Y-81194761D02*
X121809580Y-81242380D01*
X103833333Y-86804819D02*
X103500000Y-86328628D01*
X103261905Y-86804819D02*
X103261905Y-85804819D01*
X103261905Y-85804819D02*
X103642857Y-85804819D01*
X103642857Y-85804819D02*
X103738095Y-85852438D01*
X103738095Y-85852438D02*
X103785714Y-85900057D01*
X103785714Y-85900057D02*
X103833333Y-85995295D01*
X103833333Y-85995295D02*
X103833333Y-86138152D01*
X103833333Y-86138152D02*
X103785714Y-86233390D01*
X103785714Y-86233390D02*
X103738095Y-86281009D01*
X103738095Y-86281009D02*
X103642857Y-86328628D01*
X103642857Y-86328628D02*
X103261905Y-86328628D01*
X104785714Y-86804819D02*
X104214286Y-86804819D01*
X104500000Y-86804819D02*
X104500000Y-85804819D01*
X104500000Y-85804819D02*
X104404762Y-85947676D01*
X104404762Y-85947676D02*
X104309524Y-86042914D01*
X104309524Y-86042914D02*
X104214286Y-86090533D01*
X123833333Y-112064819D02*
X123500000Y-111588628D01*
X123261905Y-112064819D02*
X123261905Y-111064819D01*
X123261905Y-111064819D02*
X123642857Y-111064819D01*
X123642857Y-111064819D02*
X123738095Y-111112438D01*
X123738095Y-111112438D02*
X123785714Y-111160057D01*
X123785714Y-111160057D02*
X123833333Y-111255295D01*
X123833333Y-111255295D02*
X123833333Y-111398152D01*
X123833333Y-111398152D02*
X123785714Y-111493390D01*
X123785714Y-111493390D02*
X123738095Y-111541009D01*
X123738095Y-111541009D02*
X123642857Y-111588628D01*
X123642857Y-111588628D02*
X123261905Y-111588628D01*
X124309524Y-112064819D02*
X124500000Y-112064819D01*
X124500000Y-112064819D02*
X124595238Y-112017200D01*
X124595238Y-112017200D02*
X124642857Y-111969580D01*
X124642857Y-111969580D02*
X124738095Y-111826723D01*
X124738095Y-111826723D02*
X124785714Y-111636247D01*
X124785714Y-111636247D02*
X124785714Y-111255295D01*
X124785714Y-111255295D02*
X124738095Y-111160057D01*
X124738095Y-111160057D02*
X124690476Y-111112438D01*
X124690476Y-111112438D02*
X124595238Y-111064819D01*
X124595238Y-111064819D02*
X124404762Y-111064819D01*
X124404762Y-111064819D02*
X124309524Y-111112438D01*
X124309524Y-111112438D02*
X124261905Y-111160057D01*
X124261905Y-111160057D02*
X124214286Y-111255295D01*
X124214286Y-111255295D02*
X124214286Y-111493390D01*
X124214286Y-111493390D02*
X124261905Y-111588628D01*
X124261905Y-111588628D02*
X124309524Y-111636247D01*
X124309524Y-111636247D02*
X124404762Y-111683866D01*
X124404762Y-111683866D02*
X124595238Y-111683866D01*
X124595238Y-111683866D02*
X124690476Y-111636247D01*
X124690476Y-111636247D02*
X124738095Y-111588628D01*
X124738095Y-111588628D02*
X124785714Y-111493390D01*
X113833333Y-86804819D02*
X113500000Y-86328628D01*
X113261905Y-86804819D02*
X113261905Y-85804819D01*
X113261905Y-85804819D02*
X113642857Y-85804819D01*
X113642857Y-85804819D02*
X113738095Y-85852438D01*
X113738095Y-85852438D02*
X113785714Y-85900057D01*
X113785714Y-85900057D02*
X113833333Y-85995295D01*
X113833333Y-85995295D02*
X113833333Y-86138152D01*
X113833333Y-86138152D02*
X113785714Y-86233390D01*
X113785714Y-86233390D02*
X113738095Y-86281009D01*
X113738095Y-86281009D02*
X113642857Y-86328628D01*
X113642857Y-86328628D02*
X113261905Y-86328628D01*
X114214286Y-85900057D02*
X114261905Y-85852438D01*
X114261905Y-85852438D02*
X114357143Y-85804819D01*
X114357143Y-85804819D02*
X114595238Y-85804819D01*
X114595238Y-85804819D02*
X114690476Y-85852438D01*
X114690476Y-85852438D02*
X114738095Y-85900057D01*
X114738095Y-85900057D02*
X114785714Y-85995295D01*
X114785714Y-85995295D02*
X114785714Y-86090533D01*
X114785714Y-86090533D02*
X114738095Y-86233390D01*
X114738095Y-86233390D02*
X114166667Y-86804819D01*
X114166667Y-86804819D02*
X114785714Y-86804819D01*
X103833333Y-99524819D02*
X103500000Y-99048628D01*
X103261905Y-99524819D02*
X103261905Y-98524819D01*
X103261905Y-98524819D02*
X103642857Y-98524819D01*
X103642857Y-98524819D02*
X103738095Y-98572438D01*
X103738095Y-98572438D02*
X103785714Y-98620057D01*
X103785714Y-98620057D02*
X103833333Y-98715295D01*
X103833333Y-98715295D02*
X103833333Y-98858152D01*
X103833333Y-98858152D02*
X103785714Y-98953390D01*
X103785714Y-98953390D02*
X103738095Y-99001009D01*
X103738095Y-99001009D02*
X103642857Y-99048628D01*
X103642857Y-99048628D02*
X103261905Y-99048628D01*
X104690476Y-98858152D02*
X104690476Y-99524819D01*
X104452381Y-98477200D02*
X104214286Y-99191485D01*
X104214286Y-99191485D02*
X104833333Y-99191485D01*
X100904819Y-94163333D02*
X101619104Y-94163333D01*
X101619104Y-94163333D02*
X101761961Y-94210952D01*
X101761961Y-94210952D02*
X101857200Y-94306190D01*
X101857200Y-94306190D02*
X101904819Y-94449047D01*
X101904819Y-94449047D02*
X101904819Y-94544285D01*
X101238152Y-93258571D02*
X101904819Y-93258571D01*
X100857200Y-93496666D02*
X101571485Y-93734761D01*
X101571485Y-93734761D02*
X101571485Y-93115714D01*
X110904819Y-94163333D02*
X111619104Y-94163333D01*
X111619104Y-94163333D02*
X111761961Y-94210952D01*
X111761961Y-94210952D02*
X111857200Y-94306190D01*
X111857200Y-94306190D02*
X111904819Y-94449047D01*
X111904819Y-94449047D02*
X111904819Y-94544285D01*
X110904819Y-93210952D02*
X110904819Y-93687142D01*
X110904819Y-93687142D02*
X111381009Y-93734761D01*
X111381009Y-93734761D02*
X111333390Y-93687142D01*
X111333390Y-93687142D02*
X111285771Y-93591904D01*
X111285771Y-93591904D02*
X111285771Y-93353809D01*
X111285771Y-93353809D02*
X111333390Y-93258571D01*
X111333390Y-93258571D02*
X111381009Y-93210952D01*
X111381009Y-93210952D02*
X111476247Y-93163333D01*
X111476247Y-93163333D02*
X111714342Y-93163333D01*
X111714342Y-93163333D02*
X111809580Y-93210952D01*
X111809580Y-93210952D02*
X111857200Y-93258571D01*
X111857200Y-93258571D02*
X111904819Y-93353809D01*
X111904819Y-93353809D02*
X111904819Y-93591904D01*
X111904819Y-93591904D02*
X111857200Y-93687142D01*
X111857200Y-93687142D02*
X111809580Y-93734761D01*
X120904819Y-119719523D02*
X121619104Y-119719523D01*
X121619104Y-119719523D02*
X121761961Y-119767142D01*
X121761961Y-119767142D02*
X121857200Y-119862380D01*
X121857200Y-119862380D02*
X121904819Y-120005237D01*
X121904819Y-120005237D02*
X121904819Y-120100475D01*
X121904819Y-118719523D02*
X121904819Y-119290951D01*
X121904819Y-119005237D02*
X120904819Y-119005237D01*
X120904819Y-119005237D02*
X121047676Y-119100475D01*
X121047676Y-119100475D02*
X121142914Y-119195713D01*
X121142914Y-119195713D02*
X121190533Y-119290951D01*
X121000057Y-118338570D02*
X120952438Y-118290951D01*
X120952438Y-118290951D02*
X120904819Y-118195713D01*
X120904819Y-118195713D02*
X120904819Y-117957618D01*
X120904819Y-117957618D02*
X120952438Y-117862380D01*
X120952438Y-117862380D02*
X121000057Y-117814761D01*
X121000057Y-117814761D02*
X121095295Y-117767142D01*
X121095295Y-117767142D02*
X121190533Y-117767142D01*
X121190533Y-117767142D02*
X121333390Y-117814761D01*
X121333390Y-117814761D02*
X121904819Y-118386189D01*
X121904819Y-118386189D02*
X121904819Y-117767142D01*
X100904819Y-106703333D02*
X101619104Y-106703333D01*
X101619104Y-106703333D02*
X101761961Y-106750952D01*
X101761961Y-106750952D02*
X101857200Y-106846190D01*
X101857200Y-106846190D02*
X101904819Y-106989047D01*
X101904819Y-106989047D02*
X101904819Y-107084285D01*
X100904819Y-106322380D02*
X100904819Y-105655714D01*
X100904819Y-105655714D02*
X101904819Y-106084285D01*
X100904819Y-81623333D02*
X101619104Y-81623333D01*
X101619104Y-81623333D02*
X101761961Y-81670952D01*
X101761961Y-81670952D02*
X101857200Y-81766190D01*
X101857200Y-81766190D02*
X101904819Y-81909047D01*
X101904819Y-81909047D02*
X101904819Y-82004285D01*
X101904819Y-80623333D02*
X101904819Y-81194761D01*
X101904819Y-80909047D02*
X100904819Y-80909047D01*
X100904819Y-80909047D02*
X101047676Y-81004285D01*
X101047676Y-81004285D02*
X101142914Y-81099523D01*
X101142914Y-81099523D02*
X101190533Y-81194761D01*
X126707142Y-124954819D02*
X126373809Y-124478628D01*
X126135714Y-124954819D02*
X126135714Y-123954819D01*
X126135714Y-123954819D02*
X126516666Y-123954819D01*
X126516666Y-123954819D02*
X126611904Y-124002438D01*
X126611904Y-124002438D02*
X126659523Y-124050057D01*
X126659523Y-124050057D02*
X126707142Y-124145295D01*
X126707142Y-124145295D02*
X126707142Y-124288152D01*
X126707142Y-124288152D02*
X126659523Y-124383390D01*
X126659523Y-124383390D02*
X126611904Y-124431009D01*
X126611904Y-124431009D02*
X126516666Y-124478628D01*
X126516666Y-124478628D02*
X126135714Y-124478628D01*
X127659523Y-124954819D02*
X127088095Y-124954819D01*
X127373809Y-124954819D02*
X127373809Y-123954819D01*
X127373809Y-123954819D02*
X127278571Y-124097676D01*
X127278571Y-124097676D02*
X127183333Y-124192914D01*
X127183333Y-124192914D02*
X127088095Y-124240533D01*
X128040476Y-124050057D02*
X128088095Y-124002438D01*
X128088095Y-124002438D02*
X128183333Y-123954819D01*
X128183333Y-123954819D02*
X128421428Y-123954819D01*
X128421428Y-123954819D02*
X128516666Y-124002438D01*
X128516666Y-124002438D02*
X128564285Y-124050057D01*
X128564285Y-124050057D02*
X128611904Y-124145295D01*
X128611904Y-124145295D02*
X128611904Y-124240533D01*
X128611904Y-124240533D02*
X128564285Y-124383390D01*
X128564285Y-124383390D02*
X127992857Y-124954819D01*
X127992857Y-124954819D02*
X128611904Y-124954819D01*
X123833333Y-99354819D02*
X123500000Y-98878628D01*
X123261905Y-99354819D02*
X123261905Y-98354819D01*
X123261905Y-98354819D02*
X123642857Y-98354819D01*
X123642857Y-98354819D02*
X123738095Y-98402438D01*
X123738095Y-98402438D02*
X123785714Y-98450057D01*
X123785714Y-98450057D02*
X123833333Y-98545295D01*
X123833333Y-98545295D02*
X123833333Y-98688152D01*
X123833333Y-98688152D02*
X123785714Y-98783390D01*
X123785714Y-98783390D02*
X123738095Y-98831009D01*
X123738095Y-98831009D02*
X123642857Y-98878628D01*
X123642857Y-98878628D02*
X123261905Y-98878628D01*
X124690476Y-98354819D02*
X124500000Y-98354819D01*
X124500000Y-98354819D02*
X124404762Y-98402438D01*
X124404762Y-98402438D02*
X124357143Y-98450057D01*
X124357143Y-98450057D02*
X124261905Y-98592914D01*
X124261905Y-98592914D02*
X124214286Y-98783390D01*
X124214286Y-98783390D02*
X124214286Y-99164342D01*
X124214286Y-99164342D02*
X124261905Y-99259580D01*
X124261905Y-99259580D02*
X124309524Y-99307200D01*
X124309524Y-99307200D02*
X124404762Y-99354819D01*
X124404762Y-99354819D02*
X124595238Y-99354819D01*
X124595238Y-99354819D02*
X124690476Y-99307200D01*
X124690476Y-99307200D02*
X124738095Y-99259580D01*
X124738095Y-99259580D02*
X124785714Y-99164342D01*
X124785714Y-99164342D02*
X124785714Y-98926247D01*
X124785714Y-98926247D02*
X124738095Y-98831009D01*
X124738095Y-98831009D02*
X124690476Y-98783390D01*
X124690476Y-98783390D02*
X124595238Y-98735771D01*
X124595238Y-98735771D02*
X124404762Y-98735771D01*
X124404762Y-98735771D02*
X124309524Y-98783390D01*
X124309524Y-98783390D02*
X124261905Y-98831009D01*
X124261905Y-98831009D02*
X124214286Y-98926247D01*
X134984285Y-85734819D02*
X134984285Y-86449104D01*
X134984285Y-86449104D02*
X134936666Y-86591961D01*
X134936666Y-86591961D02*
X134841428Y-86687200D01*
X134841428Y-86687200D02*
X134698571Y-86734819D01*
X134698571Y-86734819D02*
X134603333Y-86734819D01*
X135984285Y-86734819D02*
X135412857Y-86734819D01*
X135698571Y-86734819D02*
X135698571Y-85734819D01*
X135698571Y-85734819D02*
X135603333Y-85877676D01*
X135603333Y-85877676D02*
X135508095Y-85972914D01*
X135508095Y-85972914D02*
X135412857Y-86020533D01*
X136603333Y-85734819D02*
X136698571Y-85734819D01*
X136698571Y-85734819D02*
X136793809Y-85782438D01*
X136793809Y-85782438D02*
X136841428Y-85830057D01*
X136841428Y-85830057D02*
X136889047Y-85925295D01*
X136889047Y-85925295D02*
X136936666Y-86115771D01*
X136936666Y-86115771D02*
X136936666Y-86353866D01*
X136936666Y-86353866D02*
X136889047Y-86544342D01*
X136889047Y-86544342D02*
X136841428Y-86639580D01*
X136841428Y-86639580D02*
X136793809Y-86687200D01*
X136793809Y-86687200D02*
X136698571Y-86734819D01*
X136698571Y-86734819D02*
X136603333Y-86734819D01*
X136603333Y-86734819D02*
X136508095Y-86687200D01*
X136508095Y-86687200D02*
X136460476Y-86639580D01*
X136460476Y-86639580D02*
X136412857Y-86544342D01*
X136412857Y-86544342D02*
X136365238Y-86353866D01*
X136365238Y-86353866D02*
X136365238Y-86115771D01*
X136365238Y-86115771D02*
X136412857Y-85925295D01*
X136412857Y-85925295D02*
X136460476Y-85830057D01*
X136460476Y-85830057D02*
X136508095Y-85782438D01*
X136508095Y-85782438D02*
X136603333Y-85734819D01*
X137555714Y-85734819D02*
X137650952Y-85734819D01*
X137650952Y-85734819D02*
X137746190Y-85782438D01*
X137746190Y-85782438D02*
X137793809Y-85830057D01*
X137793809Y-85830057D02*
X137841428Y-85925295D01*
X137841428Y-85925295D02*
X137889047Y-86115771D01*
X137889047Y-86115771D02*
X137889047Y-86353866D01*
X137889047Y-86353866D02*
X137841428Y-86544342D01*
X137841428Y-86544342D02*
X137793809Y-86639580D01*
X137793809Y-86639580D02*
X137746190Y-86687200D01*
X137746190Y-86687200D02*
X137650952Y-86734819D01*
X137650952Y-86734819D02*
X137555714Y-86734819D01*
X137555714Y-86734819D02*
X137460476Y-86687200D01*
X137460476Y-86687200D02*
X137412857Y-86639580D01*
X137412857Y-86639580D02*
X137365238Y-86544342D01*
X137365238Y-86544342D02*
X137317619Y-86353866D01*
X137317619Y-86353866D02*
X137317619Y-86115771D01*
X137317619Y-86115771D02*
X137365238Y-85925295D01*
X137365238Y-85925295D02*
X137412857Y-85830057D01*
X137412857Y-85830057D02*
X137460476Y-85782438D01*
X137460476Y-85782438D02*
X137555714Y-85734819D01*
X103833333Y-112064819D02*
X103500000Y-111588628D01*
X103261905Y-112064819D02*
X103261905Y-111064819D01*
X103261905Y-111064819D02*
X103642857Y-111064819D01*
X103642857Y-111064819D02*
X103738095Y-111112438D01*
X103738095Y-111112438D02*
X103785714Y-111160057D01*
X103785714Y-111160057D02*
X103833333Y-111255295D01*
X103833333Y-111255295D02*
X103833333Y-111398152D01*
X103833333Y-111398152D02*
X103785714Y-111493390D01*
X103785714Y-111493390D02*
X103738095Y-111541009D01*
X103738095Y-111541009D02*
X103642857Y-111588628D01*
X103642857Y-111588628D02*
X103261905Y-111588628D01*
X104166667Y-111064819D02*
X104833333Y-111064819D01*
X104833333Y-111064819D02*
X104404762Y-112064819D01*
X113833333Y-112064819D02*
X113500000Y-111588628D01*
X113261905Y-112064819D02*
X113261905Y-111064819D01*
X113261905Y-111064819D02*
X113642857Y-111064819D01*
X113642857Y-111064819D02*
X113738095Y-111112438D01*
X113738095Y-111112438D02*
X113785714Y-111160057D01*
X113785714Y-111160057D02*
X113833333Y-111255295D01*
X113833333Y-111255295D02*
X113833333Y-111398152D01*
X113833333Y-111398152D02*
X113785714Y-111493390D01*
X113785714Y-111493390D02*
X113738095Y-111541009D01*
X113738095Y-111541009D02*
X113642857Y-111588628D01*
X113642857Y-111588628D02*
X113261905Y-111588628D01*
X114404762Y-111493390D02*
X114309524Y-111445771D01*
X114309524Y-111445771D02*
X114261905Y-111398152D01*
X114261905Y-111398152D02*
X114214286Y-111302914D01*
X114214286Y-111302914D02*
X114214286Y-111255295D01*
X114214286Y-111255295D02*
X114261905Y-111160057D01*
X114261905Y-111160057D02*
X114309524Y-111112438D01*
X114309524Y-111112438D02*
X114404762Y-111064819D01*
X114404762Y-111064819D02*
X114595238Y-111064819D01*
X114595238Y-111064819D02*
X114690476Y-111112438D01*
X114690476Y-111112438D02*
X114738095Y-111160057D01*
X114738095Y-111160057D02*
X114785714Y-111255295D01*
X114785714Y-111255295D02*
X114785714Y-111302914D01*
X114785714Y-111302914D02*
X114738095Y-111398152D01*
X114738095Y-111398152D02*
X114690476Y-111445771D01*
X114690476Y-111445771D02*
X114595238Y-111493390D01*
X114595238Y-111493390D02*
X114404762Y-111493390D01*
X114404762Y-111493390D02*
X114309524Y-111541009D01*
X114309524Y-111541009D02*
X114261905Y-111588628D01*
X114261905Y-111588628D02*
X114214286Y-111683866D01*
X114214286Y-111683866D02*
X114214286Y-111874342D01*
X114214286Y-111874342D02*
X114261905Y-111969580D01*
X114261905Y-111969580D02*
X114309524Y-112017200D01*
X114309524Y-112017200D02*
X114404762Y-112064819D01*
X114404762Y-112064819D02*
X114595238Y-112064819D01*
X114595238Y-112064819D02*
X114690476Y-112017200D01*
X114690476Y-112017200D02*
X114738095Y-111969580D01*
X114738095Y-111969580D02*
X114785714Y-111874342D01*
X114785714Y-111874342D02*
X114785714Y-111683866D01*
X114785714Y-111683866D02*
X114738095Y-111588628D01*
X114738095Y-111588628D02*
X114690476Y-111541009D01*
X114690476Y-111541009D02*
X114595238Y-111493390D01*
X110904819Y-119719523D02*
X111619104Y-119719523D01*
X111619104Y-119719523D02*
X111761961Y-119767142D01*
X111761961Y-119767142D02*
X111857200Y-119862380D01*
X111857200Y-119862380D02*
X111904819Y-120005237D01*
X111904819Y-120005237D02*
X111904819Y-120100475D01*
X111904819Y-118719523D02*
X111904819Y-119290951D01*
X111904819Y-119005237D02*
X110904819Y-119005237D01*
X110904819Y-119005237D02*
X111047676Y-119100475D01*
X111047676Y-119100475D02*
X111142914Y-119195713D01*
X111142914Y-119195713D02*
X111190533Y-119290951D01*
X111904819Y-117767142D02*
X111904819Y-118338570D01*
X111904819Y-118052856D02*
X110904819Y-118052856D01*
X110904819Y-118052856D02*
X111047676Y-118148094D01*
X111047676Y-118148094D02*
X111142914Y-118243332D01*
X111142914Y-118243332D02*
X111190533Y-118338570D01*
X120904819Y-106703333D02*
X121619104Y-106703333D01*
X121619104Y-106703333D02*
X121761961Y-106750952D01*
X121761961Y-106750952D02*
X121857200Y-106846190D01*
X121857200Y-106846190D02*
X121904819Y-106989047D01*
X121904819Y-106989047D02*
X121904819Y-107084285D01*
X121904819Y-106179523D02*
X121904819Y-105989047D01*
X121904819Y-105989047D02*
X121857200Y-105893809D01*
X121857200Y-105893809D02*
X121809580Y-105846190D01*
X121809580Y-105846190D02*
X121666723Y-105750952D01*
X121666723Y-105750952D02*
X121476247Y-105703333D01*
X121476247Y-105703333D02*
X121095295Y-105703333D01*
X121095295Y-105703333D02*
X121000057Y-105750952D01*
X121000057Y-105750952D02*
X120952438Y-105798571D01*
X120952438Y-105798571D02*
X120904819Y-105893809D01*
X120904819Y-105893809D02*
X120904819Y-106084285D01*
X120904819Y-106084285D02*
X120952438Y-106179523D01*
X120952438Y-106179523D02*
X121000057Y-106227142D01*
X121000057Y-106227142D02*
X121095295Y-106274761D01*
X121095295Y-106274761D02*
X121333390Y-106274761D01*
X121333390Y-106274761D02*
X121428628Y-106227142D01*
X121428628Y-106227142D02*
X121476247Y-106179523D01*
X121476247Y-106179523D02*
X121523866Y-106084285D01*
X121523866Y-106084285D02*
X121523866Y-105893809D01*
X121523866Y-105893809D02*
X121476247Y-105798571D01*
X121476247Y-105798571D02*
X121428628Y-105750952D01*
X121428628Y-105750952D02*
X121333390Y-105703333D01*
X120904819Y-94163333D02*
X121619104Y-94163333D01*
X121619104Y-94163333D02*
X121761961Y-94210952D01*
X121761961Y-94210952D02*
X121857200Y-94306190D01*
X121857200Y-94306190D02*
X121904819Y-94449047D01*
X121904819Y-94449047D02*
X121904819Y-94544285D01*
X120904819Y-93258571D02*
X120904819Y-93449047D01*
X120904819Y-93449047D02*
X120952438Y-93544285D01*
X120952438Y-93544285D02*
X121000057Y-93591904D01*
X121000057Y-93591904D02*
X121142914Y-93687142D01*
X121142914Y-93687142D02*
X121333390Y-93734761D01*
X121333390Y-93734761D02*
X121714342Y-93734761D01*
X121714342Y-93734761D02*
X121809580Y-93687142D01*
X121809580Y-93687142D02*
X121857200Y-93639523D01*
X121857200Y-93639523D02*
X121904819Y-93544285D01*
X121904819Y-93544285D02*
X121904819Y-93353809D01*
X121904819Y-93353809D02*
X121857200Y-93258571D01*
X121857200Y-93258571D02*
X121809580Y-93210952D01*
X121809580Y-93210952D02*
X121714342Y-93163333D01*
X121714342Y-93163333D02*
X121476247Y-93163333D01*
X121476247Y-93163333D02*
X121381009Y-93210952D01*
X121381009Y-93210952D02*
X121333390Y-93258571D01*
X121333390Y-93258571D02*
X121285771Y-93353809D01*
X121285771Y-93353809D02*
X121285771Y-93544285D01*
X121285771Y-93544285D02*
X121333390Y-93639523D01*
X121333390Y-93639523D02*
X121381009Y-93687142D01*
X121381009Y-93687142D02*
X121476247Y-93734761D01*
X110904819Y-106703333D02*
X111619104Y-106703333D01*
X111619104Y-106703333D02*
X111761961Y-106750952D01*
X111761961Y-106750952D02*
X111857200Y-106846190D01*
X111857200Y-106846190D02*
X111904819Y-106989047D01*
X111904819Y-106989047D02*
X111904819Y-107084285D01*
X111333390Y-106084285D02*
X111285771Y-106179523D01*
X111285771Y-106179523D02*
X111238152Y-106227142D01*
X111238152Y-106227142D02*
X111142914Y-106274761D01*
X111142914Y-106274761D02*
X111095295Y-106274761D01*
X111095295Y-106274761D02*
X111000057Y-106227142D01*
X111000057Y-106227142D02*
X110952438Y-106179523D01*
X110952438Y-106179523D02*
X110904819Y-106084285D01*
X110904819Y-106084285D02*
X110904819Y-105893809D01*
X110904819Y-105893809D02*
X110952438Y-105798571D01*
X110952438Y-105798571D02*
X111000057Y-105750952D01*
X111000057Y-105750952D02*
X111095295Y-105703333D01*
X111095295Y-105703333D02*
X111142914Y-105703333D01*
X111142914Y-105703333D02*
X111238152Y-105750952D01*
X111238152Y-105750952D02*
X111285771Y-105798571D01*
X111285771Y-105798571D02*
X111333390Y-105893809D01*
X111333390Y-105893809D02*
X111333390Y-106084285D01*
X111333390Y-106084285D02*
X111381009Y-106179523D01*
X111381009Y-106179523D02*
X111428628Y-106227142D01*
X111428628Y-106227142D02*
X111523866Y-106274761D01*
X111523866Y-106274761D02*
X111714342Y-106274761D01*
X111714342Y-106274761D02*
X111809580Y-106227142D01*
X111809580Y-106227142D02*
X111857200Y-106179523D01*
X111857200Y-106179523D02*
X111904819Y-106084285D01*
X111904819Y-106084285D02*
X111904819Y-105893809D01*
X111904819Y-105893809D02*
X111857200Y-105798571D01*
X111857200Y-105798571D02*
X111809580Y-105750952D01*
X111809580Y-105750952D02*
X111714342Y-105703333D01*
X111714342Y-105703333D02*
X111523866Y-105703333D01*
X111523866Y-105703333D02*
X111428628Y-105750952D01*
X111428628Y-105750952D02*
X111381009Y-105798571D01*
X111381009Y-105798571D02*
X111333390Y-105893809D01*
X110904819Y-81623333D02*
X111619104Y-81623333D01*
X111619104Y-81623333D02*
X111761961Y-81670952D01*
X111761961Y-81670952D02*
X111857200Y-81766190D01*
X111857200Y-81766190D02*
X111904819Y-81909047D01*
X111904819Y-81909047D02*
X111904819Y-82004285D01*
X111000057Y-81194761D02*
X110952438Y-81147142D01*
X110952438Y-81147142D02*
X110904819Y-81051904D01*
X110904819Y-81051904D02*
X110904819Y-80813809D01*
X110904819Y-80813809D02*
X110952438Y-80718571D01*
X110952438Y-80718571D02*
X111000057Y-80670952D01*
X111000057Y-80670952D02*
X111095295Y-80623333D01*
X111095295Y-80623333D02*
X111190533Y-80623333D01*
X111190533Y-80623333D02*
X111333390Y-80670952D01*
X111333390Y-80670952D02*
X111904819Y-81242380D01*
X111904819Y-81242380D02*
X111904819Y-80623333D01*
X123833333Y-86804819D02*
X123500000Y-86328628D01*
X123261905Y-86804819D02*
X123261905Y-85804819D01*
X123261905Y-85804819D02*
X123642857Y-85804819D01*
X123642857Y-85804819D02*
X123738095Y-85852438D01*
X123738095Y-85852438D02*
X123785714Y-85900057D01*
X123785714Y-85900057D02*
X123833333Y-85995295D01*
X123833333Y-85995295D02*
X123833333Y-86138152D01*
X123833333Y-86138152D02*
X123785714Y-86233390D01*
X123785714Y-86233390D02*
X123738095Y-86281009D01*
X123738095Y-86281009D02*
X123642857Y-86328628D01*
X123642857Y-86328628D02*
X123261905Y-86328628D01*
X124166667Y-85804819D02*
X124785714Y-85804819D01*
X124785714Y-85804819D02*
X124452381Y-86185771D01*
X124452381Y-86185771D02*
X124595238Y-86185771D01*
X124595238Y-86185771D02*
X124690476Y-86233390D01*
X124690476Y-86233390D02*
X124738095Y-86281009D01*
X124738095Y-86281009D02*
X124785714Y-86376247D01*
X124785714Y-86376247D02*
X124785714Y-86614342D01*
X124785714Y-86614342D02*
X124738095Y-86709580D01*
X124738095Y-86709580D02*
X124690476Y-86757200D01*
X124690476Y-86757200D02*
X124595238Y-86804819D01*
X124595238Y-86804819D02*
X124309524Y-86804819D01*
X124309524Y-86804819D02*
X124214286Y-86757200D01*
X124214286Y-86757200D02*
X124166667Y-86709580D01*
X116707142Y-124904819D02*
X116373809Y-124428628D01*
X116135714Y-124904819D02*
X116135714Y-123904819D01*
X116135714Y-123904819D02*
X116516666Y-123904819D01*
X116516666Y-123904819D02*
X116611904Y-123952438D01*
X116611904Y-123952438D02*
X116659523Y-124000057D01*
X116659523Y-124000057D02*
X116707142Y-124095295D01*
X116707142Y-124095295D02*
X116707142Y-124238152D01*
X116707142Y-124238152D02*
X116659523Y-124333390D01*
X116659523Y-124333390D02*
X116611904Y-124381009D01*
X116611904Y-124381009D02*
X116516666Y-124428628D01*
X116516666Y-124428628D02*
X116135714Y-124428628D01*
X117659523Y-124904819D02*
X117088095Y-124904819D01*
X117373809Y-124904819D02*
X117373809Y-123904819D01*
X117373809Y-123904819D02*
X117278571Y-124047676D01*
X117278571Y-124047676D02*
X117183333Y-124142914D01*
X117183333Y-124142914D02*
X117088095Y-124190533D01*
X118611904Y-124904819D02*
X118040476Y-124904819D01*
X118326190Y-124904819D02*
X118326190Y-123904819D01*
X118326190Y-123904819D02*
X118230952Y-124047676D01*
X118230952Y-124047676D02*
X118135714Y-124142914D01*
X118135714Y-124142914D02*
X118040476Y-124190533D01*
X113833333Y-99454819D02*
X113500000Y-98978628D01*
X113261905Y-99454819D02*
X113261905Y-98454819D01*
X113261905Y-98454819D02*
X113642857Y-98454819D01*
X113642857Y-98454819D02*
X113738095Y-98502438D01*
X113738095Y-98502438D02*
X113785714Y-98550057D01*
X113785714Y-98550057D02*
X113833333Y-98645295D01*
X113833333Y-98645295D02*
X113833333Y-98788152D01*
X113833333Y-98788152D02*
X113785714Y-98883390D01*
X113785714Y-98883390D02*
X113738095Y-98931009D01*
X113738095Y-98931009D02*
X113642857Y-98978628D01*
X113642857Y-98978628D02*
X113261905Y-98978628D01*
X114738095Y-98454819D02*
X114261905Y-98454819D01*
X114261905Y-98454819D02*
X114214286Y-98931009D01*
X114214286Y-98931009D02*
X114261905Y-98883390D01*
X114261905Y-98883390D02*
X114357143Y-98835771D01*
X114357143Y-98835771D02*
X114595238Y-98835771D01*
X114595238Y-98835771D02*
X114690476Y-98883390D01*
X114690476Y-98883390D02*
X114738095Y-98931009D01*
X114738095Y-98931009D02*
X114785714Y-99026247D01*
X114785714Y-99026247D02*
X114785714Y-99264342D01*
X114785714Y-99264342D02*
X114738095Y-99359580D01*
X114738095Y-99359580D02*
X114690476Y-99407200D01*
X114690476Y-99407200D02*
X114595238Y-99454819D01*
X114595238Y-99454819D02*
X114357143Y-99454819D01*
X114357143Y-99454819D02*
X114261905Y-99407200D01*
X114261905Y-99407200D02*
X114214286Y-99359580D01*
X100904819Y-119719523D02*
X101619104Y-119719523D01*
X101619104Y-119719523D02*
X101761961Y-119767142D01*
X101761961Y-119767142D02*
X101857200Y-119862380D01*
X101857200Y-119862380D02*
X101904819Y-120005237D01*
X101904819Y-120005237D02*
X101904819Y-120100475D01*
X101904819Y-118719523D02*
X101904819Y-119290951D01*
X101904819Y-119005237D02*
X100904819Y-119005237D01*
X100904819Y-119005237D02*
X101047676Y-119100475D01*
X101047676Y-119100475D02*
X101142914Y-119195713D01*
X101142914Y-119195713D02*
X101190533Y-119290951D01*
X100904819Y-118100475D02*
X100904819Y-118005237D01*
X100904819Y-118005237D02*
X100952438Y-117909999D01*
X100952438Y-117909999D02*
X101000057Y-117862380D01*
X101000057Y-117862380D02*
X101095295Y-117814761D01*
X101095295Y-117814761D02*
X101285771Y-117767142D01*
X101285771Y-117767142D02*
X101523866Y-117767142D01*
X101523866Y-117767142D02*
X101714342Y-117814761D01*
X101714342Y-117814761D02*
X101809580Y-117862380D01*
X101809580Y-117862380D02*
X101857200Y-117909999D01*
X101857200Y-117909999D02*
X101904819Y-118005237D01*
X101904819Y-118005237D02*
X101904819Y-118100475D01*
X101904819Y-118100475D02*
X101857200Y-118195713D01*
X101857200Y-118195713D02*
X101809580Y-118243332D01*
X101809580Y-118243332D02*
X101714342Y-118290951D01*
X101714342Y-118290951D02*
X101523866Y-118338570D01*
X101523866Y-118338570D02*
X101285771Y-118338570D01*
X101285771Y-118338570D02*
X101095295Y-118290951D01*
X101095295Y-118290951D02*
X101000057Y-118243332D01*
X101000057Y-118243332D02*
X100952438Y-118195713D01*
X100952438Y-118195713D02*
X100904819Y-118100475D01*
X106707142Y-124904819D02*
X106373809Y-124428628D01*
X106135714Y-124904819D02*
X106135714Y-123904819D01*
X106135714Y-123904819D02*
X106516666Y-123904819D01*
X106516666Y-123904819D02*
X106611904Y-123952438D01*
X106611904Y-123952438D02*
X106659523Y-124000057D01*
X106659523Y-124000057D02*
X106707142Y-124095295D01*
X106707142Y-124095295D02*
X106707142Y-124238152D01*
X106707142Y-124238152D02*
X106659523Y-124333390D01*
X106659523Y-124333390D02*
X106611904Y-124381009D01*
X106611904Y-124381009D02*
X106516666Y-124428628D01*
X106516666Y-124428628D02*
X106135714Y-124428628D01*
X107659523Y-124904819D02*
X107088095Y-124904819D01*
X107373809Y-124904819D02*
X107373809Y-123904819D01*
X107373809Y-123904819D02*
X107278571Y-124047676D01*
X107278571Y-124047676D02*
X107183333Y-124142914D01*
X107183333Y-124142914D02*
X107088095Y-124190533D01*
X108278571Y-123904819D02*
X108373809Y-123904819D01*
X108373809Y-123904819D02*
X108469047Y-123952438D01*
X108469047Y-123952438D02*
X108516666Y-124000057D01*
X108516666Y-124000057D02*
X108564285Y-124095295D01*
X108564285Y-124095295D02*
X108611904Y-124285771D01*
X108611904Y-124285771D02*
X108611904Y-124523866D01*
X108611904Y-124523866D02*
X108564285Y-124714342D01*
X108564285Y-124714342D02*
X108516666Y-124809580D01*
X108516666Y-124809580D02*
X108469047Y-124857200D01*
X108469047Y-124857200D02*
X108373809Y-124904819D01*
X108373809Y-124904819D02*
X108278571Y-124904819D01*
X108278571Y-124904819D02*
X108183333Y-124857200D01*
X108183333Y-124857200D02*
X108135714Y-124809580D01*
X108135714Y-124809580D02*
X108088095Y-124714342D01*
X108088095Y-124714342D02*
X108040476Y-124523866D01*
X108040476Y-124523866D02*
X108040476Y-124285771D01*
X108040476Y-124285771D02*
X108088095Y-124095295D01*
X108088095Y-124095295D02*
X108135714Y-124000057D01*
X108135714Y-124000057D02*
X108183333Y-123952438D01*
X108183333Y-123952438D02*
X108278571Y-123904819D01*
D13*
%TO.C,J3*%
X122250000Y-84140000D02*
X122250000Y-85390000D01*
X122250000Y-85390000D02*
X123500000Y-85390000D01*
X122540000Y-77480000D02*
X122540000Y-85100000D01*
X122540000Y-85100000D02*
X128510000Y-85100000D01*
X122550000Y-77490000D02*
X122550000Y-79290000D01*
X122550000Y-79290000D02*
X123300000Y-79290000D01*
X122550000Y-80790000D02*
X122550000Y-81790000D01*
X122550000Y-81790000D02*
X123300000Y-81790000D01*
X122550000Y-83290000D02*
X122550000Y-85090000D01*
X122550000Y-85090000D02*
X123300000Y-85090000D01*
X123300000Y-77490000D02*
X122550000Y-77490000D01*
X123300000Y-79290000D02*
X123300000Y-77490000D01*
X123300000Y-80790000D02*
X122550000Y-80790000D01*
X123300000Y-81790000D02*
X123300000Y-80790000D01*
X123300000Y-83290000D02*
X122550000Y-83290000D01*
X123300000Y-85090000D02*
X123300000Y-83290000D01*
X124800000Y-77490000D02*
X124800000Y-78240000D01*
X124800000Y-78240000D02*
X127750000Y-78240000D01*
X124800000Y-84340000D02*
X127750000Y-84340000D01*
X124800000Y-85090000D02*
X124800000Y-84340000D01*
X127750000Y-78240000D02*
X127750000Y-81290000D01*
X127750000Y-84340000D02*
X127750000Y-81290000D01*
X128510000Y-77480000D02*
X122540000Y-77480000D01*
X128510000Y-85100000D02*
X128510000Y-77480000D01*
%TO.C,R1*%
X103772936Y-87265000D02*
X104227064Y-87265000D01*
X103772936Y-88735000D02*
X104227064Y-88735000D01*
%TO.C,R9*%
X123772936Y-112525000D02*
X124227064Y-112525000D01*
X123772936Y-113995000D02*
X124227064Y-113995000D01*
%TO.C,R2*%
X113772936Y-87265000D02*
X114227064Y-87265000D01*
X113772936Y-88735000D02*
X114227064Y-88735000D01*
%TO.C,R4*%
X103772936Y-99985000D02*
X104227064Y-99985000D01*
X103772936Y-101455000D02*
X104227064Y-101455000D01*
%TO.C,J4*%
X102250000Y-96680000D02*
X102250000Y-97930000D01*
X102250000Y-97930000D02*
X103500000Y-97930000D01*
X102540000Y-90020000D02*
X102540000Y-97640000D01*
X102540000Y-97640000D02*
X108510000Y-97640000D01*
X102550000Y-90030000D02*
X102550000Y-91830000D01*
X102550000Y-91830000D02*
X103300000Y-91830000D01*
X102550000Y-93330000D02*
X102550000Y-94330000D01*
X102550000Y-94330000D02*
X103300000Y-94330000D01*
X102550000Y-95830000D02*
X102550000Y-97630000D01*
X102550000Y-97630000D02*
X103300000Y-97630000D01*
X103300000Y-90030000D02*
X102550000Y-90030000D01*
X103300000Y-91830000D02*
X103300000Y-90030000D01*
X103300000Y-93330000D02*
X102550000Y-93330000D01*
X103300000Y-94330000D02*
X103300000Y-93330000D01*
X103300000Y-95830000D02*
X102550000Y-95830000D01*
X103300000Y-97630000D02*
X103300000Y-95830000D01*
X104800000Y-90030000D02*
X104800000Y-90780000D01*
X104800000Y-90780000D02*
X107750000Y-90780000D01*
X104800000Y-96880000D02*
X107750000Y-96880000D01*
X104800000Y-97630000D02*
X104800000Y-96880000D01*
X107750000Y-90780000D02*
X107750000Y-93830000D01*
X107750000Y-96880000D02*
X107750000Y-93830000D01*
X108510000Y-90020000D02*
X102540000Y-90020000D01*
X108510000Y-97640000D02*
X108510000Y-90020000D01*
%TO.C,J5*%
X112250000Y-96680000D02*
X112250000Y-97930000D01*
X112250000Y-97930000D02*
X113500000Y-97930000D01*
X112540000Y-90020000D02*
X112540000Y-97640000D01*
X112540000Y-97640000D02*
X118510000Y-97640000D01*
X112550000Y-90030000D02*
X112550000Y-91830000D01*
X112550000Y-91830000D02*
X113300000Y-91830000D01*
X112550000Y-93330000D02*
X112550000Y-94330000D01*
X112550000Y-94330000D02*
X113300000Y-94330000D01*
X112550000Y-95830000D02*
X112550000Y-97630000D01*
X112550000Y-97630000D02*
X113300000Y-97630000D01*
X113300000Y-90030000D02*
X112550000Y-90030000D01*
X113300000Y-91830000D02*
X113300000Y-90030000D01*
X113300000Y-93330000D02*
X112550000Y-93330000D01*
X113300000Y-94330000D02*
X113300000Y-93330000D01*
X113300000Y-95830000D02*
X112550000Y-95830000D01*
X113300000Y-97630000D02*
X113300000Y-95830000D01*
X114800000Y-90030000D02*
X114800000Y-90780000D01*
X114800000Y-90780000D02*
X117750000Y-90780000D01*
X114800000Y-96880000D02*
X117750000Y-96880000D01*
X114800000Y-97630000D02*
X114800000Y-96880000D01*
X117750000Y-90780000D02*
X117750000Y-93830000D01*
X117750000Y-96880000D02*
X117750000Y-93830000D01*
X118510000Y-90020000D02*
X112540000Y-90020000D01*
X118510000Y-97640000D02*
X118510000Y-90020000D01*
%TO.C,J12*%
X122250000Y-121760000D02*
X122250000Y-123010000D01*
X122250000Y-123010000D02*
X123500000Y-123010000D01*
X122540000Y-115100000D02*
X122540000Y-122720000D01*
X122540000Y-122720000D02*
X128510000Y-122720000D01*
X122550000Y-115110000D02*
X122550000Y-116910000D01*
X122550000Y-116910000D02*
X123300000Y-116910000D01*
X122550000Y-118410000D02*
X122550000Y-119410000D01*
X122550000Y-119410000D02*
X123300000Y-119410000D01*
X122550000Y-120910000D02*
X122550000Y-122710000D01*
X122550000Y-122710000D02*
X123300000Y-122710000D01*
X123300000Y-115110000D02*
X122550000Y-115110000D01*
X123300000Y-116910000D02*
X123300000Y-115110000D01*
X123300000Y-118410000D02*
X122550000Y-118410000D01*
X123300000Y-119410000D02*
X123300000Y-118410000D01*
X123300000Y-120910000D02*
X122550000Y-120910000D01*
X123300000Y-122710000D02*
X123300000Y-120910000D01*
X124800000Y-115110000D02*
X124800000Y-115860000D01*
X124800000Y-115860000D02*
X127750000Y-115860000D01*
X124800000Y-121960000D02*
X127750000Y-121960000D01*
X124800000Y-122710000D02*
X124800000Y-121960000D01*
X127750000Y-115860000D02*
X127750000Y-118910000D01*
X127750000Y-121960000D02*
X127750000Y-118910000D01*
X128510000Y-115100000D02*
X122540000Y-115100000D01*
X128510000Y-122720000D02*
X128510000Y-115100000D01*
%TO.C,J7*%
X102250000Y-109220000D02*
X102250000Y-110470000D01*
X102250000Y-110470000D02*
X103500000Y-110470000D01*
X102540000Y-102560000D02*
X102540000Y-110180000D01*
X102540000Y-110180000D02*
X108510000Y-110180000D01*
X102550000Y-102570000D02*
X102550000Y-104370000D01*
X102550000Y-104370000D02*
X103300000Y-104370000D01*
X102550000Y-105870000D02*
X102550000Y-106870000D01*
X102550000Y-106870000D02*
X103300000Y-106870000D01*
X102550000Y-108370000D02*
X102550000Y-110170000D01*
X102550000Y-110170000D02*
X103300000Y-110170000D01*
X103300000Y-102570000D02*
X102550000Y-102570000D01*
X103300000Y-104370000D02*
X103300000Y-102570000D01*
X103300000Y-105870000D02*
X102550000Y-105870000D01*
X103300000Y-106870000D02*
X103300000Y-105870000D01*
X103300000Y-108370000D02*
X102550000Y-108370000D01*
X103300000Y-110170000D02*
X103300000Y-108370000D01*
X104800000Y-102570000D02*
X104800000Y-103320000D01*
X104800000Y-103320000D02*
X107750000Y-103320000D01*
X104800000Y-109420000D02*
X107750000Y-109420000D01*
X104800000Y-110170000D02*
X104800000Y-109420000D01*
X107750000Y-103320000D02*
X107750000Y-106370000D01*
X107750000Y-109420000D02*
X107750000Y-106370000D01*
X108510000Y-102560000D02*
X102540000Y-102560000D01*
X108510000Y-110180000D02*
X108510000Y-102560000D01*
%TO.C,J1*%
X102250000Y-84140000D02*
X102250000Y-85390000D01*
X102250000Y-85390000D02*
X103500000Y-85390000D01*
X102540000Y-77480000D02*
X102540000Y-85100000D01*
X102540000Y-85100000D02*
X108510000Y-85100000D01*
X102550000Y-77490000D02*
X102550000Y-79290000D01*
X102550000Y-79290000D02*
X103300000Y-79290000D01*
X102550000Y-80790000D02*
X102550000Y-81790000D01*
X102550000Y-81790000D02*
X103300000Y-81790000D01*
X102550000Y-83290000D02*
X102550000Y-85090000D01*
X102550000Y-85090000D02*
X103300000Y-85090000D01*
X103300000Y-77490000D02*
X102550000Y-77490000D01*
X103300000Y-79290000D02*
X103300000Y-77490000D01*
X103300000Y-80790000D02*
X102550000Y-80790000D01*
X103300000Y-81790000D02*
X103300000Y-80790000D01*
X103300000Y-83290000D02*
X102550000Y-83290000D01*
X103300000Y-85090000D02*
X103300000Y-83290000D01*
X104800000Y-77490000D02*
X104800000Y-78240000D01*
X104800000Y-78240000D02*
X107750000Y-78240000D01*
X104800000Y-84340000D02*
X107750000Y-84340000D01*
X104800000Y-85090000D02*
X104800000Y-84340000D01*
X107750000Y-78240000D02*
X107750000Y-81290000D01*
X107750000Y-84340000D02*
X107750000Y-81290000D01*
X108510000Y-77480000D02*
X102540000Y-77480000D01*
X108510000Y-85100000D02*
X108510000Y-77480000D01*
%TO.C,R12*%
X123822936Y-123765000D02*
X124277064Y-123765000D01*
X123822936Y-125235000D02*
X124277064Y-125235000D01*
%TO.C,R6*%
X123772936Y-99815000D02*
X124227064Y-99815000D01*
X123772936Y-101285000D02*
X124227064Y-101285000D01*
%TO.C,J100*%
X130320000Y-91880000D02*
X130320000Y-92880000D01*
X130320000Y-92880000D02*
X131320000Y-92380000D01*
X131320000Y-92380000D02*
X130320000Y-91880000D01*
X131710000Y-87170000D02*
X140830000Y-87170000D01*
X131710000Y-97950000D02*
X133020000Y-97950000D01*
X131710000Y-112830000D02*
X131710000Y-87170000D01*
X133020000Y-88470000D02*
X139520000Y-88470000D01*
X133020000Y-97950000D02*
X133020000Y-88470000D01*
X133020000Y-102050000D02*
X131710000Y-102050000D01*
X133020000Y-102050000D02*
X133020000Y-102050000D01*
X133020000Y-111530000D02*
X133020000Y-102050000D01*
X139520000Y-88470000D02*
X139520000Y-111530000D01*
X139520000Y-111530000D02*
X133020000Y-111530000D01*
X140830000Y-87170000D02*
X140830000Y-112830000D01*
X140830000Y-112830000D02*
X131710000Y-112830000D01*
%TO.C,R7*%
X103772936Y-112525000D02*
X104227064Y-112525000D01*
X103772936Y-113995000D02*
X104227064Y-113995000D01*
%TO.C,R8*%
X113772936Y-112525000D02*
X114227064Y-112525000D01*
X113772936Y-113995000D02*
X114227064Y-113995000D01*
%TO.C,J11*%
X112250000Y-121760000D02*
X112250000Y-123010000D01*
X112250000Y-123010000D02*
X113500000Y-123010000D01*
X112540000Y-115100000D02*
X112540000Y-122720000D01*
X112540000Y-122720000D02*
X118510000Y-122720000D01*
X112550000Y-115110000D02*
X112550000Y-116910000D01*
X112550000Y-116910000D02*
X113300000Y-116910000D01*
X112550000Y-118410000D02*
X112550000Y-119410000D01*
X112550000Y-119410000D02*
X113300000Y-119410000D01*
X112550000Y-120910000D02*
X112550000Y-122710000D01*
X112550000Y-122710000D02*
X113300000Y-122710000D01*
X113300000Y-115110000D02*
X112550000Y-115110000D01*
X113300000Y-116910000D02*
X113300000Y-115110000D01*
X113300000Y-118410000D02*
X112550000Y-118410000D01*
X113300000Y-119410000D02*
X113300000Y-118410000D01*
X113300000Y-120910000D02*
X112550000Y-120910000D01*
X113300000Y-122710000D02*
X113300000Y-120910000D01*
X114800000Y-115110000D02*
X114800000Y-115860000D01*
X114800000Y-115860000D02*
X117750000Y-115860000D01*
X114800000Y-121960000D02*
X117750000Y-121960000D01*
X114800000Y-122710000D02*
X114800000Y-121960000D01*
X117750000Y-115860000D02*
X117750000Y-118910000D01*
X117750000Y-121960000D02*
X117750000Y-118910000D01*
X118510000Y-115100000D02*
X112540000Y-115100000D01*
X118510000Y-122720000D02*
X118510000Y-115100000D01*
%TO.C,J9*%
X122250000Y-109220000D02*
X122250000Y-110470000D01*
X122250000Y-110470000D02*
X123500000Y-110470000D01*
X122540000Y-102560000D02*
X122540000Y-110180000D01*
X122540000Y-110180000D02*
X128510000Y-110180000D01*
X122550000Y-102570000D02*
X122550000Y-104370000D01*
X122550000Y-104370000D02*
X123300000Y-104370000D01*
X122550000Y-105870000D02*
X122550000Y-106870000D01*
X122550000Y-106870000D02*
X123300000Y-106870000D01*
X122550000Y-108370000D02*
X122550000Y-110170000D01*
X122550000Y-110170000D02*
X123300000Y-110170000D01*
X123300000Y-102570000D02*
X122550000Y-102570000D01*
X123300000Y-104370000D02*
X123300000Y-102570000D01*
X123300000Y-105870000D02*
X122550000Y-105870000D01*
X123300000Y-106870000D02*
X123300000Y-105870000D01*
X123300000Y-108370000D02*
X122550000Y-108370000D01*
X123300000Y-110170000D02*
X123300000Y-108370000D01*
X124800000Y-102570000D02*
X124800000Y-103320000D01*
X124800000Y-103320000D02*
X127750000Y-103320000D01*
X124800000Y-109420000D02*
X127750000Y-109420000D01*
X124800000Y-110170000D02*
X124800000Y-109420000D01*
X127750000Y-103320000D02*
X127750000Y-106370000D01*
X127750000Y-109420000D02*
X127750000Y-106370000D01*
X128510000Y-102560000D02*
X122540000Y-102560000D01*
X128510000Y-110180000D02*
X128510000Y-102560000D01*
%TO.C,J6*%
X122250000Y-96680000D02*
X122250000Y-97930000D01*
X122250000Y-97930000D02*
X123500000Y-97930000D01*
X122540000Y-90020000D02*
X122540000Y-97640000D01*
X122540000Y-97640000D02*
X128510000Y-97640000D01*
X122550000Y-90030000D02*
X122550000Y-91830000D01*
X122550000Y-91830000D02*
X123300000Y-91830000D01*
X122550000Y-93330000D02*
X122550000Y-94330000D01*
X122550000Y-94330000D02*
X123300000Y-94330000D01*
X122550000Y-95830000D02*
X122550000Y-97630000D01*
X122550000Y-97630000D02*
X123300000Y-97630000D01*
X123300000Y-90030000D02*
X122550000Y-90030000D01*
X123300000Y-91830000D02*
X123300000Y-90030000D01*
X123300000Y-93330000D02*
X122550000Y-93330000D01*
X123300000Y-94330000D02*
X123300000Y-93330000D01*
X123300000Y-95830000D02*
X122550000Y-95830000D01*
X123300000Y-97630000D02*
X123300000Y-95830000D01*
X124800000Y-90030000D02*
X124800000Y-90780000D01*
X124800000Y-90780000D02*
X127750000Y-90780000D01*
X124800000Y-96880000D02*
X127750000Y-96880000D01*
X124800000Y-97630000D02*
X124800000Y-96880000D01*
X127750000Y-90780000D02*
X127750000Y-93830000D01*
X127750000Y-96880000D02*
X127750000Y-93830000D01*
X128510000Y-90020000D02*
X122540000Y-90020000D01*
X128510000Y-97640000D02*
X128510000Y-90020000D01*
%TO.C,J8*%
X112250000Y-109220000D02*
X112250000Y-110470000D01*
X112250000Y-110470000D02*
X113500000Y-110470000D01*
X112540000Y-102560000D02*
X112540000Y-110180000D01*
X112540000Y-110180000D02*
X118510000Y-110180000D01*
X112550000Y-102570000D02*
X112550000Y-104370000D01*
X112550000Y-104370000D02*
X113300000Y-104370000D01*
X112550000Y-105870000D02*
X112550000Y-106870000D01*
X112550000Y-106870000D02*
X113300000Y-106870000D01*
X112550000Y-108370000D02*
X112550000Y-110170000D01*
X112550000Y-110170000D02*
X113300000Y-110170000D01*
X113300000Y-102570000D02*
X112550000Y-102570000D01*
X113300000Y-104370000D02*
X113300000Y-102570000D01*
X113300000Y-105870000D02*
X112550000Y-105870000D01*
X113300000Y-106870000D02*
X113300000Y-105870000D01*
X113300000Y-108370000D02*
X112550000Y-108370000D01*
X113300000Y-110170000D02*
X113300000Y-108370000D01*
X114800000Y-102570000D02*
X114800000Y-103320000D01*
X114800000Y-103320000D02*
X117750000Y-103320000D01*
X114800000Y-109420000D02*
X117750000Y-109420000D01*
X114800000Y-110170000D02*
X114800000Y-109420000D01*
X117750000Y-103320000D02*
X117750000Y-106370000D01*
X117750000Y-109420000D02*
X117750000Y-106370000D01*
X118510000Y-102560000D02*
X112540000Y-102560000D01*
X118510000Y-110180000D02*
X118510000Y-102560000D01*
%TO.C,J2*%
X112250000Y-84140000D02*
X112250000Y-85390000D01*
X112250000Y-85390000D02*
X113500000Y-85390000D01*
X112540000Y-77480000D02*
X112540000Y-85100000D01*
X112540000Y-85100000D02*
X118510000Y-85100000D01*
X112550000Y-77490000D02*
X112550000Y-79290000D01*
X112550000Y-79290000D02*
X113300000Y-79290000D01*
X112550000Y-80790000D02*
X112550000Y-81790000D01*
X112550000Y-81790000D02*
X113300000Y-81790000D01*
X112550000Y-83290000D02*
X112550000Y-85090000D01*
X112550000Y-85090000D02*
X113300000Y-85090000D01*
X113300000Y-77490000D02*
X112550000Y-77490000D01*
X113300000Y-79290000D02*
X113300000Y-77490000D01*
X113300000Y-80790000D02*
X112550000Y-80790000D01*
X113300000Y-81790000D02*
X113300000Y-80790000D01*
X113300000Y-83290000D02*
X112550000Y-83290000D01*
X113300000Y-85090000D02*
X113300000Y-83290000D01*
X114800000Y-77490000D02*
X114800000Y-78240000D01*
X114800000Y-78240000D02*
X117750000Y-78240000D01*
X114800000Y-84340000D02*
X117750000Y-84340000D01*
X114800000Y-85090000D02*
X114800000Y-84340000D01*
X117750000Y-78240000D02*
X117750000Y-81290000D01*
X117750000Y-84340000D02*
X117750000Y-81290000D01*
X118510000Y-77480000D02*
X112540000Y-77480000D01*
X118510000Y-85100000D02*
X118510000Y-77480000D01*
%TO.C,R3*%
X123772936Y-87265000D02*
X124227064Y-87265000D01*
X123772936Y-88735000D02*
X124227064Y-88735000D01*
%TO.C,R11*%
X113822936Y-123765000D02*
X114277064Y-123765000D01*
X113822936Y-125235000D02*
X114277064Y-125235000D01*
%TO.C,R5*%
X113772936Y-99915000D02*
X114227064Y-99915000D01*
X113772936Y-101385000D02*
X114227064Y-101385000D01*
%TO.C,J10*%
X102250000Y-121760000D02*
X102250000Y-123010000D01*
X102250000Y-123010000D02*
X103500000Y-123010000D01*
X102540000Y-115100000D02*
X102540000Y-122720000D01*
X102540000Y-122720000D02*
X108510000Y-122720000D01*
X102550000Y-115110000D02*
X102550000Y-116910000D01*
X102550000Y-116910000D02*
X103300000Y-116910000D01*
X102550000Y-118410000D02*
X102550000Y-119410000D01*
X102550000Y-119410000D02*
X103300000Y-119410000D01*
X102550000Y-120910000D02*
X102550000Y-122710000D01*
X102550000Y-122710000D02*
X103300000Y-122710000D01*
X103300000Y-115110000D02*
X102550000Y-115110000D01*
X103300000Y-116910000D02*
X103300000Y-115110000D01*
X103300000Y-118410000D02*
X102550000Y-118410000D01*
X103300000Y-119410000D02*
X103300000Y-118410000D01*
X103300000Y-120910000D02*
X102550000Y-120910000D01*
X103300000Y-122710000D02*
X103300000Y-120910000D01*
X104800000Y-115110000D02*
X104800000Y-115860000D01*
X104800000Y-115860000D02*
X107750000Y-115860000D01*
X104800000Y-121960000D02*
X107750000Y-121960000D01*
X104800000Y-122710000D02*
X104800000Y-121960000D01*
X107750000Y-115860000D02*
X107750000Y-118910000D01*
X107750000Y-121960000D02*
X107750000Y-118910000D01*
X108510000Y-115100000D02*
X102540000Y-115100000D01*
X108510000Y-122720000D02*
X108510000Y-115100000D01*
%TO.C,R10*%
X103822936Y-123765000D02*
X104277064Y-123765000D01*
X103822936Y-125235000D02*
X104277064Y-125235000D01*
%TD*%
M02*
